999
dxflib 3.7.5.0
  0
SECTION
  2
HEADER
  9
$ACADVER
  1
AC1015
  9
$HANDSEED
  5
FFFF
  9
$DIMADEC
 70
0
  9
$DIMASZ
 40
2.5
  9
$DIMAUNIT
 70
0
  9
$DIMAZIN
 70
2
  9
$DIMDEC
 70
4
  9
$DIMEXE
 40
1.25
  9
$DIMEXO
 40
0.625
  9
$DIMGAP
 40
0.625
  9
$DIMLUNIT
 70
2
  9
$DIMSCALE
 40
1.0
  9
$DIMTSZ
 40
0.0
  9
$DIMTXT
 40
2.5
  9
$DIMZIN
 70
8
  9
$DWGCODEPAGE
  3
ANSI_1252
  9
$INSUNITS
 70
4
  9
$LTSCALE
 40
1.0
  9
$MEASUREMENT
 70
1
  9
$PDMODE
 70
0
  9
$PDSIZE
 40
0
  0
ENDSEC
  0
SECTION
  2
TABLES
  0
TABLE
  2
VPORT
  5
8
100
AcDbSymbolTable
 70
1
  0
VPORT
  5
30
100
AcDbSymbolTableRecord
100
AcDbViewportTableRecord
  2
*Active
 70
0
 10
0.0
 20
0.0
 11
1.0
 21
1.0
 12
286.30555555555549
 22
148.5
 13
0.0
 23
0.0
 14
10.0
 24
10.0
 15
10.0
 25
10.0
 16
0.0
 26
0.0
 36
1.0
 17
0.0
 27
0.0
 37
0.0
 40
297.0
 41
1.92798353909465
 42
50.0
 43
0.0
 44
0.0
 50
0.0
 51
0.0
 71
0
 72
100
 73
1
 74
3
 75
1
 76
1
 77
0
 78
0
281
0
 65
1
110
0.0
120
0.0
130
0.0
111
1.0
121
0.0
131
0.0
112
0.0
122
1.0
132
0.0
 79
0
146
0.0
  0
ENDTAB
  0
TABLE
  2
LTYPE
  5
5
100
AcDbSymbolTable
 70
50
  0
LTYPE
  5
16
100
AcDbSymbolTableRecord
100
AcDbLinetypeTableRecord
  2
Continuous
 70
0
  3
Solid line
 72
65
 73
0
 40
0.0
  0
LTYPE
  5
31
100
AcDbSymbolTableRecord
100
AcDbLinetypeTableRecord
  2
ACAD_ISO15W100
 70
0
  3
ISO double-dash triple-dot __ __ . . . __ __ . .
 72
65
 73
10
 40
39.0
 49
12.0
 74
0
 49
-3.0
 74
0
 49
12.0
 74
0
 49
-3.0
 74
0
 49
0.0
 74
0
 49
-3.0
 74
0
 49
0.0
 74
0
 49
-3.0
 74
0
 49
0.0
 74
0
 49
-3.0
 74
0
  0
LTYPE
  5
32
100
AcDbSymbolTableRecord
100
AcDbLinetypeTableRecord
  2
HOT_WATER_SUPPLY
 70
0
  3
Hot water supply ---- HW ---- HW ---- HW ----
 72
65
 73
3
 40
22.859999999999999
 49
12.699999999999999
 74
0
 49
-5.0800000000000001
 74
0
 49
-5.0800000000000001
 74
0
  0
LTYPE
  5
33
100
AcDbSymbolTableRecord
100
AcDbLinetypeTableRecord
  2
DIVIDE
 70
0
  3
Divide ____ . . ____ . . ____ . . ____ . . ____
 72
65
 73
6
 40
31.75
 49
12.699999999999999
 74
0
 49
-6.3499999999999996
 74
0
 49
0.0
 74
0
 49
-6.3499999999999996
 74
0
 49
0.0
 74
0
 49
-6.3499999999999996
 74
0
  0
LTYPE
  5
34
100
AcDbSymbolTableRecord
100
AcDbLinetypeTableRecord
  2
ACAD_ISO10W100
 70
0
  3
ISO dash dot __ . __ . __ . __ . __ . __ . __ . 
 72
65
 73
4
 40
18.0
 49
12.0
 74
0
 49
-3.0
 74
0
 49
0.0
 74
0
 49
-3.0
 74
0
  0
LTYPE
  5
35
100
AcDbSymbolTableRecord
100
AcDbLinetypeTableRecord
  2
GAS_LINE
 70
0
  3
Gas line ----GAS----GAS----GAS----GAS----GAS----GAS--
 72
65
 73
3
 40
24.130000000000003
 49
12.699999999999999
 74
0
 49
-5.0800000000000001
 74
0
 49
-6.3499999999999996
 74
0
  0
LTYPE
  5
36
100
AcDbSymbolTableRecord
100
AcDbLinetypeTableRecord
  2
ACAD_ISO04W100
 70
0
  3
ISO long-dash dot ____ . ____ . ____ . ____ . _
 72
65
 73
4
 40
30.0
 49
24.0
 74
0
 49
-3.0
 74
0
 49
0.0
 74
0
 49
-3.0
 74
0
  0
LTYPE
  5
37
100
AcDbSymbolTableRecord
100
AcDbLinetypeTableRecord
  2
CENTER2
 70
0
  3
Center (.5x) ___ _ ___ _ ___ _ ___ _ ___ _ ___
 72
65
 73
4
 40
28.575000000000003
 49
19.050000000000001
 74
0
 49
-3.1749999999999998
 74
0
 49
3.1749999999999998
 74
0
 49
-3.1749999999999998
 74
0
  0
LTYPE
  5
38
100
AcDbSymbolTableRecord
100
AcDbLinetypeTableRecord
  2
ACAD_ISO11W100
 70
0
  3
ISO double-dash dot __ __ . __ __ . __ __ . __ _
 72
65
 73
6
 40
33.0
 49
12.0
 74
0
 49
-3.0
 74
0
 49
12.0
 74
0
 49
-3.0
 74
0
 49
0.0
 74
0
 49
-3.0
 74
0
  0
LTYPE
  5
39
100
AcDbSymbolTableRecord
100
AcDbLinetypeTableRecord
  2
HIDDEN2
 70
0
  3
Hidden (.5x) _ _ _ _ _ _ _ _ _ _ _ _ _ _ _ _ _ 
 72
65
 73
2
 40
4.7624999999999993
 49
3.1749999999999998
 74
0
 49
-1.5874999999999999
 74
0
  0
LTYPE
  5
3A
100
AcDbSymbolTableRecord
100
AcDbLinetypeTableRecord
  2
BORDERX2
 70
0
  3
Border (2x) ____  ____  .  ____  ____  .  ___
 72
65
 73
6
 40
88.899999999999991
 49
25.399999999999999
 74
0
 49
-12.699999999999999
 74
0
 49
25.399999999999999
 74
0
 49
-12.699999999999999
 74
0
 49
0.0
 74
0
 49
-12.699999999999999
 74
0
  0
LTYPE
  5
3B
100
AcDbSymbolTableRecord
100
AcDbLinetypeTableRecord
  2
ACAD_ISO05W100
 70
0
  3
ISO long-dash double-dot ____ .. ____ .. ____ . 
 72
65
 73
6
 40
33.0
 49
24.0
 74
0
 49
-3.0
 74
0
 49
0.0
 74
0
 49
-3.0
 74
0
 49
0.0
 74
0
 49
-3.0
 74
0
  0
LTYPE
  5
3C
100
AcDbSymbolTableRecord
100
AcDbLinetypeTableRecord
  2
DASHDOTX2
 70
0
  3
Dash dot (2x) ____  .  ____  .  ____  .  ___
 72
65
 73
4
 40
50.799999999999997
 49
25.399999999999999
 74
0
 49
-12.699999999999999
 74
0
 49
0.0
 74
0
 49
-12.699999999999999
 74
0
  0
LTYPE
  5
3D
100
AcDbSymbolTableRecord
100
AcDbLinetypeTableRecord
  2
HIDDENX2
 70
0
  3
Hidden (2x) ____ ____ ____ ____ ____ ____ ____ 
 72
65
 73
2
 40
19.049999999999997
 49
12.699999999999999
 74
0
 49
-6.3499999999999996
 74
0
  0
LTYPE
  5
3E
100
AcDbSymbolTableRecord
100
AcDbLinetypeTableRecord
  2
CENTERX2
 70
0
  3
Center (2x) ________  __  ________  __  _____
 72
65
 73
4
 40
101.60000000000001
 49
63.5
 74
0
 49
-12.699999999999999
 74
0
 49
12.699999999999999
 74
0
 49
-12.699999999999999
 74
0
  0
LTYPE
  5
3F
100
AcDbSymbolTableRecord
100
AcDbLinetypeTableRecord
  2
BORDER2
 70
0
  3
Border (.5x) __.__.__.__.__.__.__.__.__.__.__.
 72
65
 73
6
 40
22.224999999999998
 49
6.3499999999999996
 74
0
 49
-3.1749999999999998
 74
0
 49
6.3499999999999996
 74
0
 49
-3.1749999999999998
 74
0
 49
0.0
 74
0
 49
-3.1749999999999998
 74
0
  0
LTYPE
  5
40
100
AcDbSymbolTableRecord
100
AcDbLinetypeTableRecord
  2
DASHDOT2
 70
0
  3
Dash dot (.5x) _._._._._._._._._._._._._._._.
 72
65
 73
4
 40
12.699999999999999
 49
6.3499999999999996
 74
0
 49
-3.1749999999999998
 74
0
 49
0.0
 74
0
 49
-3.1749999999999998
 74
0
  0
LTYPE
  5
41
100
AcDbSymbolTableRecord
100
AcDbLinetypeTableRecord
  2
ACAD_ISO12W100
 70
0
  3
ISO dash double-dot __ . . __ . . __ . . __ . . 
 72
65
 73
6
 40
21.0
 49
12.0
 74
0
 49
-3.0
 74
0
 49
0.0
 74
0
 49
-3.0
 74
0
 49
0.0
 74
0
 49
-3.0
 74
0
  0
LTYPE
  5
42
100
AcDbSymbolTableRecord
100
AcDbLinetypeTableRecord
  2
ACAD_ISO07W100
 70
0
  3
ISO dot . . . . . . . . . . . . . . . . . . . . 
 72
65
 73
2
 40
3.0
 49
0.0
 74
0
 49
-3.0
 74
0
  0
LTYPE
  5
43
100
AcDbSymbolTableRecord
100
AcDbLinetypeTableRecord
  2
ACAD_ISO06W100
 70
0
  3
ISO long-dash triple-dot ____ ... ____ ... ____
 72
65
 73
8
 40
36.0
 49
24.0
 74
0
 49
-3.0
 74
0
 49
0.0
 74
0
 49
-3.0
 74
0
 49
0.0
 74
0
 49
-3.0
 74
0
 49
0.0
 74
0
 49
-3.0
 74
0
  0
LTYPE
  5
44
100
AcDbSymbolTableRecord
100
AcDbLinetypeTableRecord
  2
CENTER
 70
0
  3
Center ____ _ ____ _ ____ _ ____ _ ____ _ ____
 72
65
 73
4
 40
50.800000000000004
 49
31.75
 74
0
 49
-6.3499999999999996
 74
0
 49
6.3499999999999996
 74
0
 49
-6.3499999999999996
 74
0
  0
LTYPE
  5
45
100
AcDbSymbolTableRecord
100
AcDbLinetypeTableRecord
  2
HIDDEN
 70
0
  3
Hidden __ __ __ __ __ __ __ __ __ __ __ __ __ __
 72
65
 73
2
 40
9.5249999999999986
 49
6.3499999999999996
 74
0
 49
-3.1749999999999998
 74
0
  0
LTYPE
  5
46
100
AcDbSymbolTableRecord
100
AcDbLinetypeTableRecord
  2
DOTX2
 70
0
  3
Dot (2x) .  .  .  .  .  .  .  .  .  .  .  .  .  .
 72
65
 73
2
 40
12.699999999999999
 49
0.0
 74
0
 49
-12.699999999999999
 74
0
  0
LTYPE
  5
47
100
AcDbSymbolTableRecord
100
AcDbLinetypeTableRecord
  2
PHANTOM
 70
0
  3
Phantom ______  __  __  ______  __  __  ______ 
 72
65
 73
6
 40
63.500000000000007
 49
31.75
 74
0
 49
-6.3499999999999996
 74
0
 49
6.3499999999999996
 74
0
 49
-6.3499999999999996
 74
0
 49
6.3499999999999996
 74
0
 49
-6.3499999999999996
 74
0
  0
LTYPE
  5
48
100
AcDbSymbolTableRecord
100
AcDbLinetypeTableRecord
  2
ACAD_ISO08W100
 70
0
  3
ISO long-dash short-dash ____ __ ____ __ ____ _
 72
65
 73
4
 40
36.0
 49
24.0
 74
0
 49
-3.0
 74
0
 49
6.0
 74
0
 49
-3.0
 74
0
  0
LTYPE
  5
49
100
AcDbSymbolTableRecord
100
AcDbLinetypeTableRecord
  2
DASHEDX2
 70
0
  3
Dashed (2x) ____  ____  ____  ____  ____  ___
 72
65
 73
2
 40
38.099999999999994
 49
25.399999999999999
 74
0
 49
-12.699999999999999
 74
0
  0
LTYPE
  5
4A
100
AcDbSymbolTableRecord
100
AcDbLinetypeTableRecord
  2
DRAINAGE
 70
0
  3
Drainage ---->---->---->----
 72
65
 73
2
 40
10.16
 49
5.0800000000000001
 74
0
 49
5.0800000000000001
 74
0
  0
LTYPE
  5
4B
100
AcDbSymbolTableRecord
100
AcDbLinetypeTableRecord
  2
ACAD_ISO02W100
 70
0
  3
ISO dash __ __ __ __ __ __ __ __ __ __ __ __ __
 72
65
 73
2
 40
15.0
 49
12.0
 74
0
 49
-3.0
 74
0
  0
LTYPE
  5
4C
100
AcDbSymbolTableRecord
100
AcDbLinetypeTableRecord
  2
PHANTOM2
 70
0
  3
Phantom (.5x) ___ _ _ ___ _ _ ___ _ _ ___ _ _
 72
65
 73
6
 40
31.750000000000004
 49
15.875
 74
0
 49
-3.1749999999999998
 74
0
 49
3.1749999999999998
 74
0
 49
-3.1749999999999998
 74
0
 49
3.1749999999999998
 74
0
 49
-3.1749999999999998
 74
0
  0
LTYPE
  5
4D
100
AcDbSymbolTableRecord
100
AcDbLinetypeTableRecord
  2
DASHED2
 70
0
  3
Dashed (.5x) _ _ _ _ _ _ _ _ _ _ _ _ _ _ _ _ _ 
 72
65
 73
2
 40
9.5249999999999986
 49
6.3499999999999996
 74
0
 49
-3.1749999999999998
 74
0
  0
LTYPE
  5
4E
100
AcDbSymbolTableRecord
100
AcDbLinetypeTableRecord
  2
ACAD_ISO09W100
 70
0
  3
ISO long-dash double-short-dash ____ __ __ ____
 72
65
 73
6
 40
45.0
 49
24.0
 74
0
 49
-3.0
 74
0
 49
6.0
 74
0
 49
-3.0
 74
0
 49
6.0
 74
0
 49
-3.0
 74
0
  0
LTYPE
  5
4F
100
AcDbSymbolTableRecord
100
AcDbLinetypeTableRecord
  2
ACAD_ISO13W100
 70
0
  3
ISO double-dash double-dot __ __ . . __ __ . . _
 72
65
 73
8
 40
36.0
 49
12.0
 74
0
 49
-3.0
 74
0
 49
12.0
 74
0
 49
-3.0
 74
0
 49
0.0
 74
0
 49
-3.0
 74
0
 49
0.0
 74
0
 49
-3.0
 74
0
  0
LTYPE
  5
50
100
AcDbSymbolTableRecord
100
AcDbLinetypeTableRecord
  2
TRACKS
 70
0
  3
Tracks -|-|-|-|-|-|-|-|-|-|-|-|-|-|-|-|-|-|-|-|-|-|-|-|-
 72
65
 73
2
 40
7.6200000000000001
 49
3.8100000000000001
 74
0
 49
3.8100000000000001
 74
0
  0
LTYPE
  5
51
100
AcDbSymbolTableRecord
100
AcDbLinetypeTableRecord
  2
DRAINAGE2
 70
0
  3
Drainage reversed----<----<----<----
 72
65
 73
2
 40
10.16
 49
5.0800000000000001
 74
0
 49
5.0800000000000001
 74
0
  0
LTYPE
  5
52
100
AcDbSymbolTableRecord
100
AcDbLinetypeTableRecord
  2
DOT2
 70
0
  3
Dot (.5x) ........................................
 72
65
 73
2
 40
3.1749999999999998
 49
0.0
 74
0
 49
-3.1749999999999998
 74
0
  0
LTYPE
  5
53
100
AcDbSymbolTableRecord
100
AcDbLinetypeTableRecord
  2
ZIGZAG
 70
0
  3
Zig zag /\/\/\/\/\/\/\/\/\/\/\/\/\/\/\/\/\/\/\/\/\/\/\/
 72
65
 73
4
 40
20.32254
 49
0.00254
 74
0
 49
-5.0800000000000001
 74
0
 49
-10.16
 74
0
 49
-5.0800000000000001
 74
0
  0
LTYPE
  5
54
100
AcDbSymbolTableRecord
100
AcDbLinetypeTableRecord
  2
DASHED
 70
0
  3
Dashed __ __ __ __ __ __ __ __ __ __ __ __ __ _
 72
65
 73
2
 40
19.049999999999997
 49
12.699999999999999
 74
0
 49
-6.3499999999999996
 74
0
  0
LTYPE
  5
55
100
AcDbSymbolTableRecord
100
AcDbLinetypeTableRecord
  2
ACAD_ISO14W100
 70
0
  3
ISO dash triple-dot __ . . . __ . . . __ . . . _
 72
65
 73
8
 40
24.0
 49
12.0
 74
0
 49
-3.0
 74
0
 49
0.0
 74
0
 49
-3.0
 74
0
 49
0.0
 74
0
 49
-3.0
 74
0
 49
0.0
 74
0
 49
-3.0
 74
0
  0
LTYPE
  5
15
100
AcDbSymbolTableRecord
100
AcDbLinetypeTableRecord
  2
BYLAYER
 70
0
  3

 72
65
 73
0
 40
0.0
  0
LTYPE
  5
56
100
AcDbSymbolTableRecord
100
AcDbLinetypeTableRecord
  2
PHANTOMX2
 70
0
  3
Phantom (2x) ____________    ____    ____   _
 72
65
 73
6
 40
127.00000000000001
 49
63.5
 74
0
 49
-12.699999999999999
 74
0
 49
12.699999999999999
 74
0
 49
-12.699999999999999
 74
0
 49
12.699999999999999
 74
0
 49
-12.699999999999999
 74
0
  0
LTYPE
  5
14
100
AcDbSymbolTableRecord
100
AcDbLinetypeTableRecord
  2
BYBLOCK
 70
0
  3

 72
65
 73
0
 40
0.0
  0
LTYPE
  5
57
100
AcDbSymbolTableRecord
100
AcDbLinetypeTableRecord
  2
DIVIDEX2
 70
0
  3
Divide (2x) ________  .  .  ________  .  .  _
 72
65
 73
6
 40
63.5
 49
25.399999999999999
 74
0
 49
-12.699999999999999
 74
0
 49
0.0
 74
0
 49
-12.699999999999999
 74
0
 49
0.0
 74
0
 49
-12.699999999999999
 74
0
  0
LTYPE
  5
58
100
AcDbSymbolTableRecord
100
AcDbLinetypeTableRecord
  2
BORDER
 70
0
  3
Border __ __ . __ __ . __ __ . __ __ . __ __ .
 72
65
 73
6
 40
44.449999999999996
 49
12.699999999999999
 74
0
 49
-6.3499999999999996
 74
0
 49
12.699999999999999
 74
0
 49
-6.3499999999999996
 74
0
 49
0.0
 74
0
 49
-6.3499999999999996
 74
0
  0
LTYPE
  5
59
100
AcDbSymbolTableRecord
100
AcDbLinetypeTableRecord
  2
DIVIDE2
 70
0
  3
Divide (.5x) __..__..__..__..__..__..__..__.._
 72
65
 73
6
 40
15.875
 49
6.3499999999999996
 74
0
 49
-3.1749999999999998
 74
0
 49
0.0
 74
0
 49
-3.1749999999999998
 74
0
 49
0.0
 74
0
 49
-3.1749999999999998
 74
0
  0
LTYPE
  5
5A
100
AcDbSymbolTableRecord
100
AcDbLinetypeTableRecord
  2
DOT
 70
0
  3
Dot . . . . . . . . . . . . . . . . . . . . . . . .
 72
65
 73
2
 40
6.3499999999999996
 49
0.0
 74
0
 49
-6.3499999999999996
 74
0
  0
LTYPE
  5
5B
100
AcDbSymbolTableRecord
100
AcDbLinetypeTableRecord
  2
DASHDOT
 70
0
  3
Dash dot __ . __ . __ . __ . __ . __ . __ . __
 72
65
 73
4
 40
25.399999999999999
 49
12.699999999999999
 74
0
 49
-6.3499999999999996
 74
0
 49
0.0
 74
0
 49
-6.3499999999999996
 74
0
  0
LTYPE
  5
5C
100
AcDbSymbolTableRecord
100
AcDbLinetypeTableRecord
  2
FENCELINE1
 70
0
  3
Fenceline circle ----0-----0----0-----0----0-----0--
 72
65
 73
4
 40
36.829999999999998
 49
6.3499999999999996
 74
0
 49
-2.54
 74
0
 49
-2.54
 74
0
 49
25.399999999999999
 74
0
  0
LTYPE
  5
5D
100
AcDbSymbolTableRecord
100
AcDbLinetypeTableRecord
  2
BATTING
 70
0
  3
Batting SSSSSSSSSSSSSSSSSSSSSSSSSSSSSSSSSSSSSSSSSSSSSSS
 72
65
 73
4
 40
10.16254
 49
0.00254
 74
0
 49
-2.54
 74
0
 49
-5.0800000000000001
 74
0
 49
-2.54
 74
0
  0
LTYPE
  5
5E
100
AcDbSymbolTableRecord
100
AcDbLinetypeTableRecord
  2
ACAD_ISO03W100
 70
0
  3
ISO dash space __    __    __    __    __    __
 72
65
 73
2
 40
30.0
 49
12.0
 74
0
 49
-18.0
 74
0
  0
LTYPE
  5
5F
100
AcDbSymbolTableRecord
100
AcDbLinetypeTableRecord
  2
FENCELINE2
 70
0
  3
Fenceline square ----[]-----[]----[]-----[]----[]---
 72
65
 73
4
 40
36.829999999999998
 49
6.3499999999999996
 74
0
 49
-2.54
 74
0
 49
-2.54
 74
0
 49
25.399999999999999
 74
0
  0
ENDTAB
  0
TABLE
  2
LAYER
  5
2
100
AcDbSymbolTable
 70
1
  0
LAYER
  5
10
100
AcDbSymbolTableRecord
100
AcDbLayerTableRecord
  2
0
 70
0
 62
7
420
16777215
  6
Continuous
370
25
390
F
  0
ENDTAB
  0
TABLE
  2
STYLE
  5
3
100
AcDbSymbolTable
 70
1
  0
STYLE
  5
60
100
AcDbSymbolTableRecord
100
AcDbTextStyleTableRecord
  2
Standard
 70
0
 40
0.0
 41
1.0
 50
0.0
 71
0
 42
2.5
  3

  4

1001
ACAD
1000
txt
1071
0
  0
ENDTAB
  0
TABLE
  2
VIEW
  5
6
100
AcDbSymbolTable
 70
0
  0
ENDTAB
  0
TABLE
  2
UCS
  5
7
100
AcDbSymbolTable
 70
0
  0
ENDTAB
  0
TABLE
  2
APPID
  5
9
100
AcDbSymbolTable
 70
1
  0
APPID
  5
12
100
AcDbSymbolTableRecord
100
AcDbRegAppTableRecord
  2
ACAD
 70
0
  0
APPID
  5
61
100
AcDbSymbolTableRecord
100
AcDbRegAppTableRecord
  2
QCAD
 70
0
  0
ENDTAB
  0
TABLE
  2
DIMSTYLE
  5
A
100
AcDbSymbolTable
 70
1
100
AcDbDimStyleTable
 71
0
  0
DIMSTYLE
105
27
100
AcDbSymbolTableRecord
100
AcDbDimStyleTableRecord
  2
Standard
 41
2.5
 42
0.625
 43
3.75
 44
1.25
 70
0
 73
0
 74
0
 77
1
 78
8
140
2.5
141
2.5
143
0.03937007874016
147
0.625
171
3
172
1
271
2
272
2
274
3
278
44
283
0
284
8
340
60
  0
ENDTAB
  0
TABLE
  2
BLOCK_RECORD
  5
1
100
AcDbSymbolTable
 70
1
  0
BLOCK_RECORD
  5
1F
100
AcDbSymbolTableRecord
100
AcDbBlockTableRecord
  2
*Model_Space
340
22
  0
BLOCK_RECORD
  5
1B
100
AcDbSymbolTableRecord
100
AcDbBlockTableRecord
  2
*Paper_Space
340
1E
  0
BLOCK_RECORD
  5
23
100
AcDbSymbolTableRecord
100
AcDbBlockTableRecord
  2
*Paper_Space0
340
26
  0
BLOCK_RECORD
  5
62
100
AcDbSymbolTableRecord
100
AcDbBlockTableRecord
  2
Layer1
340
0
  0
BLOCK_RECORD
  5
63
100
AcDbSymbolTableRecord
100
AcDbBlockTableRecord
  2
Layer 1
340
0
  0
BLOCK_RECORD
  5
64
100
AcDbSymbolTableRecord
100
AcDbBlockTableRecord
  2
Layer 2
340
0
  0
BLOCK_RECORD
  5
65
100
AcDbSymbolTableRecord
100
AcDbBlockTableRecord
  2
Layer 5
340
0
  0
ENDTAB
  0
ENDSEC
  0
SECTION
  2
BLOCKS
  0
BLOCK
  5
20
100
AcDbEntity
  8
0
100
AcDbBlockBegin
  2
*Model_Space
 70
0
 10
0.0
 20
0.0
 30
0.0
  3
*Model_Space
  1

  0
ENDBLK
  5
21
100
AcDbEntity
  8
0
100
AcDbBlockEnd
  0
BLOCK
  5
1C
100
AcDbEntity
 67
1
  8
0
100
AcDbBlockBegin
  2
*Paper_Space
 70
0
 10
0.0
 20
0.0
 30
0.0
  3
*Paper_Space
  1

  0
ENDBLK
  5
1D
100
AcDbEntity
 67
1
  8
0
100
AcDbBlockEnd
  0
BLOCK
  5
24
100
AcDbEntity
  8
0
100
AcDbBlockBegin
  2
*Paper_Space0
 70
0
 10
0.0
 20
0.0
 30
0.0
  3
*Paper_Space0
  1

  0
ENDBLK
  5
25
100
AcDbEntity
  8
0
100
AcDbBlockEnd
  0
BLOCK
  5
66
100
AcDbEntity
  8
0
100
AcDbBlockBegin
  2
Layer1
 70
0
 10
0.0
 20
0.0
 30
0.0
  3
Layer1
  1

  0
ARC
  5
67
100
AcDbEntity
  8
0
 62
1
420
16711680
370
0
 48
1.0
  6
Continuous
100
AcDbCircle
 10
-70.110000000000127
 20
38.827191382018498
 30
0.0
 40
1.0
100
AcDbArc
 50
90.0
 51
180.0
  0
ARC
  5
68
100
AcDbEntity
  8
0
 62
1
420
16711680
370
0
 48
1.0
  6
Continuous
100
AcDbCircle
 10
-70.110000000000127
 20
-35.880808617981586
 30
0.0
 40
1.0
100
AcDbArc
 50
180.0
 51
270.0
  0
LINE
  5
69
100
AcDbEntity
100
AcDbLine
  8
0
 62
1
420
16711680
370
0
 48
1.0
  6
Continuous
 10
121.9249583547552
 20
-43.415626097151318
 30
0.0
 11
95.960571948918414
 21
-99.096908303337983
 31
0.0
  0
LINE
  5
6A
100
AcDbEntity
100
AcDbLine
  8
0
 62
1
420
16711680
370
0
 48
1.0
  6
Continuous
 10
86.658588994725307
 20
-102.48299310660744
 30
0.0
 11
7.0906107666449003
 21
-65.387608131824379
 31
0.0
  0
CIRCLE
  5
6B
100
AcDbEntity
100
AcDbCircle
  8
0
 62
1
420
16711680
370
0
 48
1.0
  6
Continuous
 10
21.333299999999895
 20
69.253000000000299
 30
0.0
 40
1.5
  0
LINE
  5
6C
100
AcDbEntity
100
AcDbLine
  8
0
 62
1
420
16711680
370
0
 48
1.0
  6
Continuous
 10
4.1327920056102982
 20
-64.731999999910215
 30
0.0
 11
-72.999999999999545
 21
-64.731999999995153
 31
0.0
  0
CIRCLE
  5
6D
100
AcDbEntity
100
AcDbCircle
  8
0
 62
1
420
16711680
370
0
 48
1.0
  6
Continuous
 10
74.816573734152797
 20
67.434123734153189
 30
0.0
 40
1.5
  0
ARC
  5
6E
100
AcDbEntity
  8
0
 62
1
420
16711680
370
0
 48
1.0
  6
Continuous
100
AcDbCircle
 10
-73.000000000000085
 20
66.698000000000093
 30
0.0
 40
7.0
100
AcDbArc
 50
90.000000000000043
 51
180.0
  0
ARC
  5
6F
100
AcDbEntity
  8
0
 62
1
420
16711680
370
0
 48
1.0
  6
Continuous
100
AcDbCircle
 10
74.086800000000011
 20
66.698000000000292
 30
0.0
 40
7.0
100
AcDbArc
 50
0.0
 51
90.000000000002103
  0
ARC
  5
70
100
AcDbEntity
  8
0
 62
1
420
16711680
370
0
 48
1.0
  6
Continuous
100
AcDbCircle
 10
-73.000000000000114
 20
-57.731999999998372
 30
0.0
 40
7.0
100
AcDbArc
 50
180.0
 51
270.00000000000438
  0
ARC
  5
71
100
AcDbEntity
  8
0
 62
1
420
16711680
370
0
 48
1.0
  6
Continuous
100
AcDbCircle
 10
89.616407755759298
 20
-96.138601238438355
 30
0.0
 40
7.0
100
AcDbArc
 50
245.00459747358514
 51
335.00018755483688
  0
ARC
  5
72
100
AcDbEntity
  8
0
 62
1
420
16711680
370
0
 48
1.0
  6
Continuous
100
AcDbCircle
 10
115.58079416159609
 20
-40.457319032251348
 30
0.0
 40
7.0
100
AcDbArc
 50
335.00018755483688
 51
65.001872880338098
  0
CIRCLE
  5
73
100
AcDbEntity
100
AcDbCircle
  8
0
 62
1
420
16711680
370
0
 48
1.0
  6
Continuous
 10
116.55853472886469
 20
-40.101514877556923
 30
0.0
 40
1.5
  0
ARC
  5
74
100
AcDbEntity
  8
0
 62
1
420
16711680
370
0
 48
1.0
  6
Continuous
100
AcDbCircle
 10
4.1327920056108951
 20
-71.731999999992354
 30
0.0
 40
7.0
100
AcDbArc
 50
65.004597473585093
 51
90.00000000000442
  0
CIRCLE
  5
75
100
AcDbEntity
100
AcDbCircle
  8
0
 62
1
420
16711680
370
0
 48
1.0
  6
Continuous
 10
89.972096714905888
 20
-97.117594802730167
 30
0.0
 40
1.5
  0
CIRCLE
  5
76
100
AcDbEntity
100
AcDbCircle
  8
0
 62
1
420
16711680
370
0
 48
1.0
  6
Continuous
 10
6.6698799999999068
 20
-60.287000000000901
 30
0.0
 40
1.5
  0
CIRCLE
  5
77
100
AcDbEntity
100
AcDbCircle
  8
0
 62
1
420
16711680
370
0
 48
1.0
  6
Continuous
 10
-73.736124000000132
 20
-56.880623734152238
 30
0.0
 40
1.5
  0
LINE
  5
78
100
AcDbEntity
100
AcDbLine
  8
0
 62
1
420
16711680
370
0
 48
1.0
  6
Continuous
 10
81.086800000000011
 20
66.698000000000206
 30
0.0
 11
81.086799999999897
 21
-12.19069770710351
 31
0.0
  0
LINE
  5
79
100
AcDbEntity
100
AcDbLine
  8
0
 62
1
420
16711680
370
0
 48
1.0
  6
Continuous
 10
-80.0
 20
-57.731999999998358
 30
0.0
 11
-79.999999999999972
 21
66.698000000000093
 31
0.0
  0
LINE
  5
7A
100
AcDbEntity
100
AcDbLine
  8
0
 62
1
420
16711680
370
0
 48
1.0
  6
Continuous
 10
-73.000000000000114
 20
73.698000000000206
 30
0.0
 11
74.086799999999698
 21
73.698000000000292
 31
0.0
  0
LINE
  5
7B
100
AcDbEntity
100
AcDbLine
  8
0
 62
1
420
16711680
370
0
 48
1.0
  6
Continuous
 10
-71.110000000000127
 20
-35.880808617981586
 30
0.0
 11
-71.110000000000099
 21
38.827191382018498
 31
0.0
  0
LINE
  5
7C
100
AcDbEntity
100
AcDbLine
  8
0
 62
1
420
16711680
370
0
 48
1.0
  6
Continuous
 10
85.12867954666379
 20
-18.534948914579019
 30
0.0
 11
118.5389146149322
 21
-34.113067824775783
 31
0.0
  0
LINE
  5
7D
100
AcDbEntity
100
AcDbLine
  8
0
 62
1
420
16711680
370
0
 48
1.0
  6
Continuous
 10
72.18414127415511
 20
40.716191382018394
 30
0.0
 11
72.196799999999797
 21
-24.599999999999625
 31
0.0
  0
CIRCLE
  5
7E
100
AcDbEntity
100
AcDbCircle
  8
0
 62
1
420
16711680
370
0
 48
1.0
  6
Continuous
 10
-73.736123734152983
 20
67.434123734153104
 30
0.0
 40
1.5
  0
ARC
  5
7F
100
AcDbEntity
  8
0
 62
1
420
16711680
370
0
 48
1.0
  6
Continuous
100
AcDbCircle
 10
58.608741071695107
 20
-35.991808617981633
 30
0.0
 40
1.0159999999999949
100
AcDbArc
 50
90.0
 51
244.99999999990004
  0
LINE
  5
80
100
AcDbEntity
100
AcDbLine
  8
0
 62
1
420
16711680
370
0
 48
1.0
  6
Continuous
 10
58.179360919534986
 20
-36.912617330081645
 30
0.0
 11
68.64123441027499
 21
-41.791069059061641
 31
0.0
  0
ARC
  5
81
100
AcDbEntity
  8
0
 62
1
420
16711680
370
0
 48
1.0
  6
Continuous
100
AcDbCircle
 10
69.285304641055092
 20
-40.409855989641784
 30
0.0
 40
1.523999999999982
100
AcDbArc
 50
244.99999999990004
 51
334.99999999990013
  0
LINE
  5
82
100
AcDbEntity
100
AcDbLine
  8
0
 62
1
420
16711680
370
0
 48
1.0
  6
Continuous
 10
70.666517707934986
 20
-41.053926220421573
 30
0.0
 11
77.643945208475088
 21
-26.090784658321581
 31
0.0
  0
ARC
  5
83
100
AcDbEntity
  8
0
 62
1
420
16711680
370
0
 48
1.0
  6
Continuous
100
AcDbCircle
 10
78.5647539205751
 20
-26.520164810481617
 30
0.0
 40
1.0160000000000129
100
AcDbArc
 50
64.999999999900012
 51
154.99999999990001
  0
LINE
  5
84
100
AcDbEntity
100
AcDbLine
  8
0
 62
1
420
16711680
370
0
 48
1.0
  6
Continuous
 10
78.994134075275014
 20
-25.599356100921682
 30
0.0
 11
112.14324769309511
 21
-41.057041642181417
 31
0.0
  0
ARC
  5
85
100
AcDbEntity
  8
0
 62
1
420
16711680
370
0
 48
1.0
  6
Continuous
100
AcDbCircle
 10
111.71386753839511
 20
-41.977850351741665
 30
0.0
 40
1.0159999999999949
100
AcDbArc
 50
334.99999999990013
 51
64.999999999900012
  0
LINE
  5
86
100
AcDbEntity
100
AcDbLine
  8
0
 62
1
420
16711680
370
0
 48
1.0
  6
Continuous
 10
112.6346762500236
 20
-42.407230505671862
 30
0.0
 11
89.126112822743607
 21
-92.821507467111871
 31
0.0
  0
ARC
  5
87
100
AcDbEntity
  8
0
 62
1
420
16711680
370
0
 48
1.0
  6
Continuous
100
AcDbCircle
 10
88.205304111115112
 20
-92.392127315721567
 30
0.0
 40
1.0159999999999541
100
AcDbArc
 50
244.99999999990004
 51
334.99999999990013
  0
LINE
  5
88
100
AcDbEntity
100
AcDbLine
  8
0
 62
1
420
16711680
370
0
 48
1.0
  6
Continuous
 10
87.775923956415113
 20
-93.312936025281545
 30
0.0
 11
37.36164699497499
 21
-69.804372598001521
 31
0.0
  0
ARC
  5
89
100
AcDbEntity
  8
0
 62
1
420
16711680
370
0
 48
1.0
  6
Continuous
100
AcDbCircle
 10
37.791027149675102
 20
-68.883563885901538
 30
0.0
 40
1.0159999999999949
100
AcDbArc
 50
154.99999999990001
 51
244.99999999990004
  0
LINE
  5
8A
100
AcDbEntity
100
AcDbLine
  8
0
 62
1
420
16711680
370
0
 48
1.0
  6
Continuous
 10
36.870218437575005
 20
-68.454183733741331
 30
0.0
 11
51.470453384874986
 21
-37.143878848761688
 31
0.0
  0
ARC
  5
8B
100
AcDbEntity
  8
0
 62
1
420
16711680
370
0
 48
1.0
  6
Continuous
100
AcDbCircle
 10
50.089240317995092
 20
-36.499808617981557
 30
0.0
 40
1.5240000000000611
100
AcDbArc
 50
334.99999999990013
 51
90.0
  0
LINE
  5
8C
100
AcDbEntity
100
AcDbLine
  8
0
 62
1
420
16711680
370
0
 48
1.0
  6
Continuous
 10
50.089240317995092
 20
-34.975808617981613
 30
0.0
 11
35.608141274155088
 21
-34.975808617981642
 31
0.0
  0
ARC
  5
8D
100
AcDbEntity
  8
0
 62
1
420
16711680
370
0
 48
1.0
  6
Continuous
100
AcDbCircle
 10
35.608141274155088
 20
-36.499808617981557
 30
0.0
 40
1.5239999999999669
100
AcDbArc
 50
90.0
 51
180.0
  0
LINE
  5
8E
100
AcDbEntity
100
AcDbLine
  8
0
 62
1
420
16711680
370
0
 48
1.0
  6
Continuous
 10
34.084141274155087
 20
-36.499808617981671
 30
0.0
 11
34.084141274155087
 21
-51.739808617981843
 31
0.0
  0
ARC
  5
8F
100
AcDbEntity
  8
0
 62
1
420
16711680
370
0
 48
1.0
  6
Continuous
100
AcDbCircle
 10
33.068141274155096
 20
-51.739808617981502
 30
0.0
 40
1.0159999999999769
100
AcDbArc
 50
270.0
 51
0.0
  0
LINE
  5
90
100
AcDbEntity
100
AcDbLine
  8
0
 62
1
420
16711680
370
0
 48
1.0
  6
Continuous
 10
33.068141274155096
 20
-52.755808617981359
 30
0.0
 11
15.356784291555101
 21
-52.755808617981451
 31
0.0
  0
ARC
  5
91
100
AcDbEntity
  8
0
 62
1
420
16711680
370
0
 48
1.0
  6
Continuous
100
AcDbCircle
 10
15.356784291555101
 20
-51.739808617981531
 30
0.0
 40
1.0160000000000251
100
AcDbArc
 50
202.02431283700011
 51
270.0
  0
ARC
  5
92
100
AcDbEntity
  8
0
 62
1
420
16711680
370
0
 48
1.0
  6
Continuous
100
AcDbCircle
 10
13.002141274155093
 20
-52.692308617981674
 30
0.0
 40
1.5239999999999669
100
AcDbArc
 50
22.024312836999989
 51
90.0
  0
LINE
  5
93
100
AcDbEntity
100
AcDbLine
  8
0
 62
1
420
16711680
370
0
 48
1.0
  6
Continuous
 10
13.002141274155093
 20
-51.168308617981658
 30
0.0
 11
-2.4918587258449065
 21
-51.168308617981651
 31
0.0
  0
ARC
  5
94
100
AcDbEntity
  8
0
 62
1
420
16711680
370
0
 48
1.0
  6
Continuous
100
AcDbCircle
 10
-2.4918587258449065
 20
-52.692308617981723
 30
0.0
 40
1.523999999999982
100
AcDbArc
 50
90.0
 51
157.975687163
  0
ARC
  5
95
100
AcDbEntity
  8
0
 62
1
420
16711680
370
0
 48
1.0
  6
Continuous
100
AcDbCircle
 10
-4.8465017457849058
 20
-51.739808617981588
 30
0.0
 40
1.015999999999982
100
AcDbArc
 50
270.0
 51
337.97568716299998
  0
LINE
  5
96
100
AcDbEntity
100
AcDbLine
  8
0
 62
1
420
16711680
370
0
 48
1.0
  6
Continuous
 10
-4.8465017457849058
 20
-52.755808617981508
 30
0.0
 11
-21.541858725844918
 21
-52.755808617981558
 31
0.0
  0
ARC
  5
97
100
AcDbEntity
  8
0
 62
1
420
16711680
370
0
 48
1.0
  6
Continuous
100
AcDbCircle
 10
-21.541858725844918
 20
-54.279808617981658
 30
0.0
 40
1.524000000000058
100
AcDbArc
 50
90.0
 51
180.0
  0
LINE
  5
98
100
AcDbEntity
100
AcDbLine
  8
0
 62
1
420
16711680
370
0
 48
1.0
  6
Continuous
 10
-23.065858725844919
 20
-54.27980861798158
 30
0.0
 11
-23.065858725844919
 21
-54.914808617981542
 31
0.0
  0
ARC
  5
99
100
AcDbEntity
  8
0
 62
1
420
16711680
370
0
 48
1.0
  6
Continuous
100
AcDbCircle
 10
-24.081858725844882
 20
-54.914808617981627
 30
0.0
 40
1.0160000000000231
100
AcDbArc
 50
270.0
 51
0.0
  0
LINE
  5
9A
100
AcDbEntity
100
AcDbLine
  8
0
 62
1
420
16711680
370
0
 48
1.0
  6
Continuous
 10
-24.081858725844882
 20
-55.930808617981732
 30
0.0
 11
-60.657858725844903
 21
-55.930808617981597
 31
0.0
  0
ARC
  5
9B
100
AcDbEntity
  8
0
 62
1
420
16711680
370
0
 48
1.0
  6
Continuous
100
AcDbCircle
 10
-60.657858725844903
 20
-54.914808617981613
 30
0.0
 40
1.0160000000000691
100
AcDbArc
 50
180.0
 51
270.0
  0
LINE
  5
9C
100
AcDbEntity
100
AcDbLine
  8
0
 62
1
420
16711680
370
0
 48
1.0
  6
Continuous
 10
-61.67385872584498
 20
-54.914808617981613
 30
0.0
 11
-61.67385872584498
 21
-38.404808617981644
 31
0.0
  0
ARC
  5
9D
100
AcDbEntity
  8
0
 62
1
420
16711680
370
0
 48
1.0
  6
Continuous
100
AcDbCircle
 10
-63.197858725844917
 20
-38.404808617981644
 30
0.0
 40
1.524000000000058
100
AcDbArc
 50
0.0
 51
90.0
  0
LINE
  5
9E
100
AcDbEntity
100
AcDbLine
  8
0
 62
1
420
16711680
370
0
 48
1.0
  6
Continuous
 10
-63.197858725844917
 20
-36.880808617981586
 30
0.0
 11
-70.110000000000127
 21
-36.880808617981586
 31
0.0
  0
LINE
  5
9F
100
AcDbEntity
100
AcDbLine
  8
0
 62
1
420
16711680
370
0
 48
1.0
  6
Continuous
 10
-70.110000000000127
 20
39.827191382018498
 30
0.0
 11
-25.097858725844901
 21
39.827191382018498
 31
0.0
  0
ARC
  5
A0
100
AcDbEntity
  8
0
 62
1
420
16711680
370
0
 48
1.0
  6
Continuous
100
AcDbCircle
 10
-25.097858725844901
 20
41.351191382018413
 30
0.0
 40
1.524000000000012
100
AcDbArc
 50
270.0
 51
0.0
  0
LINE
  5
A1
100
AcDbEntity
100
AcDbLine
  8
0
 62
1
420
16711680
370
0
 48
1.0
  6
Continuous
 10
-23.573858725844843
 20
41.3511913820183
 30
0.0
 11
-23.5738587258449
 21
41.986191382018404
 31
0.0
  0
ARC
  5
A2
100
AcDbEntity
  8
0
 62
1
420
16711680
370
0
 48
1.0
  6
Continuous
100
AcDbCircle
 10
-22.557858725844881
 20
41.98619138201849
 30
0.0
 40
1.0160000000000691
100
AcDbArc
 50
90.0
 51
180.0
  0
LINE
  5
A3
100
AcDbEntity
100
AcDbLine
  8
0
 62
1
420
16711680
370
0
 48
1.0
  6
Continuous
 10
-22.557858725844881
 20
43.002191382018395
 30
0.0
 11
-6.0478587258448755
 21
43.002191382018395
 31
0.0
  0
ARC
  5
A4
100
AcDbEntity
  8
0
 62
1
420
16711680
370
0
 48
1.0
  6
Continuous
100
AcDbCircle
 10
-6.0478587258448471
 20
44.526191382018311
 30
0.0
 40
1.5240000000000511
100
AcDbArc
 50
270.0
 51
337.97568716299998
  0
ARC
  5
A5
100
AcDbEntity
  8
0
 62
1
420
16711680
370
0
 48
1.0
  6
Continuous
100
AcDbCircle
 10
-3.6932157084448534
 20
43.57369138201841
 30
0.0
 40
1.01599999999999
100
AcDbArc
 50
90.0
 51
157.975687163
  0
LINE
  5
A6
100
AcDbEntity
100
AcDbLine
  8
0
 62
1
420
16711680
370
0
 48
1.0
  6
Continuous
 10
-3.6932157084448392
 20
44.589691382018287
 30
0.0
 11
14.203498254215106
 21
44.589691382018287
 31
0.0
  0
ARC
  5
A7
100
AcDbEntity
  8
0
 62
1
420
16711680
370
0
 48
1.0
  6
Continuous
100
AcDbCircle
 10
14.203498254215106
 20
43.57369138201841
 30
0.0
 40
1.01599999999999
100
AcDbArc
 50
22.024312836999989
 51
90.0
  0
ARC
  5
A8
100
AcDbEntity
  8
0
 62
1
420
16711680
370
0
 48
1.0
  6
Continuous
100
AcDbCircle
 10
16.558141274155105
 20
44.526191382018311
 30
0.0
 40
1.524000000000008
100
AcDbArc
 50
202.02431283700011
 51
270.0
  0
LINE
  5
A9
100
AcDbEntity
100
AcDbLine
  8
0
 62
1
420
16711680
370
0
 48
1.0
  6
Continuous
 10
16.558141274155105
 20
43.002191382018395
 30
0.0
 11
33.408436747995097
 21
43.002191382018395
 31
0.0
  0
ARC
  5
AA
100
AcDbEntity
  8
0
 62
1
420
16711680
370
0
 48
1.0
  6
Continuous
100
AcDbCircle
 10
33.408436747995097
 20
41.986191382018404
 30
0.0
 40
1.0160000000000691
100
AcDbArc
 50
29.999999999999993
 51
90.0
  0
ARC
  5
AB
100
AcDbEntity
  8
0
 62
1
420
16711680
370
0
 48
1.0
  6
Continuous
100
AcDbCircle
 10
35.608141274155088
 20
43.256191382018301
 30
0.0
 40
1.524000000000058
100
AcDbArc
 50
210.0
 51
270.0
  0
LINE
  5
AC
100
AcDbEntity
100
AcDbLine
  8
0
 62
1
420
16711680
370
0
 48
1.0
  6
Continuous
 10
35.608141274155088
 20
41.732191382018414
 30
0.0
 11
71.16814127415509
 21
41.732191382018414
 31
0.0
  0
ARC
  5
AD
100
AcDbEntity
  8
0
 62
1
420
16711680
370
0
 48
1.0
  6
Continuous
100
AcDbCircle
 10
71.16814127415509
 20
40.716191382018394
 30
0.0
 40
1.0160000000000691
100
AcDbArc
 50
0.0
 51
90.0
  0
LINE
  5
AE
100
AcDbEntity
100
AcDbLine
  8
0
 62
1
420
16711680
370
0
 48
1.0
  6
Continuous
 10
72.18414127415511
 20
40.716191382018394
 30
0.0
 11
72.18414127415511
 21
-33.959808617981707
 31
0.0
  0
ARC
  5
AF
100
AcDbEntity
  8
0
 62
1
420
16711680
370
0
 48
1.0
  6
Continuous
100
AcDbCircle
 10
71.16814127415509
 20
-33.959808617981622
 30
0.0
 40
1.0160000000000691
100
AcDbArc
 50
270.0
 51
0.0
  0
LINE
  5
B0
100
AcDbEntity
100
AcDbLine
  8
0
 62
1
420
16711680
370
0
 48
1.0
  6
Continuous
 10
71.16814127415509
 20
-34.975808617981556
 30
0.0
 11
58.608741071695107
 21
-34.975808617981698
 31
0.0
  0
ARC
  5
B1
100
AcDbEntity
  8
0
 62
1
420
16711680
370
0
 48
1.0
  6
Continuous
100
AcDbCircle
 10
88.086800000000011
 20
-12.190697707103595
 30
0.0
 40
7.0
100
AcDbArc
 50
180.0
 51
245.00187288033831
  0
ENDBLK
  5
B2
100
AcDbEntity
  8
0
100
AcDbBlockEnd
  0
BLOCK
  5
B3
100
AcDbEntity
  8
0
100
AcDbBlockBegin
  2
Layer 1
 70
0
 10
0.0
 20
0.0
 30
0.0
  3
Layer 1
  1

  0
ARC
  5
B4
100
AcDbEntity
  8
0
 62
1
420
16711680
370
0
 48
1.0
  6
Continuous
100
AcDbCircle
 10
-1.0393128227435966
 20
80.630809760008276
 30
0.0
 40
7.0
100
AcDbArc
 50
180.0
 51
245.00187288033831
  0
ARC
  5
B5
100
AcDbEntity
  8
0
 62
1
420
16711680
370
0
 48
1.0
  6
Continuous
100
AcDbCircle
 10
-159.23611282274373
 20
131.64869884913037
 30
0.0
 40
1.0
100
AcDbArc
 50
90.0
 51
180.0
  0
ARC
  5
B6
100
AcDbEntity
  8
0
 62
1
420
16711680
370
0
 48
1.0
  6
Continuous
100
AcDbCircle
 10
-159.23611282274373
 20
56.940698849130293
 30
0.0
 40
1.0
100
AcDbArc
 50
180.0
 51
270.0
  0
LINE
  5
B7
100
AcDbEntity
100
AcDbLine
  8
0
 62
1
420
16711680
370
0
 48
1.0
  6
Continuous
 10
32.798845532011597
 20
49.405881369960561
 30
0.0
 11
6.8344591261748064
 21
-6.2754008362261011
 31
0.0
  0
LINE
  5
B8
100
AcDbEntity
100
AcDbLine
  8
0
 62
1
420
16711680
370
0
 48
1.0
  6
Continuous
 10
-2.4675238280183009
 20
-9.6614856394955666
 30
0.0
 11
-82.035502056098707
 21
27.433899335287506
 31
0.0
  0
CIRCLE
  5
B9
100
AcDbEntity
100
AcDbCircle
  8
0
 62
1
420
16711680
370
0
 48
1.0
  6
Continuous
 10
-67.792812822743713
 20
162.07450746711217
 30
0.0
 40
1.5
  0
LINE
  5
BA
100
AcDbEntity
100
AcDbLine
  8
0
 62
1
420
16711680
370
0
 48
1.0
  6
Continuous
 10
-84.993320817133309
 20
28.089507467201656
 30
0.0
 11
-162.12611282274315
 21
28.089507467116725
 31
0.0
  0
CIRCLE
  5
BB
100
AcDbEntity
100
AcDbCircle
  8
0
 62
1
420
16711680
370
0
 48
1.0
  6
Continuous
 10
-14.30953908859081
 20
160.25563120126506
 30
0.0
 40
1.5
  0
ARC
  5
BC
100
AcDbEntity
  8
0
 62
1
420
16711680
370
0
 48
1.0
  6
Continuous
100
AcDbCircle
 10
-162.12611282274369
 20
159.51950746711196
 30
0.0
 40
7.0
100
AcDbArc
 50
90.000000000000043
 51
180.0
  0
ARC
  5
BD
100
AcDbEntity
  8
0
 62
1
420
16711680
370
0
 48
1.0
  6
Continuous
100
AcDbCircle
 10
-15.039312822743597
 20
159.51950746711216
 30
0.0
 40
7.0
100
AcDbArc
 50
0.0
 51
90.000000000002103
  0
ARC
  5
BE
100
AcDbEntity
  8
0
 62
1
420
16711680
370
0
 48
1.0
  6
Continuous
100
AcDbCircle
 10
-162.12611282274372
 20
35.089507467113506
 30
0.0
 40
7.0
100
AcDbArc
 50
180.0
 51
270.00000000000438
  0
ARC
  5
BF
100
AcDbEntity
  8
0
 62
1
420
16711680
370
0
 48
1.0
  6
Continuous
100
AcDbCircle
 10
0.4902949330156901
 20
-3.317093771326471
 30
0.0
 40
7.0
100
AcDbArc
 50
245.00459747358514
 51
335.00018755483688
  0
ARC
  5
C0
100
AcDbEntity
  8
0
 62
1
420
16711680
370
0
 48
1.0
  6
Continuous
100
AcDbCircle
 10
26.454681338852481
 20
52.36418843486053
 30
0.0
 40
7.0
100
AcDbArc
 50
335.00018755483688
 51
65.001872880338098
  0
CIRCLE
  5
C1
100
AcDbEntity
100
AcDbCircle
  8
0
 62
1
420
16711680
370
0
 48
1.0
  6
Continuous
 10
27.432421906121078
 20
52.719992589554955
 30
0.0
 40
1.5
  0
ARC
  5
C2
100
AcDbEntity
  8
0
 62
1
420
16711680
370
0
 48
1.0
  6
Continuous
100
AcDbCircle
 10
-84.993320817132712
 20
21.089507467119532
 30
0.0
 40
7.0
100
AcDbArc
 50
65.004597473585093
 51
90.00000000000442
  0
CIRCLE
  5
C3
100
AcDbEntity
100
AcDbCircle
  8
0
 62
1
420
16711680
370
0
 48
1.0
  6
Continuous
 10
0.8459838921622804
 20
-4.2960873356182923
 30
0.0
 40
1.5
  0
CIRCLE
  5
C4
100
AcDbEntity
100
AcDbCircle
  8
0
 62
1
420
16711680
370
0
 48
1.0
  6
Continuous
 10
-82.456232822743701
 20
32.534507467110977
 30
0.0
 40
1.5
  0
CIRCLE
  5
C5
100
AcDbEntity
100
AcDbCircle
  8
0
 62
1
420
16711680
370
0
 48
1.0
  6
Continuous
 10
-162.86223682274374
 20
35.940883732959641
 30
0.0
 40
1.5
  0
LINE
  5
C6
100
AcDbEntity
100
AcDbLine
  8
0
 62
1
420
16711680
370
0
 48
1.0
  6
Continuous
 10
-8.0393128227435966
 20
159.51950746711208
 30
0.0
 11
-8.0393128227437103
 21
80.630809760008361
 31
0.0
  0
LINE
  5
C7
100
AcDbEntity
100
AcDbLine
  8
0
 62
1
420
16711680
370
0
 48
1.0
  6
Continuous
 10
-169.12611282274361
 20
35.089507467113521
 30
0.0
 11
-169.12611282274358
 21
159.51950746711196
 31
0.0
  0
LINE
  5
C8
100
AcDbEntity
100
AcDbLine
  8
0
 62
1
420
16711680
370
0
 48
1.0
  6
Continuous
 10
-162.12611282274372
 20
166.51950746711208
 30
0.0
 11
-15.039312822743909
 21
166.51950746711216
 31
0.0
  0
LINE
  5
C9
100
AcDbEntity
100
AcDbLine
  8
0
 62
1
420
16711680
370
0
 48
1.0
  6
Continuous
 10
-160.23611282274373
 20
56.940698849130293
 30
0.0
 11
-160.23611282274371
 21
131.64869884913037
 31
0.0
  0
LINE
  5
CA
100
AcDbEntity
100
AcDbLine
  8
0
 62
1
420
16711680
370
0
 48
1.0
  6
Continuous
 10
-3.9974332760798177
 20
74.286558552532853
 30
0.0
 11
29.412801792188588
 21
58.708439642336096
 31
0.0
  0
LINE
  5
CB
100
AcDbEntity
100
AcDbLine
  8
0
 62
1
420
16711680
370
0
 48
1.0
  6
Continuous
 10
-16.941971548588498
 20
133.53769884913027
 30
0.0
 11
-16.92931282274381
 21
68.221507467112247
 31
0.0
  0
CIRCLE
  5
CC
100
AcDbEntity
100
AcDbCircle
  8
0
 62
1
420
16711680
370
0
 48
1.0
  6
Continuous
 10
-162.86223655689659
 20
160.25563120126498
 30
0.0
 40
1.5
  0
ARC
  5
CD
100
AcDbEntity
  8
0
 62
1
420
16711680
370
0
 48
1.0
  6
Continuous
100
AcDbCircle
 10
-30.517371751048501
 20
56.829698849130246
 30
0.0
 40
1.0159999999999949
100
AcDbArc
 50
90.0
 51
244.99999999990004
  0
LINE
  5
CE
100
AcDbEntity
100
AcDbLine
  8
0
 62
1
420
16711680
370
0
 48
1.0
  6
Continuous
 10
-30.946751903208622
 20
55.908890137030234
 30
0.0
 11
-20.484878412468618
 21
51.030438408050237
 31
0.0
  0
ARC
  5
CF
100
AcDbEntity
  8
0
 62
1
420
16711680
370
0
 48
1.0
  6
Continuous
100
AcDbCircle
 10
-19.840808181688516
 20
52.411651477470095
 30
0.0
 40
1.523999999999982
100
AcDbArc
 50
244.99999999990004
 51
334.99999999990007
  0
LINE
  5
D0
100
AcDbEntity
100
AcDbLine
  8
0
 62
1
420
16711680
370
0
 48
1.0
  6
Continuous
 10
-18.459595114808621
 20
51.767581246690305
 30
0.0
 11
-11.482167614268519
 21
66.73072280879029
 31
0.0
  0
ARC
  5
D1
100
AcDbEntity
  8
0
 62
1
420
16711680
370
0
 48
1.0
  6
Continuous
100
AcDbCircle
 10
-10.561358902168507
 20
66.301342656630254
 30
0.0
 40
1.0160000000000129
100
AcDbArc
 50
64.999999999900012
 51
154.99999999990001
  0
LINE
  5
D2
100
AcDbEntity
100
AcDbLine
  8
0
 62
1
420
16711680
370
0
 48
1.0
  6
Continuous
 10
-10.131978747468594
 20
67.222151366190189
 30
0.0
 11
23.017134870351498
 21
51.764465824930461
 31
0.0
  0
ARC
  5
D3
100
AcDbEntity
  8
0
 62
1
420
16711680
370
0
 48
1.0
  6
Continuous
100
AcDbCircle
 10
22.587754715651499
 20
50.843657115370213
 30
0.0
 40
1.0159999999999949
100
AcDbArc
 50
334.99999999990007
 51
64.999999999900012
  0
LINE
  5
D4
100
AcDbEntity
100
AcDbLine
  8
0
 62
1
420
16711680
370
0
 48
1.0
  6
Continuous
 10
23.508563427279995
 20
50.414276961440017
 30
0.0
 11
0.0
 21
0.0
 31
0.0
  0
ARC
  5
D5
100
AcDbEntity
  8
0
 62
1
420
16711680
370
0
 48
1.0
  6
Continuous
100
AcDbCircle
 10
-0.9208087116284958
 20
0.4293801513903084
 30
0.0
 40
1.0159999999999541
100
AcDbArc
 50
244.99999999990004
 51
334.99999999990007
  0
LINE
  5
D6
100
AcDbEntity
100
AcDbLine
  8
0
 62
1
420
16711680
370
0
 48
1.0
  6
Continuous
 10
-1.3501888663284944
 20
-0.4914285581696625
 30
0.0
 11
-51.764465827768618
 21
23.01713486911035
 31
0.0
  0
ARC
  5
D7
100
AcDbEntity
  8
0
 62
1
420
16711680
370
0
 48
1.0
  6
Continuous
100
AcDbCircle
 10
-51.335085673068505
 20
23.937943581210341
 30
0.0
 40
1.0159999999999949
100
AcDbArc
 50
154.99999999990001
 51
244.99999999990004
  0
LINE
  5
D8
100
AcDbEntity
100
AcDbLine
  8
0
 62
1
420
16711680
370
0
 48
1.0
  6
Continuous
 10
-52.255894385168602
 20
24.367323733370547
 30
0.0
 11
-37.655659437868621
 21
55.677628618350191
 31
0.0
  0
ARC
  5
D9
100
AcDbEntity
  8
0
 62
1
420
16711680
370
0
 48
1.0
  6
Continuous
100
AcDbCircle
 10
-39.036872504748516
 20
56.321698849130321
 30
0.0
 40
1.5240000000000611
100
AcDbArc
 50
334.99999999990007
 51
90.0
  0
LINE
  5
DA
100
AcDbEntity
100
AcDbLine
  8
0
 62
1
420
16711680
370
0
 48
1.0
  6
Continuous
 10
-39.036872504748516
 20
57.845698849130265
 30
0.0
 11
-53.51797154858852
 21
57.845698849130237
 31
0.0
  0
ARC
  5
DB
100
AcDbEntity
  8
0
 62
1
420
16711680
370
0
 48
1.0
  6
Continuous
100
AcDbCircle
 10
-53.51797154858852
 20
56.321698849130321
 30
0.0
 40
1.5239999999999669
100
AcDbArc
 50
90.0
 51
180.0
  0
LINE
  5
DC
100
AcDbEntity
100
AcDbLine
  8
0
 62
1
420
16711680
370
0
 48
1.0
  6
Continuous
 10
-55.041971548588521
 20
56.321698849130208
 30
0.0
 11
-55.041971548588521
 21
41.081698849130035
 31
0.0
  0
ARC
  5
DD
100
AcDbEntity
  8
0
 62
1
420
16711680
370
0
 48
1.0
  6
Continuous
100
AcDbCircle
 10
-56.057971548588512
 20
41.081698849130376
 30
0.0
 40
1.0159999999999769
100
AcDbArc
 50
270.0
 51
0.0
  0
LINE
  5
DE
100
AcDbEntity
100
AcDbLine
  8
0
 62
1
420
16711680
370
0
 48
1.0
  6
Continuous
 10
-56.057971548588512
 20
40.06569884913052
 30
0.0
 11
-73.769328531188506
 21
40.065698849130428
 31
0.0
  0
ARC
  5
DF
100
AcDbEntity
  8
0
 62
1
420
16711680
370
0
 48
1.0
  6
Continuous
100
AcDbCircle
 10
-73.769328531188506
 20
41.081698849130348
 30
0.0
 40
1.0160000000000251
100
AcDbArc
 50
202.02431283700011
 51
270.0
  0
ARC
  5
E0
100
AcDbEntity
  8
0
 62
1
420
16711680
370
0
 48
1.0
  6
Continuous
100
AcDbCircle
 10
-76.123971548588514
 20
40.129198849130205
 30
0.0
 40
1.5239999999999669
100
AcDbArc
 50
22.024312836999989
 51
90.0
  0
LINE
  5
E1
100
AcDbEntity
100
AcDbLine
  8
0
 62
1
420
16711680
370
0
 48
1.0
  6
Continuous
 10
-76.123971548588514
 20
41.65319884913022
 30
0.0
 11
-91.617971548588514
 21
41.653198849130227
 31
0.0
  0
ARC
  5
E2
100
AcDbEntity
  8
0
 62
1
420
16711680
370
0
 48
1.0
  6
Continuous
100
AcDbCircle
 10
-91.617971548588514
 20
40.129198849130155
 30
0.0
 40
1.523999999999982
100
AcDbArc
 50
90.0
 51
157.975687163
  0
ARC
  5
E3
100
AcDbEntity
  8
0
 62
1
420
16711680
370
0
 48
1.0
  6
Continuous
100
AcDbCircle
 10
-93.972614568528513
 20
41.081698849130291
 30
0.0
 40
1.015999999999982
100
AcDbArc
 50
270.0
 51
337.97568716299992
  0
LINE
  5
E4
100
AcDbEntity
100
AcDbLine
  8
0
 62
1
420
16711680
370
0
 48
1.0
  6
Continuous
 10
-93.972614568528513
 20
40.065698849130371
 30
0.0
 11
-110.66797154858853
 21
40.065698849130321
 31
0.0
  0
ARC
  5
E5
100
AcDbEntity
  8
0
 62
1
420
16711680
370
0
 48
1.0
  6
Continuous
100
AcDbCircle
 10
-110.66797154858853
 20
38.541698849130221
 30
0.0
 40
1.524000000000058
100
AcDbArc
 50
90.0
 51
180.0
  0
LINE
  5
E6
100
AcDbEntity
100
AcDbLine
  8
0
 62
1
420
16711680
370
0
 48
1.0
  6
Continuous
 10
-112.19197154858853
 20
38.541698849130299
 30
0.0
 11
-112.19197154858853
 21
37.906698849130336
 31
0.0
  0
ARC
  5
E7
100
AcDbEntity
  8
0
 62
1
420
16711680
370
0
 48
1.0
  6
Continuous
100
AcDbCircle
 10
-113.20797154858849
 20
37.906698849130251
 30
0.0
 40
1.0160000000000231
100
AcDbArc
 50
270.0
 51
0.0
  0
LINE
  5
E8
100
AcDbEntity
100
AcDbLine
  8
0
 62
1
420
16711680
370
0
 48
1.0
  6
Continuous
 10
-113.20797154858849
 20
36.890698849130146
 30
0.0
 11
-149.78397154858851
 21
36.890698849130281
 31
0.0
  0
ARC
  5
E9
100
AcDbEntity
  8
0
 62
1
420
16711680
370
0
 48
1.0
  6
Continuous
100
AcDbCircle
 10
-149.78397154858851
 20
37.906698849130265
 30
0.0
 40
1.0160000000000691
100
AcDbArc
 50
180.0
 51
270.0
  0
LINE
  5
EA
100
AcDbEntity
100
AcDbLine
  8
0
 62
1
420
16711680
370
0
 48
1.0
  6
Continuous
 10
-150.79997154858859
 20
37.906698849130265
 30
0.0
 11
-150.79997154858859
 21
54.416698849130235
 31
0.0
  0
ARC
  5
EB
100
AcDbEntity
  8
0
 62
1
420
16711680
370
0
 48
1.0
  6
Continuous
100
AcDbCircle
 10
-152.32397154858853
 20
54.416698849130235
 30
0.0
 40
1.524000000000058
100
AcDbArc
 50
0.0
 51
90.0
  0
LINE
  5
EC
100
AcDbEntity
100
AcDbLine
  8
0
 62
1
420
16711680
370
0
 48
1.0
  6
Continuous
 10
-152.32397154858853
 20
55.940698849130293
 30
0.0
 11
-159.23611282274373
 21
55.940698849130293
 31
0.0
  0
LINE
  5
ED
100
AcDbEntity
100
AcDbLine
  8
0
 62
1
420
16711680
370
0
 48
1.0
  6
Continuous
 10
-159.23611282274373
 20
132.64869884913037
 30
0.0
 11
-114.22397154858851
 21
132.64869884913037
 31
0.0
  0
ARC
  5
EE
100
AcDbEntity
  8
0
 62
1
420
16711680
370
0
 48
1.0
  6
Continuous
100
AcDbCircle
 10
-114.22397154858851
 20
134.17269884913028
 30
0.0
 40
1.524000000000012
100
AcDbArc
 50
270.0
 51
0.0
  0
LINE
  5
EF
100
AcDbEntity
100
AcDbLine
  8
0
 62
1
420
16711680
370
0
 48
1.0
  6
Continuous
 10
-112.69997154858845
 20
134.17269884913017
 30
0.0
 11
-112.69997154858851
 21
134.80769884913028
 31
0.0
  0
ARC
  5
F0
100
AcDbEntity
  8
0
 62
1
420
16711680
370
0
 48
1.0
  6
Continuous
100
AcDbCircle
 10
-111.68397154858849
 20
134.80769884913036
 30
0.0
 40
1.0160000000000691
100
AcDbArc
 50
90.0
 51
180.0
  0
LINE
  5
F1
100
AcDbEntity
100
AcDbLine
  8
0
 62
1
420
16711680
370
0
 48
1.0
  6
Continuous
 10
-111.68397154858849
 20
135.82369884913027
 30
0.0
 11
-95.173971548588483
 21
135.82369884913027
 31
0.0
  0
ARC
  5
F2
100
AcDbEntity
  8
0
 62
1
420
16711680
370
0
 48
1.0
  6
Continuous
100
AcDbCircle
 10
-95.173971548588455
 20
137.34769884913018
 30
0.0
 40
1.5240000000000511
100
AcDbArc
 50
270.0
 51
337.97568716299992
  0
ARC
  5
F3
100
AcDbEntity
  8
0
 62
1
420
16711680
370
0
 48
1.0
  6
Continuous
100
AcDbCircle
 10
-92.819328531188461
 20
136.39519884913028
 30
0.0
 40
1.01599999999999
100
AcDbArc
 50
90.0
 51
157.975687163
  0
LINE
  5
F4
100
AcDbEntity
100
AcDbLine
  8
0
 62
1
420
16711680
370
0
 48
1.0
  6
Continuous
 10
-92.819328531188447
 20
137.41119884913016
 30
0.0
 11
-74.922614568528502
 21
137.41119884913016
 31
0.0
  0
ARC
  5
F5
100
AcDbEntity
  8
0
 62
1
420
16711680
370
0
 48
1.0
  6
Continuous
100
AcDbCircle
 10
-74.922614568528502
 20
136.39519884913028
 30
0.0
 40
1.01599999999999
100
AcDbArc
 50
22.024312836999989
 51
90.0
  0
ARC
  5
F6
100
AcDbEntity
  8
0
 62
1
420
16711680
370
0
 48
1.0
  6
Continuous
100
AcDbCircle
 10
-72.567971548588503
 20
137.34769884913018
 30
0.0
 40
1.524000000000008
100
AcDbArc
 50
202.02431283700011
 51
270.0
  0
LINE
  5
F7
100
AcDbEntity
100
AcDbLine
  8
0
 62
1
420
16711680
370
0
 48
1.0
  6
Continuous
 10
-72.567971548588503
 20
135.82369884913027
 30
0.0
 11
-55.71767607474851
 21
135.82369884913027
 31
0.0
  0
ARC
  5
F8
100
AcDbEntity
  8
0
 62
1
420
16711680
370
0
 48
1.0
  6
Continuous
100
AcDbCircle
 10
-55.71767607474851
 20
134.80769884913028
 30
0.0
 40
1.0160000000000691
100
AcDbArc
 50
29.999999999999993
 51
90.0
  0
ARC
  5
F9
100
AcDbEntity
  8
0
 62
1
420
16711680
370
0
 48
1.0
  6
Continuous
100
AcDbCircle
 10
-53.51797154858852
 20
136.07769884913017
 30
0.0
 40
1.524000000000058
100
AcDbArc
 50
210.0
 51
270.0
  0
LINE
  5
FA
100
AcDbEntity
100
AcDbLine
  8
0
 62
1
420
16711680
370
0
 48
1.0
  6
Continuous
 10
-53.51797154858852
 20
134.55369884913028
 30
0.0
 11
-17.957971548588517
 21
134.55369884913028
 31
0.0
  0
ARC
  5
FB
100
AcDbEntity
  8
0
 62
1
420
16711680
370
0
 48
1.0
  6
Continuous
100
AcDbCircle
 10
-17.957971548588517
 20
133.53769884913027
 30
0.0
 40
1.0160000000000691
100
AcDbArc
 50
0.0
 51
90.0
  0
LINE
  5
FC
100
AcDbEntity
100
AcDbLine
  8
0
 62
1
420
16711680
370
0
 48
1.0
  6
Continuous
 10
-16.941971548588498
 20
133.53769884913027
 30
0.0
 11
-16.941971548588498
 21
58.861698849130171
 31
0.0
  0
ARC
  5
FD
100
AcDbEntity
  8
0
 62
1
420
16711680
370
0
 48
1.0
  6
Continuous
100
AcDbCircle
 10
-17.957971548588517
 20
58.861698849130256
 30
0.0
 40
1.0160000000000691
100
AcDbArc
 50
270.0
 51
0.0
  0
LINE
  5
FE
100
AcDbEntity
100
AcDbLine
  8
0
 62
1
420
16711680
370
0
 48
1.0
  6
Continuous
 10
-17.957971548588517
 20
57.845698849130322
 30
0.0
 11
-30.517371751048501
 21
57.84569884913018
 31
0.0
  0
ENDBLK
  5
FF
100
AcDbEntity
  8
0
100
AcDbBlockEnd
  0
BLOCK
  5
100
100
AcDbEntity
  8
0
100
AcDbBlockBegin
  2
Layer 2
 70
0
 10
0.0
 20
0.0
 30
0.0
  3
Layer 2
  1

  0
CIRCLE
  5
101
100
AcDbEntity
100
AcDbCircle
  8
0
 62
1
420
16711680
370
0
 48
1.0
  6
Continuous
 10
74.816573734000002
 20
67.434123733999968
 30
0.0
 40
1.5
  0
CIRCLE
  5
102
100
AcDbEntity
100
AcDbCircle
  8
0
 62
1
420
16711680
370
0
 48
1.0
  6
Continuous
 10
116.558534729
 20
-40.101514877599982
 30
0.0
 40
1.5
  0
CIRCLE
  5
103
100
AcDbEntity
100
AcDbCircle
  8
0
 62
1
420
16711680
370
0
 48
1.0
  6
Continuous
 10
89.972096714999992
 20
-97.117594802699998
 30
0.0
 40
1.5
  0
CIRCLE
  5
104
100
AcDbEntity
100
AcDbCircle
  8
0
 62
1
420
16711680
370
0
 48
1.0
  6
Continuous
 10
6.6698800000000062
 20
-60.287000000000006
 30
0.0
 40
1.5
  0
CIRCLE
  5
105
100
AcDbEntity
100
AcDbCircle
  8
0
 62
1
420
16711680
370
0
 48
1.0
  6
Continuous
 10
-73.736124000000018
 20
-56.880623734200014
 30
0.0
 40
1.5
  0
CIRCLE
  5
106
100
AcDbEntity
100
AcDbCircle
  8
0
 62
1
420
16711680
370
-1
 48
1.0
  6
BYLAYER
 10
-73.736123734200021
 20
67.434123733999968
 30
0.0
 40
1.5
  0
LWPOLYLINE
  5
107
  8
0
 62
256
370
-1
 48
1.0
  6
BYLAYER
100
AcDbEntity
100
AcDbPolyline
 90
20
 70
0
 10
44.750699999999995
 20
68.584979999999973
 30
0.0
 10
52.094099999999997
 20
68.584979999999973
 30
0.0
 10
65.973800000000011
 20
73.697999999999979
 30
0.0
 10
74.086800000000011
 20
73.697999999999979
 30
0.0
 42
-0.414213562373
 10
81.086800000000011
 20
66.697999999999979
 30
0.0
 10
81.086800000000011
 20
-12.190697707099986
 30
0.0
 42
0.291482285854
 10
85.12867954699999
 20
-18.534948914599994
 30
0.0
 10
118.53891461500001
 20
-34.113067824799998
 30
0.0
 42
-0.414222177701
 10
121.924958355
 20
-43.415626097200004
 30
0.0
 10
95.960571949000013
 20
-99.096908303299998
 30
0.0
 42
-0.4141910192640001
 10
86.658588995000002
 20
-102.48299310661
 30
0.0
 10
7.0906107669999869
 20
-65.387608131799993
 30
0.0
 42
0.109497510859
 10
4.1327920059999883
 20
-64.731999999899983
 30
0.0
 10
-73.0
 20
-64.731999999999999
 30
0.0
 42
-0.414213562373
 10
-80.0
 20
-57.731999999999999
 30
0.0
 10
-80.0
 20
66.697999999999979
 30
0.0
 42
-0.414213562373
 10
-73.0
 20
73.697999999999979
 30
0.0
 10
30.871000000000009
 20
73.697999999999979
 30
0.0
 10
44.750699999999995
 20
68.584979999999973
 30
0.0
 10
45.307799999999986
 20
68.584979999999973
 30
0.0
  0
LWPOLYLINE
  5
108
  8
0
 62
256
370
-1
 48
1.0
  6
BYLAYER
100
AcDbEntity
100
AcDbPolyline
 90
53
 70
1
 10
36.870218437999995
 20
-68.454183733700006
 30
0.0
 10
51.470453385000013
 20
-37.143878848899988
 30
0.0
 42
0.5486187866269999
 10
50.089240318000009
 20
-34.975808618000002
 30
0.0
 10
35.608141273999991
 20
-34.975808618000002
 30
0.0
 42
0.414213562373
 10
34.08414127399999
 20
-36.499808618000003
 30
0.0
 10
34.08414127399999
 20
-51.739808618000012
 30
0.0
 42
-0.414213562373
 10
33.068141273999998
 20
-52.755808618000003
 30
0.0
 10
15.356784291999986
 20
-52.755808618000003
 30
0.0
 42
-0.305614684581
 10
14.414927086000006
 20
-52.120808618000012
 30
0.0
 42
0.305614684581
 10
13.002141273999996
 20
-51.168308618000026
 30
0.0
 10
-2.4918587258000002
 20
-51.168308618000026
 30
0.0
 42
0.305614684581
 10
-3.9046445379000261
 20
-52.120808618000012
 30
0.0
 42
-0.305614684581
 10
-4.8465017457999693
 20
-52.755808618000003
 30
0.0
 10
-21.541858725800012
 20
-52.755808618000003
 30
0.0
 42
0.414213562373
 10
-23.065858725800013
 20
-54.279808618000004
 30
0.0
 10
-23.065858725800013
 20
-54.914808617999995
 30
0.0
 42
-0.414213562373
 10
-24.081858725799975
 20
-55.930808618000015
 30
0.0
 10
-60.657858725799997
 20
-55.930808618000015
 30
0.0
 42
-0.414213562373
 10
-61.673858725800017
 20
-54.914808617999995
 30
0.0
 10
-61.673858725800017
 20
-38.404808618000004
 30
0.0
 42
0.414213562373
 10
-63.197858725799961
 20
-36.880808618000003
 30
0.0
 10
-70.110000000000014
 20
-36.880808618000003
 30
0.0
 42
-0.414213562373
 10
-71.110000000000014
 20
-35.880808618000003
 30
0.0
 10
-71.110000000000014
 20
38.827191381999995
 30
0.0
 42
-0.414213562373
 10
-70.110000000000014
 20
39.827191381999995
 30
0.0
 10
-25.097858725799995
 20
39.827191381999995
 30
0.0
 42
0.414213562373
 10
-23.573858725799994
 20
41.351191381999996
 30
0.0
 10
-23.573858725799994
 20
41.986191381999987
 30
0.0
 42
-0.414213562373
 10
-22.557858725799974
 20
43.002191382000007
 30
0.0
 10
-6.0478587257999834
 20
43.002191382000007
 30
0.0
 42
0.305614684581
 10
-4.6350729162999755
 20
43.954691381999993
 30
0.0
 42
-0.305614684581
 10
-3.6932157084000039
 20
44.589691382000012
 30
0.0
 10
14.20349825400001
 20
44.589691382000012
 30
0.0
 42
-0.305614684581
 10
15.145355461999998
 20
43.954691381999993
 30
0.0
 42
0.305614684581
 10
16.558141273999979
 20
43.002191382000007
 30
0.0
 10
33.408436748000014
 20
43.002191382000007
 30
0.0
 42
-0.267949192431
 10
34.288318559000004
 20
42.494191381999997
 30
0.0
 42
0.267949192431
 10
35.608141273999991
 20
41.732191381999996
 30
0.0
 10
71.168141273999993
 20
41.732191381999996
 30
0.0
 42
-0.414213562373
 10
72.184141274000012
 20
40.716191382000005
 30
0.0
 10
72.184141274000012
 20
-33.959808618000011
 30
0.0
 42
-0.414213562373
 10
71.168141273999993
 20
-34.975808618000002
 30
0.0
 10
58.608741071999987
 20
-34.975808618000002
 30
0.0
 42
0.802584851671
 10
58.179360919999993
 20
-36.912617330100005
 30
0.0
 10
68.64123441000001
 20
-41.791069057100003
 30
0.0
 42
0.414213562373
 10
70.666517707999986
 20
-41.053926220400001
 30
0.0
 10
77.643945209000009
 20
-26.090784656599993
 30
0.0
 42
-0.414213562373
 10
78.994134075000005
 20
-25.599356100899996
 30
0.0
 10
112.14324769199999
 20
-41.05704164010001
 30
0.0
 42
-0.414213562373
 10
112.63467625000001
 20
-42.407230505699999
 30
0.0
 10
89.126112823
 20
-92.821507469700009
 30
0.0
 42
-0.414213562373
 10
87.7759239559999
 20
-93.312936025300004
 30
0.0
 10
37.36164699599999
 20
-69.804372597499992
 30
0.0
 42
-0.414213562373
  0
LWPOLYLINE
  5
109
  8
0
 62
256
370
-1
 48
1.0
  6
BYLAYER
100
AcDbEntity
100
AcDbPolyline
 90
12
 70
1
 10
-61.692154911600028
 20
50.233266681000003
 30
0.0
 10
-61.692154911600028
 20
60.435326680999992
 30
0.0
 10
-59.192154911600028
 20
60.435326680999992
 30
0.0
 10
-59.192154911600028
 20
62.435326680999992
 30
0.0
 10
-47.192154911600028
 20
62.435326680999992
 30
0.0
 10
-47.192154911600028
 20
60.435326680999992
 30
0.0
 10
-25.000000430900002
 20
60.435326680999992
 30
0.0
 10
-25.000000430900002
 20
50.233266681000003
 30
0.0
 10
-47.192154911600028
 20
50.233266681000003
 30
0.0
 10
-47.192154911600028
 20
48.233266681000003
 30
0.0
 10
-59.192154911600028
 20
48.233266681000003
 30
0.0
 10
-59.192154911600028
 20
50.233266681000003
 30
0.0
  0
LWPOLYLINE
  5
10A
  8
0
 62
256
370
-1
 48
1.0
  6
BYLAYER
100
AcDbEntity
100
AcDbPolyline
 90
4
 70
1
 10
54.807799999999986
 20
67.08420000000001
 30
0.0
 10
54.807799999999986
 20
53.58420000000001
 30
0.0
 10
42.037000000000006
 20
53.58420000000001
 30
0.0
 10
42.037000000000006
 20
67.08420000000001
 30
0.0
  0
CIRCLE
  5
10B
100
AcDbEntity
100
AcDbCircle
  8
0
 62
1
420
16711680
370
0
 48
1.0
  6
Continuous
 10
21.333300000000008
 20
69.252999999999986
 30
0.0
 40
1.5
  0
ENDBLK
  5
10C
100
AcDbEntity
  8
0
100
AcDbBlockEnd
  0
BLOCK
  5
10D
100
AcDbEntity
  8
0
100
AcDbBlockBegin
  2
Layer 5
 70
0
 10
0.0
 20
0.0
 30
0.0
  3
Layer 5
  1

  0
CIRCLE
  5
10E
100
AcDbEntity
100
AcDbCircle
  8
0
 62
1
420
16711680
370
-1
 48
1.0
  6
BYLAYER
 10
16.669880000000006
 20
-50.287000000000944
 30
0.0
 40
1.5
  0
CIRCLE
  5
10F
100
AcDbEntity
100
AcDbCircle
  8
0
 62
1
420
16711680
370
-1
 48
1.0
  6
BYLAYER
 10
-63.73612399999999
 20
-46.880623734152181
 30
0.0
 40
1.5
  0
LINE
  5
110
100
AcDbEntity
100
AcDbLine
  8
0
 62
1
420
16711680
370
-1
 48
1.0
  6
BYLAYER
 10
91.086800000000011
 20
76.698000000000292
 30
0.0
 11
91.086800000000011
 21
-2.1906977071035953
 31
0.0
  0
LINE
  5
111
100
AcDbEntity
100
AcDbLine
  8
0
 62
1
420
16711680
370
-1
 48
1.0
  6
BYLAYER
 10
-70.0
 20
-47.731999999998351
 30
0.0
 11
-70.0
 21
76.698000000000093
 31
0.0
  0
LINE
  5
112
100
AcDbEntity
100
AcDbLine
  8
0
 62
1
420
16711680
370
-1
 48
1.0
  6
BYLAYER
 10
-63.0
 20
83.698000000000093
 30
0.0
 11
84.086799999999812
 21
83.698000000000292
 31
0.0
  0
LINE
  5
113
100
AcDbEntity
100
AcDbLine
  8
0
 62
1
420
16711680
370
-1
 48
1.0
  6
BYLAYER
 10
95.128679546663903
 20
-8.534948914579104
 30
0.0
 11
128.53891461493231
 21
-24.113067824775783
 31
0.0
  0
LINE
  5
114
100
AcDbEntity
100
AcDbLine
  8
0
 62
1
420
16711680
370
-1
 48
1.0
  6
BYLAYER
 10
131.9249583547552
 20
-33.415626097151346
 30
0.0
 11
105.96057194891841
 21
-89.096908303338154
 31
0.0
  0
LINE
  5
115
100
AcDbEntity
100
AcDbLine
  8
0
 62
1
420
16711680
370
-1
 48
1.0
  6
BYLAYER
 10
96.658588994725392
 20
-92.482993106606031
 30
0.0
 11
17.090610766645
 21
-55.38760813182455
 31
0.0
  0
CIRCLE
  5
116
100
AcDbEntity
100
AcDbCircle
  8
0
 62
1
420
16711680
370
-1
 48
1.0
  6
BYLAYER
 10
-63.736123734152898
 20
77.43412373415299
 30
0.0
 40
1.5
  0
CIRCLE
  5
117
100
AcDbEntity
100
AcDbCircle
  8
0
 62
1
420
16711680
370
-1
 48
1.0
  6
BYLAYER
 10
31.333300000000008
 20
79.253000000000213
 30
0.0
 40
1.5
  0
LINE
  5
118
100
AcDbEntity
100
AcDbLine
  8
0
 62
1
420
16711680
370
-1
 48
1.0
  6
BYLAYER
 10
14.132792005610384
 20
-54.731999999992482
 30
0.0
 11
-62.99999999999946
 21
-54.731999999998351
 31
0.0
  0
CIRCLE
  5
119
100
AcDbEntity
100
AcDbCircle
  8
0
 62
1
420
16711680
370
-1
 48
1.0
  6
BYLAYER
 10
84.816573734152911
 20
77.434123734153189
 30
0.0
 40
1.5
  0
ARC
  5
11A
100
AcDbEntity
  8
0
 62
1
420
16711680
370
-1
 48
1.0
  6
BYLAYER
100
AcDbCircle
 10
-63.0
 20
76.698000000000093
 30
0.0
 40
7.0
100
AcDbArc
 50
90.000000000000043
 51
180.0
  0
ARC
  5
11B
100
AcDbEntity
  8
0
 62
1
420
16711680
370
-1
 48
1.0
  6
BYLAYER
100
AcDbCircle
 10
84.086800000000011
 20
76.698000000000292
 30
0.0
 40
7.0
100
AcDbArc
 50
0.0
 51
90.000000000002103
  0
ARC
  5
11C
100
AcDbEntity
  8
0
 62
1
420
16711680
370
-1
 48
1.0
  6
BYLAYER
100
AcDbCircle
 10
-63.0
 20
-47.731999999998351
 30
0.0
 40
7.0
100
AcDbArc
 50
180.0
 51
270.00000000000438
  0
ARC
  5
11D
100
AcDbEntity
  8
0
 62
1
420
16711680
370
-1
 48
1.0
  6
BYLAYER
100
AcDbCircle
 10
99.616407755759411
 20
-86.138601238438127
 30
0.0
 40
7.0
100
AcDbArc
 50
245.00459747358514
 51
335.00018755483688
  0
ARC
  5
11E
100
AcDbEntity
  8
0
 62
1
420
16711680
370
-1
 48
1.0
  6
BYLAYER
100
AcDbCircle
 10
125.58079416159609
 20
-30.457319032251291
 30
0.0
 40
7.0
100
AcDbArc
 50
335.00018755483688
 51
65.001872880338141
  0
ARC
  5
11F
100
AcDbEntity
  8
0
 62
1
420
16711680
370
-1
 48
1.0
  6
BYLAYER
100
AcDbCircle
 10
98.086800000000011
 20
-2.1906977071035953
 30
0.0
 40
7.0
100
AcDbArc
 50
180.0
 51
245.00187288033811
  0
ARC
  5
120
100
AcDbEntity
  8
0
 62
1
420
16711680
370
-1
 48
1.0
  6
BYLAYER
100
AcDbCircle
 10
14.132792005611009
 20
-61.731999999992468
 30
0.0
 40
7.0
100
AcDbArc
 50
65.004597473585122
 51
90.000000000004434
  0
LINE
  5
121
100
AcDbEntity
100
AcDbLine
  8
0
 62
1
420
16711680
370
-1
 48
1.0
  6
BYLAYER
 10
106.0
 20
-84.0
 30
0.0
 11
106.0
 21
-84.0
 31
0.0
  0
CIRCLE
  5
122
100
AcDbEntity
100
AcDbCircle
  8
0
 62
1
420
16711680
370
-1
 48
1.0
  6
BYLAYER
 10
99.972096714906002
 20
-87.117594802729585
 30
0.0
 40
1.5
  0
LINE
  5
123
100
AcDbEntity
100
AcDbLine
  8
0
 62
1
420
16711680
370
-1
 48
1.0
  6
BYLAYER
 10
106.0
 20
-83.999999999999361
 30
0.0
 11
106.0
 21
-83.999999999999361
 31
0.0
  0
CIRCLE
  5
124
100
AcDbEntity
100
AcDbCircle
  8
0
 62
1
420
16711680
370
-1
 48
1.0
  6
BYLAYER
 10
64.807799999999986
 20
57.084200000000806
 30
0.0
 40
1.5
  0
CIRCLE
  5
125
100
AcDbEntity
100
AcDbCircle
  8
0
 62
1
420
16711680
370
-1
 48
1.0
  6
BYLAYER
 10
-45.192199999999957
 20
57.084200000000806
 30
0.0
 40
1.5
  0
CIRCLE
  5
126
100
AcDbEntity
100
AcDbCircle
  8
0
 62
1
420
16711680
370
-1
 48
1.0
  6
BYLAYER
 10
94.807799999999986
 20
-62.915799999999678
 30
0.0
 40
1.5
  0
CIRCLE
  5
127
100
AcDbEntity
100
AcDbCircle
  8
0
 62
1
420
16711680
370
-1
 48
1.0
  6
BYLAYER
 10
126.5585347288648
 20
-30.101514877556895
 30
0.0
 40
1.5
  0
ENDBLK
  5
128
100
AcDbEntity
  8
0
100
AcDbBlockEnd
  0
ENDSEC
  0
SECTION
  2
ENTITIES
  0
INSERT
  5
129
100
AcDbEntity
100
AcDbBlockReference
  8
0
 62
256
370
-1
 48
1.0
  6
BYLAYER
  2
Layer1
 10
180.0
 20
220.0
 30
0.0
  0
INSERT
  5
12A
100
AcDbEntity
100
AcDbBlockReference
  8
0
 62
256
370
-1
 48
1.0
  6
BYLAYER
  2
Layer 5
 10
140.0
 20
90.0
 30
0.0
 50
180.0
  0
ENDSEC
  0
SECTION
  2
OBJECTS
  0
DICTIONARY
  5
C
100
AcDbDictionary
280
0
281
1
  3
ACAD_GROUP
350
D
  3
ACAD_LAYOUT
350
1A
  3
ACAD_MLINESTYLE
350
17
  3
ACAD_PLOTSETTINGS
350
19
  3
ACAD_PLOTSTYLENAME
350
E
  3
AcDbVariableDictionary
350
12B
  3
QCAD_OBJECTS
350
12C
  0
DICTIONARY
  5
D
100
AcDbDictionary
280
0
281
1
  0
ACDBDICTIONARYWDFLT
  5
E
100
AcDbDictionary
281
1
  3
Normal
350
F
100
AcDbDictionaryWithDefault
340
F
  0
ACDBPLACEHOLDER
  5
F
  0
DICTIONARY
  5
17
100
AcDbDictionary
280
0
281
1
  3
Standard
350
18
  0
MLINESTYLE
  5
18
100
AcDbMlineStyle
  2
STANDARD
 70
0
  3

 62
256
 51
90.0
 52
90.0
 71
2
 49
0.5
 62
256
  6
BYLAYER
 49
-0.5
 62
256
  6
BYLAYER
  0
DICTIONARY
  5
19
100
AcDbDictionary
280
0
281
1
  0
DICTIONARY
  5
1A
100
AcDbDictionary
281
1
  3
Layout1
350
1E
  3
Layout2
350
26
  3
Model
350
22
  0
LAYOUT
  5
1E
100
AcDbPlotSettings
  1

  2
none_device
  4

  6

 40
0.0
 41
0.0
 42
0.0
 43
0.0
 44
0.0
 45
0.0
 46
0.0
 47
0.0
 48
0.0
 49
0.0
140
0.0
141
0.0
142
1.0
143
1.0
 70
688
 72
0
 73
0
 74
5
  7

 75
16
147
1.0
148
0.0
149
0.0
100
AcDbLayout
  1
Layout1
 70
1
 71
1
 10
0.0
 20
0.0
 11
420.0
 21
297.0
 12
0.0
 22
0.0
 32
0.0
 14
100000000000000000000.0
 24
100000000000000000000.0
 34
100000000000000000000.0
 15
-100000000000000000000.0
 25
-100000000000000000000.0
 35
-100000000000000000000.0
146
0.0
 13
0.0
 23
0.0
 33
0.0
 16
1.0
 26
0.0
 36
0.0
 17
0.0
 27
1.0
 37
0.0
 76
0
330
1B
  0
LAYOUT
  5
22
100
AcDbPlotSettings
  1

  2
none_device
  4

  6

 40
0.0
 41
0.0
 42
0.0
 43
0.0
 44
0.0
 45
0.0
 46
0.0
 47
0.0
 48
0.0
 49
0.0
140
0.0
141
0.0
142
1.0
143
1.0
 70
1712
 72
0
 73
0
 74
0
  7

 75
0
147
1.0
148
0.0
149
0.0
100
AcDbLayout
  1
Model
 70
1
 71
0
 10
0.0
 20
0.0
 11
12.0
 21
9.0
 12
0.0
 22
0.0
 32
0.0
 14
0.0
 24
0.0
 34
0.0
 15
0.0
 25
0.0
 35
0.0
146
0.0
 13
0.0
 23
0.0
 33
0.0
 16
1.0
 26
0.0
 36
0.0
 17
0.0
 27
1.0
 37
0.0
 76
0
330
1F
  0
LAYOUT
  5
26
100
AcDbPlotSettings
  1

  2
none_device
  4

  6

 40
0.0
 41
0.0
 42
0.0
 43
0.0
 44
0.0
 45
0.0
 46
0.0
 47
0.0
 48
0.0
 49
0.0
140
0.0
141
0.0
142
1.0
143
1.0
 70
688
 72
0
 73
0
 74
5
  7

 75
16
147
1.0
148
0.0
149
0.0
100
AcDbLayout
  1
Layout2
 70
1
 71
2
 10
0.0
 20
0.0
 11
12.0
 21
9.0
 12
0.0
 22
0.0
 32
0.0
 14
0.0
 24
0.0
 34
0.0
 15
0.0
 25
0.0
 35
0.0
146
0.0
 13
0.0
 23
0.0
 33
0.0
 16
1.0
 26
0.0
 36
0.0
 17
0.0
 27
1.0
 37
0.0
 76
0
330
23
  0
DICTIONARY
  5
12B
100
AcDbDictionary
281
1
  3
DIMASSOC
350
12E
  3
HIDETEXT
350
12D
  0
DICTIONARYVAR
  5
12D
100
DictionaryVariables
280
0
  1
2
  0
DICTIONARYVAR
  5
12E
100
DictionaryVariables
280
0
  1
1
  0
DICTIONARY
  5
12C
100
AcDbDictionary
281
1
  3
ColorSettings/BackgroundColor
350
12F
  3
ColorSettings/ColorMode
350
130
  3
Grid/DisplayGrid00
350
131
  3
Grid/DisplayGrid01
350
132
  3
Grid/DisplayGrid02
350
133
  3
Grid/DisplayGrid03
350
134
  3
Grid/GridSpacingX00
350
135
  3
Grid/GridSpacingX01
350
136
  3
Grid/GridSpacingX02
350
137
  3
Grid/GridSpacingX03
350
138
  3
Grid/GridSpacingY00
350
139
  3
Grid/GridSpacingY01
350
13A
  3
Grid/GridSpacingY02
350
13B
  3
Grid/GridSpacingY03
350
13C
  3
Grid/IsometricGrid00
350
13D
  3
Grid/IsometricGrid01
350
13E
  3
Grid/IsometricGrid02
350
13F
  3
Grid/IsometricGrid03
350
140
  3
Grid/IsometricProjection00
350
141
  3
Grid/IsometricProjection01
350
142
  3
Grid/IsometricProjection02
350
143
  3
Grid/IsometricProjection03
350
144
  3
Grid/MetaGridSpacingX00
350
145
  3
Grid/MetaGridSpacingX01
350
146
  3
Grid/MetaGridSpacingX02
350
147
  3
Grid/MetaGridSpacingX03
350
148
  3
Grid/MetaGridSpacingY00
350
149
  3
Grid/MetaGridSpacingY01
350
14A
  3
Grid/MetaGridSpacingY02
350
14B
  3
Grid/MetaGridSpacingY03
350
14C
  3
MultiPageSettings/Columns
350
14D
  3
MultiPageSettings/GlueMarginsBottom
350
14E
  3
MultiPageSettings/GlueMarginsLeft
350
14F
  3
MultiPageSettings/GlueMarginsRight
350
150
  3
MultiPageSettings/GlueMarginsTop
350
151
  3
MultiPageSettings/PrintCropMarks
350
152
  3
MultiPageSettings/Rows
350
153
  3
PageSettings/OffsetX
350
154
  3
PageSettings/OffsetY
350
155
  3
PageSettings/PageOrientation
350
156
  3
PageSettings/PaperHeight
350
157
  3
PageSettings/PaperSizeName
350
158
  3
PageSettings/PaperWidth
350
159
  3
PageSettings/Scale
350
15A
  3
PageSettings/ShowPaperBorders
350
15B
  3
QCADVersion
350
15C
  3
UnitSettings/Measurement
350
15D
  3
UnitSettings/PaperUnit
350
15E
  0
XRECORD
  5
12F
330
12C
100
AcDbXrecord
280
1
1000
White
  0
XRECORD
  5
130
330
12C
100
AcDbXrecord
280
1
1000
FullColor
  0
XRECORD
  5
131
330
12C
100
AcDbXrecord
280
1
290
1
  0
XRECORD
  5
132
330
12C
100
AcDbXrecord
280
1
290
1
  0
XRECORD
  5
133
330
12C
100
AcDbXrecord
280
1
290
1
  0
XRECORD
  5
134
330
12C
100
AcDbXrecord
280
1
290
1
  0
XRECORD
  5
135
330
12C
100
AcDbXrecord
280
1
1000
auto
  0
XRECORD
  5
136
330
12C
100
AcDbXrecord
280
1
1000
auto
  0
XRECORD
  5
137
330
12C
100
AcDbXrecord
280
1
1000
auto
  0
XRECORD
  5
138
330
12C
100
AcDbXrecord
280
1
1000
auto
  0
XRECORD
  5
139
330
12C
100
AcDbXrecord
280
1
1000
auto
  0
XRECORD
  5
13A
330
12C
100
AcDbXrecord
280
1
1000
auto
  0
XRECORD
  5
13B
330
12C
100
AcDbXrecord
280
1
1000
auto
  0
XRECORD
  5
13C
330
12C
100
AcDbXrecord
280
1
1000
auto
  0
XRECORD
  5
13D
330
12C
100
AcDbXrecord
280
1
290
0
  0
XRECORD
  5
13E
330
12C
100
AcDbXrecord
280
1
290
0
  0
XRECORD
  5
13F
330
12C
100
AcDbXrecord
280
1
290
0
  0
XRECORD
  5
140
330
12C
100
AcDbXrecord
280
1
290
0
  0
XRECORD
  5
141
330
12C
100
AcDbXrecord
280
1
 90
0
  0
XRECORD
  5
142
330
12C
100
AcDbXrecord
280
1
 90
0
  0
XRECORD
  5
143
330
12C
100
AcDbXrecord
280
1
 90
0
  0
XRECORD
  5
144
330
12C
100
AcDbXrecord
280
1
 90
0
  0
XRECORD
  5
145
330
12C
100
AcDbXrecord
280
1
1000
auto
  0
XRECORD
  5
146
330
12C
100
AcDbXrecord
280
1
1000
auto
  0
XRECORD
  5
147
330
12C
100
AcDbXrecord
280
1
1000
auto
  0
XRECORD
  5
148
330
12C
100
AcDbXrecord
280
1
1000
auto
  0
XRECORD
  5
149
330
12C
100
AcDbXrecord
280
1
1000
auto
  0
XRECORD
  5
14A
330
12C
100
AcDbXrecord
280
1
1000
auto
  0
XRECORD
  5
14B
330
12C
100
AcDbXrecord
280
1
1000
auto
  0
XRECORD
  5
14C
330
12C
100
AcDbXrecord
280
1
1000
auto
  0
XRECORD
  5
14D
330
12C
100
AcDbXrecord
280
1
 90
1
  0
XRECORD
  5
14E
330
12C
100
AcDbXrecord
280
1
 40
10.0
  0
XRECORD
  5
14F
330
12C
100
AcDbXrecord
280
1
 40
10.0
  0
XRECORD
  5
150
330
12C
100
AcDbXrecord
280
1
 40
10.0
  0
XRECORD
  5
151
330
12C
100
AcDbXrecord
280
1
 40
10.0
  0
XRECORD
  5
152
330
12C
100
AcDbXrecord
280
1
290
0
  0
XRECORD
  5
153
330
12C
100
AcDbXrecord
280
1
 90
1
  0
XRECORD
  5
154
330
12C
100
AcDbXrecord
280
1
 40
0.0
  0
XRECORD
  5
155
330
12C
100
AcDbXrecord
280
1
 40
0.0
  0
XRECORD
  5
156
330
12C
100
AcDbXrecord
280
1
1000
Portrait
  0
XRECORD
  5
157
330
12C
100
AcDbXrecord
280
1
1000
12
  0
XRECORD
  5
158
330
12C
100
AcDbXrecord
280
1
1000
Custom
  0
XRECORD
  5
159
330
12C
100
AcDbXrecord
280
1
1000
 12
  0
XRECORD
  5
15A
330
12C
100
AcDbXrecord
280
1
1000
1:1
  0
XRECORD
  5
15B
330
12C
100
AcDbXrecord
280
1
290
1
  0
XRECORD
  5
15C
330
12C
100
AcDbXrecord
280
1
1000
3.11.3
  0
XRECORD
  5
15D
330
12C
100
AcDbXrecord
280
1
 40
1.0
  0
XRECORD
  5
15E
330
12C
100
AcDbXrecord
280
1
 40
1.0
  0
ENDSEC
  0
EOF
