999
dxflib 3.7.5.0
  0
SECTION
  2
HEADER
  9
$ACADVER
  1
AC1015
  9
$HANDSEED
  5
FFFF
  9
$ANGBASE
 50
0.0
  9
$ATTMODE
 70
1
  9
$AUNITS
 70
0
  9
$AUPREC
 70
0
  9
$CELTSCALE
 40
1.0
  9
$CHAMFERA
 40
0.0
  9
$CHAMFERB
 40
0.0
  9
$CHAMFERC
 40
0.0
  9
$CHAMFERD
 40
0.0
  9
$CMLJUST
 70
0
  9
$CMLSCALE
 40
1.0
  9
$DIMADEC
 70
0
  9
$DIMALTD
 70
2
  9
$DIMALTF
 40
25.399999999999999
  9
$DIMALTRND
 40
0.0
  9
$DIMALTTD
 70
2
  9
$DIMALTTZ
 70
0
  9
$DIMALTU
 70
2
  9
$DIMALTZ
 70
0
  9
$DIMAPOST
  1

  9
$DIMASZ
 40
2.5
  9
$DIMATFIT
 70
3
  9
$DIMAUNIT
 70
0
  9
$DIMAZIN
 70
2
  9
$DIMCEN
 40
0.09
  9
$DIMDEC
 70
4
  9
$DIMDLE
 40
0.0
  9
$DIMDLI
 40
0.38
  9
$DIMDSEP
 70
46
  9
$DIMEXE
 40
1.25
  9
$DIMEXO
 40
0.625
  9
$DIMFRAC
 70
0
  9
$DIMGAP
 40
0.625
  9
$DIMJUST
 70
0
  9
$DIMLFAC
 40
1.0
  9
$DIMLUNIT
 70
2
  9
$DIMLWD
 70
-2
  9
$DIMLWE
 70
-2
  9
$DIMPOST
  1

  9
$DIMRND
 40
0.0
  9
$DIMSCALE
 40
1.0
  9
$DIMTAD
 70
0
  9
$DIMTDEC
 70
4
  9
$DIMTFAC
 40
1.0
  9
$DIMTM
 40
0.0
  9
$DIMTOLJ
 70
1
  9
$DIMTP
 40
0.0
  9
$DIMTSZ
 40
0.0
  9
$DIMTVP
 40
0.0
  9
$DIMTXT
 40
2.5
  9
$DIMTZIN
 70
0
  9
$DIMZIN
 70
8
  9
$DWGCODEPAGE
  3
ANSI_1252
  9
$ELEVATION
 40
0.0
  9
$EXTMAX
 10
-100000000000000000000.0
 20
-100000000000000000000.0
 30
-100000000000000000000.0
  9
$EXTMIN
 10
100000000000000000000.0
 20
100000000000000000000.0
 30
100000000000000000000.0
  9
$FILLETRAD
 40
0.5
  9
$INSBASE
 10
0.0
 20
0.0
 30
0.0
  9
$INSUNITS
 70
4
  9
$LIMMAX
 10
12.0
 20
9.0
  9
$LIMMIN
 10
0.0
 20
0.0
  9
$LTSCALE
 40
1.0
  9
$LUNITS
 70
2
  9
$LUPREC
 70
4
  9
$MAXACTVP
 70
2
  9
$MEASUREMENT
 70
1
  9
$PDMODE
 70
0
  9
$PDSIZE
 40
0.0
  9
$PELEVATION
 40
0.0
  9
$PEXTMAX
 10
-100000000000000000000.0
 20
-100000000000000000000.0
 30
-100000000000000000000.0
  9
$PEXTMIN
 10
100000000000000000000.0
 20
100000000000000000000.0
 30
100000000000000000000.0
  9
$PINSBASE
 10
0.0
 20
0.0
 30
0.0
  9
$PLIMMAX
 10
12.0
 20
9.0
  9
$PLIMMIN
 10
0.0
 20
0.0
  9
$PLINEWID
 40
0.0
  9
$PROXYGRAPHICS
 70
1
  9
$PUCSORG
 10
0.0
 20
0.0
 30
0.0
  9
$PUCSXDIR
 10
1.0
 20
0.0
 30
0.0
  9
$PUCSYDIR
 10
0.0
 20
1.0
 30
0.0
  9
$SHADEDGE
 70
3
  9
$SHADEDIF
 70
70
  9
$SKETCHINC
 40
0.1
  9
$SPLINESEGS
 70
8
  9
$SPLINETYPE
 70
6
  9
$SURFTAB1
 70
6
  9
$SURFTAB2
 70
6
  9
$SURFTYPE
 70
6
  9
$SURFU
 70
6
  9
$SURFV
 70
6
  9
$TEXTSIZE
 40
2.5
  9
$THICKNESS
 40
0.0
  9
$TRACEWID
 40
0.05
  9
$TREEDEPTH
 70
3020
  9
$UCSORG
 10
0.0
 20
0.0
 30
0.0
  9
$UCSXDIR
 10
1.0
 20
0.0
 30
0.0
  9
$UCSYDIR
 10
0.0
 20
1.0
 30
0.0
  9
$UNITMODE
 70
0
  9
$USERI1
 70
0
  9
$USERI2
 70
0
  9
$USERI3
 70
0
  9
$USERI4
 70
0
  9
$USERI5
 70
0
  9
$USERR1
 40
0.0
  9
$USERR2
 40
0.0
  9
$USERR3
 40
0.0
  9
$USERR4
 40
0.0
  9
$USERR5
 40
0.0
  0
ENDSEC
  0
SECTION
  2
TABLES
  0
TABLE
  2
VPORT
  5
8
100
AcDbSymbolTable
 70
1
  0
VPORT
  5
30
100
AcDbSymbolTableRecord
100
AcDbViewportTableRecord
  2
*Active
 70
0
 10
0.0
 20
0.0
 11
1.0
 21
1.0
 12
286.30555555555549
 22
148.5
 13
0.0
 23
0.0
 14
10.0
 24
10.0
 15
10.0
 25
10.0
 16
0.0
 26
0.0
 36
1.0
 17
0.0
 27
0.0
 37
0.0
 40
297.0
 41
1.92798353909465
 42
50.0
 43
0.0
 44
0.0
 50
0.0
 51
0.0
 71
0
 72
100
 73
1
 74
3
 75
1
 76
1
 77
0
 78
0
281
0
 65
1
110
0.0
120
0.0
130
0.0
111
1.0
121
0.0
131
0.0
112
0.0
122
1.0
132
0.0
 79
0
146
0.0
  0
ENDTAB
  0
TABLE
  2
LTYPE
  5
5
100
AcDbSymbolTable
 70
50
  0
LTYPE
  5
16
100
AcDbSymbolTableRecord
100
AcDbLinetypeTableRecord
  2
Continuous
 70
0
  3
Solid line
 72
65
 73
0
 40
0.0
  0
LTYPE
  5
31
100
AcDbSymbolTableRecord
100
AcDbLinetypeTableRecord
  2
ACAD_ISO15W100
 70
0
  3
ISO double-dash triple-dot __ __ . . . __ __ . .
 72
65
 73
10
 40
39.0
 49
12.0
 74
0
 49
-3.0
 74
0
 49
12.0
 74
0
 49
-3.0
 74
0
 49
0.0
 74
0
 49
-3.0
 74
0
 49
0.0
 74
0
 49
-3.0
 74
0
 49
0.0
 74
0
 49
-3.0
 74
0
  0
LTYPE
  5
32
100
AcDbSymbolTableRecord
100
AcDbLinetypeTableRecord
  2
HOT_WATER_SUPPLY
 70
0
  3
Hot water supply ---- HW ---- HW ---- HW ----
 72
65
 73
3
 40
22.859999999999999
 49
12.699999999999999
 74
0
 49
-5.0800000000000001
 74
0
 49
-5.0800000000000001
 74
0
  0
LTYPE
  5
33
100
AcDbSymbolTableRecord
100
AcDbLinetypeTableRecord
  2
DIVIDE
 70
0
  3
Divide ____ . . ____ . . ____ . . ____ . . ____
 72
65
 73
6
 40
31.75
 49
12.699999999999999
 74
0
 49
-6.3499999999999996
 74
0
 49
0.0
 74
0
 49
-6.3499999999999996
 74
0
 49
0.0
 74
0
 49
-6.3499999999999996
 74
0
  0
LTYPE
  5
34
100
AcDbSymbolTableRecord
100
AcDbLinetypeTableRecord
  2
ACAD_ISO10W100
 70
0
  3
ISO dash dot __ . __ . __ . __ . __ . __ . __ . 
 72
65
 73
4
 40
18.0
 49
12.0
 74
0
 49
-3.0
 74
0
 49
0.0
 74
0
 49
-3.0
 74
0
  0
LTYPE
  5
35
100
AcDbSymbolTableRecord
100
AcDbLinetypeTableRecord
  2
GAS_LINE
 70
0
  3
Gas line ----GAS----GAS----GAS----GAS----GAS----GAS--
 72
65
 73
3
 40
24.130000000000003
 49
12.699999999999999
 74
0
 49
-5.0800000000000001
 74
0
 49
-6.3499999999999996
 74
0
  0
LTYPE
  5
36
100
AcDbSymbolTableRecord
100
AcDbLinetypeTableRecord
  2
ACAD_ISO04W100
 70
0
  3
ISO long-dash dot ____ . ____ . ____ . ____ . _
 72
65
 73
4
 40
30.0
 49
24.0
 74
0
 49
-3.0
 74
0
 49
0.0
 74
0
 49
-3.0
 74
0
  0
LTYPE
  5
37
100
AcDbSymbolTableRecord
100
AcDbLinetypeTableRecord
  2
CENTER2
 70
0
  3
Center (.5x) ___ _ ___ _ ___ _ ___ _ ___ _ ___
 72
65
 73
4
 40
28.575000000000003
 49
19.050000000000001
 74
0
 49
-3.1749999999999998
 74
0
 49
3.1749999999999998
 74
0
 49
-3.1749999999999998
 74
0
  0
LTYPE
  5
38
100
AcDbSymbolTableRecord
100
AcDbLinetypeTableRecord
  2
ACAD_ISO11W100
 70
0
  3
ISO double-dash dot __ __ . __ __ . __ __ . __ _
 72
65
 73
6
 40
33.0
 49
12.0
 74
0
 49
-3.0
 74
0
 49
12.0
 74
0
 49
-3.0
 74
0
 49
0.0
 74
0
 49
-3.0
 74
0
  0
LTYPE
  5
39
100
AcDbSymbolTableRecord
100
AcDbLinetypeTableRecord
  2
HIDDEN2
 70
0
  3
Hidden (.5x) _ _ _ _ _ _ _ _ _ _ _ _ _ _ _ _ _ 
 72
65
 73
2
 40
4.7624999999999993
 49
3.1749999999999998
 74
0
 49
-1.5874999999999999
 74
0
  0
LTYPE
  5
3A
100
AcDbSymbolTableRecord
100
AcDbLinetypeTableRecord
  2
BORDERX2
 70
0
  3
Border (2x) ____  ____  .  ____  ____  .  ___
 72
65
 73
6
 40
88.899999999999991
 49
25.399999999999999
 74
0
 49
-12.699999999999999
 74
0
 49
25.399999999999999
 74
0
 49
-12.699999999999999
 74
0
 49
0.0
 74
0
 49
-12.699999999999999
 74
0
  0
LTYPE
  5
3B
100
AcDbSymbolTableRecord
100
AcDbLinetypeTableRecord
  2
ACAD_ISO05W100
 70
0
  3
ISO long-dash double-dot ____ .. ____ .. ____ . 
 72
65
 73
6
 40
33.0
 49
24.0
 74
0
 49
-3.0
 74
0
 49
0.0
 74
0
 49
-3.0
 74
0
 49
0.0
 74
0
 49
-3.0
 74
0
  0
LTYPE
  5
3C
100
AcDbSymbolTableRecord
100
AcDbLinetypeTableRecord
  2
DASHDOTX2
 70
0
  3
Dash dot (2x) ____  .  ____  .  ____  .  ___
 72
65
 73
4
 40
50.799999999999997
 49
25.399999999999999
 74
0
 49
-12.699999999999999
 74
0
 49
0.0
 74
0
 49
-12.699999999999999
 74
0
  0
LTYPE
  5
3D
100
AcDbSymbolTableRecord
100
AcDbLinetypeTableRecord
  2
HIDDENX2
 70
0
  3
Hidden (2x) ____ ____ ____ ____ ____ ____ ____ 
 72
65
 73
2
 40
19.049999999999997
 49
12.699999999999999
 74
0
 49
-6.3499999999999996
 74
0
  0
LTYPE
  5
3E
100
AcDbSymbolTableRecord
100
AcDbLinetypeTableRecord
  2
CENTERX2
 70
0
  3
Center (2x) ________  __  ________  __  _____
 72
65
 73
4
 40
101.60000000000001
 49
63.5
 74
0
 49
-12.699999999999999
 74
0
 49
12.699999999999999
 74
0
 49
-12.699999999999999
 74
0
  0
LTYPE
  5
3F
100
AcDbSymbolTableRecord
100
AcDbLinetypeTableRecord
  2
BORDER2
 70
0
  3
Border (.5x) __.__.__.__.__.__.__.__.__.__.__.
 72
65
 73
6
 40
22.224999999999998
 49
6.3499999999999996
 74
0
 49
-3.1749999999999998
 74
0
 49
6.3499999999999996
 74
0
 49
-3.1749999999999998
 74
0
 49
0.0
 74
0
 49
-3.1749999999999998
 74
0
  0
LTYPE
  5
40
100
AcDbSymbolTableRecord
100
AcDbLinetypeTableRecord
  2
DASHDOT2
 70
0
  3
Dash dot (.5x) _._._._._._._._._._._._._._._.
 72
65
 73
4
 40
12.699999999999999
 49
6.3499999999999996
 74
0
 49
-3.1749999999999998
 74
0
 49
0.0
 74
0
 49
-3.1749999999999998
 74
0
  0
LTYPE
  5
41
100
AcDbSymbolTableRecord
100
AcDbLinetypeTableRecord
  2
ACAD_ISO12W100
 70
0
  3
ISO dash double-dot __ . . __ . . __ . . __ . . 
 72
65
 73
6
 40
21.0
 49
12.0
 74
0
 49
-3.0
 74
0
 49
0.0
 74
0
 49
-3.0
 74
0
 49
0.0
 74
0
 49
-3.0
 74
0
  0
LTYPE
  5
42
100
AcDbSymbolTableRecord
100
AcDbLinetypeTableRecord
  2
ACAD_ISO07W100
 70
0
  3
ISO dot . . . . . . . . . . . . . . . . . . . . 
 72
65
 73
2
 40
3.0
 49
0.0
 74
0
 49
-3.0
 74
0
  0
LTYPE
  5
43
100
AcDbSymbolTableRecord
100
AcDbLinetypeTableRecord
  2
ACAD_ISO06W100
 70
0
  3
ISO long-dash triple-dot ____ ... ____ ... ____
 72
65
 73
8
 40
36.0
 49
24.0
 74
0
 49
-3.0
 74
0
 49
0.0
 74
0
 49
-3.0
 74
0
 49
0.0
 74
0
 49
-3.0
 74
0
 49
0.0
 74
0
 49
-3.0
 74
0
  0
LTYPE
  5
44
100
AcDbSymbolTableRecord
100
AcDbLinetypeTableRecord
  2
CENTER
 70
0
  3
Center ____ _ ____ _ ____ _ ____ _ ____ _ ____
 72
65
 73
4
 40
50.800000000000004
 49
31.75
 74
0
 49
-6.3499999999999996
 74
0
 49
6.3499999999999996
 74
0
 49
-6.3499999999999996
 74
0
  0
LTYPE
  5
45
100
AcDbSymbolTableRecord
100
AcDbLinetypeTableRecord
  2
HIDDEN
 70
0
  3
Hidden __ __ __ __ __ __ __ __ __ __ __ __ __ __
 72
65
 73
2
 40
9.5249999999999986
 49
6.3499999999999996
 74
0
 49
-3.1749999999999998
 74
0
  0
LTYPE
  5
46
100
AcDbSymbolTableRecord
100
AcDbLinetypeTableRecord
  2
DOTX2
 70
0
  3
Dot (2x) .  .  .  .  .  .  .  .  .  .  .  .  .  .
 72
65
 73
2
 40
12.699999999999999
 49
0.0
 74
0
 49
-12.699999999999999
 74
0
  0
LTYPE
  5
47
100
AcDbSymbolTableRecord
100
AcDbLinetypeTableRecord
  2
PHANTOM
 70
0
  3
Phantom ______  __  __  ______  __  __  ______ 
 72
65
 73
6
 40
63.500000000000007
 49
31.75
 74
0
 49
-6.3499999999999996
 74
0
 49
6.3499999999999996
 74
0
 49
-6.3499999999999996
 74
0
 49
6.3499999999999996
 74
0
 49
-6.3499999999999996
 74
0
  0
LTYPE
  5
48
100
AcDbSymbolTableRecord
100
AcDbLinetypeTableRecord
  2
ACAD_ISO08W100
 70
0
  3
ISO long-dash short-dash ____ __ ____ __ ____ _
 72
65
 73
4
 40
36.0
 49
24.0
 74
0
 49
-3.0
 74
0
 49
6.0
 74
0
 49
-3.0
 74
0
  0
LTYPE
  5
49
100
AcDbSymbolTableRecord
100
AcDbLinetypeTableRecord
  2
DASHEDX2
 70
0
  3
Dashed (2x) ____  ____  ____  ____  ____  ___
 72
65
 73
2
 40
38.099999999999994
 49
25.399999999999999
 74
0
 49
-12.699999999999999
 74
0
  0
LTYPE
  5
4A
100
AcDbSymbolTableRecord
100
AcDbLinetypeTableRecord
  2
DRAINAGE
 70
0
  3
Drainage ---->---->---->----
 72
65
 73
2
 40
10.16
 49
5.0800000000000001
 74
0
 49
5.0800000000000001
 74
0
  0
LTYPE
  5
4B
100
AcDbSymbolTableRecord
100
AcDbLinetypeTableRecord
  2
ACAD_ISO02W100
 70
0
  3
ISO dash __ __ __ __ __ __ __ __ __ __ __ __ __
 72
65
 73
2
 40
15.0
 49
12.0
 74
0
 49
-3.0
 74
0
  0
LTYPE
  5
4C
100
AcDbSymbolTableRecord
100
AcDbLinetypeTableRecord
  2
PHANTOM2
 70
0
  3
Phantom (.5x) ___ _ _ ___ _ _ ___ _ _ ___ _ _
 72
65
 73
6
 40
31.750000000000004
 49
15.875
 74
0
 49
-3.1749999999999998
 74
0
 49
3.1749999999999998
 74
0
 49
-3.1749999999999998
 74
0
 49
3.1749999999999998
 74
0
 49
-3.1749999999999998
 74
0
  0
LTYPE
  5
4D
100
AcDbSymbolTableRecord
100
AcDbLinetypeTableRecord
  2
DASHED2
 70
0
  3
Dashed (.5x) _ _ _ _ _ _ _ _ _ _ _ _ _ _ _ _ _ 
 72
65
 73
2
 40
9.5249999999999986
 49
6.3499999999999996
 74
0
 49
-3.1749999999999998
 74
0
  0
LTYPE
  5
4E
100
AcDbSymbolTableRecord
100
AcDbLinetypeTableRecord
  2
ACAD_ISO09W100
 70
0
  3
ISO long-dash double-short-dash ____ __ __ ____
 72
65
 73
6
 40
45.0
 49
24.0
 74
0
 49
-3.0
 74
0
 49
6.0
 74
0
 49
-3.0
 74
0
 49
6.0
 74
0
 49
-3.0
 74
0
  0
LTYPE
  5
4F
100
AcDbSymbolTableRecord
100
AcDbLinetypeTableRecord
  2
ACAD_ISO13W100
 70
0
  3
ISO double-dash double-dot __ __ . . __ __ . . _
 72
65
 73
8
 40
36.0
 49
12.0
 74
0
 49
-3.0
 74
0
 49
12.0
 74
0
 49
-3.0
 74
0
 49
0.0
 74
0
 49
-3.0
 74
0
 49
0.0
 74
0
 49
-3.0
 74
0
  0
LTYPE
  5
50
100
AcDbSymbolTableRecord
100
AcDbLinetypeTableRecord
  2
TRACKS
 70
0
  3
Tracks -|-|-|-|-|-|-|-|-|-|-|-|-|-|-|-|-|-|-|-|-|-|-|-|-
 72
65
 73
2
 40
7.6200000000000001
 49
3.8100000000000001
 74
0
 49
3.8100000000000001
 74
0
  0
LTYPE
  5
51
100
AcDbSymbolTableRecord
100
AcDbLinetypeTableRecord
  2
DRAINAGE2
 70
0
  3
Drainage reversed----<----<----<----
 72
65
 73
2
 40
10.16
 49
5.0800000000000001
 74
0
 49
5.0800000000000001
 74
0
  0
LTYPE
  5
52
100
AcDbSymbolTableRecord
100
AcDbLinetypeTableRecord
  2
DOT2
 70
0
  3
Dot (.5x) ........................................
 72
65
 73
2
 40
3.1749999999999998
 49
0.0
 74
0
 49
-3.1749999999999998
 74
0
  0
LTYPE
  5
53
100
AcDbSymbolTableRecord
100
AcDbLinetypeTableRecord
  2
ZIGZAG
 70
0
  3
Zig zag /\/\/\/\/\/\/\/\/\/\/\/\/\/\/\/\/\/\/\/\/\/\/\/
 72
65
 73
4
 40
20.32254
 49
0.00254
 74
0
 49
-5.0800000000000001
 74
0
 49
-10.16
 74
0
 49
-5.0800000000000001
 74
0
  0
LTYPE
  5
54
100
AcDbSymbolTableRecord
100
AcDbLinetypeTableRecord
  2
DASHED
 70
0
  3
Dashed __ __ __ __ __ __ __ __ __ __ __ __ __ _
 72
65
 73
2
 40
19.049999999999997
 49
12.699999999999999
 74
0
 49
-6.3499999999999996
 74
0
  0
LTYPE
  5
55
100
AcDbSymbolTableRecord
100
AcDbLinetypeTableRecord
  2
ACAD_ISO14W100
 70
0
  3
ISO dash triple-dot __ . . . __ . . . __ . . . _
 72
65
 73
8
 40
24.0
 49
12.0
 74
0
 49
-3.0
 74
0
 49
0.0
 74
0
 49
-3.0
 74
0
 49
0.0
 74
0
 49
-3.0
 74
0
 49
0.0
 74
0
 49
-3.0
 74
0
  0
LTYPE
  5
15
100
AcDbSymbolTableRecord
100
AcDbLinetypeTableRecord
  2
BYLAYER
 70
0
  3

 72
65
 73
0
 40
0.0
  0
LTYPE
  5
56
100
AcDbSymbolTableRecord
100
AcDbLinetypeTableRecord
  2
PHANTOMX2
 70
0
  3
Phantom (2x) ____________    ____    ____   _
 72
65
 73
6
 40
127.00000000000001
 49
63.5
 74
0
 49
-12.699999999999999
 74
0
 49
12.699999999999999
 74
0
 49
-12.699999999999999
 74
0
 49
12.699999999999999
 74
0
 49
-12.699999999999999
 74
0
  0
LTYPE
  5
14
100
AcDbSymbolTableRecord
100
AcDbLinetypeTableRecord
  2
BYBLOCK
 70
0
  3

 72
65
 73
0
 40
0.0
  0
LTYPE
  5
57
100
AcDbSymbolTableRecord
100
AcDbLinetypeTableRecord
  2
DIVIDEX2
 70
0
  3
Divide (2x) ________  .  .  ________  .  .  _
 72
65
 73
6
 40
63.5
 49
25.399999999999999
 74
0
 49
-12.699999999999999
 74
0
 49
0.0
 74
0
 49
-12.699999999999999
 74
0
 49
0.0
 74
0
 49
-12.699999999999999
 74
0
  0
LTYPE
  5
58
100
AcDbSymbolTableRecord
100
AcDbLinetypeTableRecord
  2
BORDER
 70
0
  3
Border __ __ . __ __ . __ __ . __ __ . __ __ .
 72
65
 73
6
 40
44.449999999999996
 49
12.699999999999999
 74
0
 49
-6.3499999999999996
 74
0
 49
12.699999999999999
 74
0
 49
-6.3499999999999996
 74
0
 49
0.0
 74
0
 49
-6.3499999999999996
 74
0
  0
LTYPE
  5
59
100
AcDbSymbolTableRecord
100
AcDbLinetypeTableRecord
  2
DIVIDE2
 70
0
  3
Divide (.5x) __..__..__..__..__..__..__..__.._
 72
65
 73
6
 40
15.875
 49
6.3499999999999996
 74
0
 49
-3.1749999999999998
 74
0
 49
0.0
 74
0
 49
-3.1749999999999998
 74
0
 49
0.0
 74
0
 49
-3.1749999999999998
 74
0
  0
LTYPE
  5
5A
100
AcDbSymbolTableRecord
100
AcDbLinetypeTableRecord
  2
DOT
 70
0
  3
Dot . . . . . . . . . . . . . . . . . . . . . . . .
 72
65
 73
2
 40
6.3499999999999996
 49
0.0
 74
0
 49
-6.3499999999999996
 74
0
  0
LTYPE
  5
5B
100
AcDbSymbolTableRecord
100
AcDbLinetypeTableRecord
  2
DASHDOT
 70
0
  3
Dash dot __ . __ . __ . __ . __ . __ . __ . __
 72
65
 73
4
 40
25.399999999999999
 49
12.699999999999999
 74
0
 49
-6.3499999999999996
 74
0
 49
0.0
 74
0
 49
-6.3499999999999996
 74
0
  0
LTYPE
  5
5C
100
AcDbSymbolTableRecord
100
AcDbLinetypeTableRecord
  2
FENCELINE1
 70
0
  3
Fenceline circle ----0-----0----0-----0----0-----0--
 72
65
 73
4
 40
36.829999999999998
 49
6.3499999999999996
 74
0
 49
-2.54
 74
0
 49
-2.54
 74
0
 49
25.399999999999999
 74
0
  0
LTYPE
  5
5D
100
AcDbSymbolTableRecord
100
AcDbLinetypeTableRecord
  2
BATTING
 70
0
  3
Batting SSSSSSSSSSSSSSSSSSSSSSSSSSSSSSSSSSSSSSSSSSSSSSS
 72
65
 73
4
 40
10.16254
 49
0.00254
 74
0
 49
-2.54
 74
0
 49
-5.0800000000000001
 74
0
 49
-2.54
 74
0
  0
LTYPE
  5
5E
100
AcDbSymbolTableRecord
100
AcDbLinetypeTableRecord
  2
ACAD_ISO03W100
 70
0
  3
ISO dash space __    __    __    __    __    __
 72
65
 73
2
 40
30.0
 49
12.0
 74
0
 49
-18.0
 74
0
  0
LTYPE
  5
5F
100
AcDbSymbolTableRecord
100
AcDbLinetypeTableRecord
  2
FENCELINE2
 70
0
  3
Fenceline square ----[]-----[]----[]-----[]----[]---
 72
65
 73
4
 40
36.829999999999998
 49
6.3499999999999996
 74
0
 49
-2.54
 74
0
 49
-2.54
 74
0
 49
25.399999999999999
 74
0
  0
ENDTAB
  0
TABLE
  2
LAYER
  5
2
100
AcDbSymbolTable
 70
1
  0
LAYER
  5
10
100
AcDbSymbolTableRecord
100
AcDbLayerTableRecord
  2
0
 70
0
 62
7
420
16777215
  6
Continuous
370
25
390
F
  0
ENDTAB
  0
TABLE
  2
STYLE
  5
3
100
AcDbSymbolTable
 70
1
  0
STYLE
  5
60
100
AcDbSymbolTableRecord
100
AcDbTextStyleTableRecord
  2
Standard
 70
0
 40
0.0
 41
1.0
 50
0.0
 71
0
 42
2.5
  3

  4

1001
ACAD
1000
txt
1071
0
  0
ENDTAB
  0
TABLE
  2
VIEW
  5
6
100
AcDbSymbolTable
 70
0
  0
ENDTAB
  0
TABLE
  2
UCS
  5
7
100
AcDbSymbolTable
 70
0
  0
ENDTAB
  0
TABLE
  2
APPID
  5
9
100
AcDbSymbolTable
 70
1
  0
APPID
  5
12
100
AcDbSymbolTableRecord
100
AcDbRegAppTableRecord
  2
ACAD
 70
0
  0
APPID
  5
61
100
AcDbSymbolTableRecord
100
AcDbRegAppTableRecord
  2
QCAD
 70
0
  0
ENDTAB
  0
TABLE
  2
DIMSTYLE
  5
A
100
AcDbSymbolTable
 70
1
100
AcDbDimStyleTable
 71
0
  0
DIMSTYLE
105
27
100
AcDbSymbolTableRecord
100
AcDbDimStyleTableRecord
  2
Standard
 41
2.5
 42
0.625
 43
3.75
 44
1.25
 70
0
 73
0
 74
0
 77
1
 78
8
140
2.5
141
2.5
143
0.03937007874016
147
0.625
171
3
172
1
271
2
272
2
274
3
278
44
283
0
284
8
340
60
  0
ENDTAB
  0
TABLE
  2
BLOCK_RECORD
  5
1
100
AcDbSymbolTable
 70
1
  0
BLOCK_RECORD
  5
1F
100
AcDbSymbolTableRecord
100
AcDbBlockTableRecord
  2
*Model_Space
340
22
  0
BLOCK_RECORD
  5
1B
100
AcDbSymbolTableRecord
100
AcDbBlockTableRecord
  2
*Paper_Space
340
1E
  0
BLOCK_RECORD
  5
23
100
AcDbSymbolTableRecord
100
AcDbBlockTableRecord
  2
*Paper_Space0
340
26
  0
BLOCK_RECORD
  5
62
100
AcDbSymbolTableRecord
100
AcDbBlockTableRecord
  2
Layer1
340
0
  0
BLOCK_RECORD
  5
63
100
AcDbSymbolTableRecord
100
AcDbBlockTableRecord
  2
Layer2
340
0
  0
BLOCK_RECORD
  5
64
100
AcDbSymbolTableRecord
100
AcDbBlockTableRecord
  2
Layer4
340
0
  0
BLOCK_RECORD
  5
65
100
AcDbSymbolTableRecord
100
AcDbBlockTableRecord
  2
Layer5
340
0
  0
BLOCK_RECORD
  5
66
100
AcDbSymbolTableRecord
100
AcDbBlockTableRecord
  2
Layer 1
340
0
  0
BLOCK_RECORD
  5
67
100
AcDbSymbolTableRecord
100
AcDbBlockTableRecord
  2
Layer 2
340
0
  0
BLOCK_RECORD
  5
68
100
AcDbSymbolTableRecord
100
AcDbBlockTableRecord
  2
Layer 5
340
0
  0
ENDTAB
  0
ENDSEC
  0
SECTION
  2
BLOCKS
  0
BLOCK
  5
20
100
AcDbEntity
  8
0
100
AcDbBlockBegin
  2
*Model_Space
 70
0
 10
0.0
 20
0.0
 30
0.0
  3
*Model_Space
  1

  0
ENDBLK
  5
21
100
AcDbEntity
  8
0
100
AcDbBlockEnd
  0
BLOCK
  5
1C
100
AcDbEntity
 67
1
  8
0
100
AcDbBlockBegin
  2
*Paper_Space
 70
0
 10
0.0
 20
0.0
 30
0.0
  3
*Paper_Space
  1

  0
ENDBLK
  5
1D
100
AcDbEntity
 67
1
  8
0
100
AcDbBlockEnd
  0
BLOCK
  5
24
100
AcDbEntity
  8
0
100
AcDbBlockBegin
  2
*Paper_Space0
 70
0
 10
0.0
 20
0.0
 30
0.0
  3
*Paper_Space0
  1

  0
ENDBLK
  5
25
100
AcDbEntity
  8
0
100
AcDbBlockEnd
  0
BLOCK
  5
69
100
AcDbEntity
  8
0
100
AcDbBlockBegin
  2
Layer1
 70
0
 10
0.0
 20
0.0
 30
0.0
  3
Layer1
  1

  0
LINE
  5
6A
100
AcDbEntity
100
AcDbLine
  8
0
 62
1
420
16711680
370
0
 48
1.0
  6
Continuous
 10
-88.404237896629041
 20
-103.97521389723696
 30
0.0
 11
-8.8362596685486494
 21
-66.87982892245401
 31
0.0
  0
CIRCLE
  5
6B
100
AcDbEntity
100
AcDbCircle
  8
0
 62
1
420
16711680
370
0
 48
1.0
  6
Continuous
 10
-23.078948901903644
 20
67.760779209370867
 30
0.0
 40
1.5
  0
LINE
  5
6C
100
AcDbEntity
100
AcDbLine
  8
0
 62
1
420
16711680
370
0
 48
1.0
  6
Continuous
 10
-5.8784409075140616
 20
-66.224220790621871
 30
0.0
 11
71.254351098095754
 21
-66.224220790627754
 31
0.0
  0
CIRCLE
  5
6D
100
AcDbEntity
100
AcDbCircle
  8
0
 62
1
420
16711680
370
0
 48
1.0
  6
Continuous
 10
-76.562222636056589
 20
65.941902943523814
 30
0.0
 40
1.5
  0
ARC
  5
6E
100
AcDbEntity
  8
0
 62
1
420
16711680
370
0
 48
1.0
  6
Continuous
100
AcDbCircle
 10
71.25435109809635
 20
65.205779209370689
 30
0.0
 40
7.0
100
AcDbArc
 50
0.0
 51
89.999999999999957
  0
ARC
  5
6F
100
AcDbEntity
  8
0
 62
1
420
16711680
370
0
 48
1.0
  6
Continuous
100
AcDbCircle
 10
-75.832448901903689
 20
65.205779209370917
 30
0.0
 40
7.0
100
AcDbArc
 50
89.999999999997897
 51
180.0
  0
ARC
  5
70
100
AcDbEntity
  8
0
 62
1
420
16711680
370
0
 48
1.0
  6
Continuous
100
AcDbCircle
 10
71.25435109809635
 20
-59.224220790627754
 30
0.0
 40
7.0
100
AcDbArc
 50
269.99999999999562
 51
0.0
  0
ARC
  5
71
100
AcDbEntity
  8
0
 62
1
420
16711680
370
0
 48
1.0
  6
Continuous
100
AcDbCircle
 10
-91.362056657663032
 20
-97.630822029067645
 30
0.0
 40
7.0
100
AcDbArc
 50
204.99981244516309
 51
294.99540252641492
  0
ARC
  5
72
100
AcDbEntity
  8
0
 62
1
420
16711680
370
0
 48
1.0
  6
Continuous
100
AcDbCircle
 10
-117.32644306349991
 20
-41.949539822880638
 30
0.0
 40
7.0
100
AcDbArc
 50
114.99812711966189
 51
204.99981244516309
  0
CIRCLE
  5
73
100
AcDbEntity
100
AcDbCircle
  8
0
 62
1
420
16711680
370
0
 48
1.0
  6
Continuous
 10
-118.30418363076851
 20
-41.593735668186298
 30
0.0
 40
1.5
  0
ARC
  5
74
100
AcDbEntity
  8
0
 62
1
420
16711680
370
0
 48
1.0
  6
Continuous
100
AcDbCircle
 10
-5.8784409075146584
 20
-73.224220790621899
 30
0.0
 40
7.0
100
AcDbArc
 50
89.99999999999558
 51
114.99540252641492
  0
CIRCLE
  5
75
100
AcDbEntity
100
AcDbCircle
  8
0
 62
1
420
16711680
370
0
 48
1.0
  6
Continuous
 10
-91.717745616809651
 20
-98.609815593359656
 30
0.0
 40
1.5
  0
CIRCLE
  5
76
100
AcDbEntity
100
AcDbCircle
  8
0
 62
1
420
16711680
370
0
 48
1.0
  6
Continuous
 10
-8.4155289019036559
 20
-61.779220790630376
 30
0.0
 40
1.5
  0
CIRCLE
  5
77
100
AcDbEntity
100
AcDbCircle
  8
0
 62
1
420
16711680
370
0
 48
1.0
  6
Continuous
 10
71.99047509809634
 20
-58.372844524781613
 30
0.0
 40
1.5
  0
LINE
  5
78
100
AcDbEntity
100
AcDbLine
  8
0
 62
1
420
16711680
370
0
 48
1.0
  6
Continuous
 10
-82.832448901903689
 20
65.205779209370917
 30
0.0
 11
-82.832448901903689
 21
-13.682918497732942
 31
0.0
  0
LINE
  5
79
100
AcDbEntity
100
AcDbLine
  8
0
 62
1
420
16711680
370
0
 48
1.0
  6
Continuous
 10
78.254351098096237
 20
-59.224220790627754
 30
0.0
 11
78.254351098096237
 21
65.205779209370689
 31
0.0
  0
LINE
  5
7A
100
AcDbEntity
100
AcDbLine
  8
0
 62
1
420
16711680
370
0
 48
1.0
  6
Continuous
 10
71.25435109809635
 20
72.205779209370803
 30
0.0
 11
-75.832448901903689
 21
72.205779209370803
 31
0.0
  0
LINE
  5
7B
100
AcDbEntity
100
AcDbLine
  8
0
 62
1
420
16711680
370
0
 48
1.0
  6
Continuous
 10
69.364351098096364
 20
-37.373029408610989
 30
0.0
 11
69.364351098096364
 21
37.334970591389038
 31
0.0
  0
LINE
  5
7C
100
AcDbEntity
100
AcDbLine
  8
0
 62
1
420
16711680
370
0
 48
1.0
  6
Continuous
 10
-86.874328448567525
 20
-20.027169705208337
 30
0.0
 11
-120.28456351683596
 21
-35.605288615405186
 31
0.0
  0
LINE
  5
7D
100
AcDbEntity
100
AcDbLine
  8
0
 62
1
420
16711680
370
0
 48
1.0
  6
Continuous
 10
-73.929790176058845
 20
39.223970591388991
 30
0.0
 11
-73.942448901903589
 21
-26.092220790629028
 31
0.0
  0
CIRCLE
  5
7E
100
AcDbEntity
100
AcDbCircle
  8
0
 62
1
420
16711680
370
0
 48
1.0
  6
Continuous
 10
71.990474832249248
 20
65.941902943523701
 30
0.0
 40
1.5
  0
ARC
  5
7F
100
AcDbEntity
  8
0
 62
1
420
16711680
370
0
 48
1.0
  6
Continuous
100
AcDbCircle
 10
-60.354389973598842
 20
-37.484029408610979
 30
0.0
 40
1.0159999999999949
100
AcDbArc
 50
295.00000000010004
 51
90.0
  0
LINE
  5
80
100
AcDbEntity
100
AcDbLine
  8
0
 62
1
420
16711680
370
0
 48
1.0
  6
Continuous
 10
-59.925009821438806
 20
-38.404838120710963
 30
0.0
 11
-70.38688331217881
 21
-43.283289849690959
 31
0.0
  0
ARC
  5
81
100
AcDbEntity
  8
0
 62
1
420
16711680
370
0
 48
1.0
  6
Continuous
100
AcDbCircle
 10
-71.030953542958827
 20
-41.902076780271045
 30
0.0
 40
1.523999999999982
100
AcDbArc
 50
205.00000000009996
 51
295.00000000010004
  0
LINE
  5
82
100
AcDbEntity
100
AcDbLine
  8
0
 62
1
420
16711680
370
0
 48
1.0
  6
Continuous
 10
-72.412166609838806
 20
-42.546147011051005
 30
0.0
 11
-79.389594110378852
 21
-27.583005448950956
 31
0.0
  0
ARC
  5
83
100
AcDbEntity
  8
0
 62
1
420
16711680
370
0
 48
1.0
  6
Continuous
100
AcDbCircle
 10
-80.310402822478835
 20
-28.012385601110964
 30
0.0
 40
1.0160000000000129
100
AcDbArc
 50
25.000000000099991
 51
115.00000000009999
  0
LINE
  5
84
100
AcDbEntity
100
AcDbLine
  8
0
 62
1
420
16711680
370
0
 48
1.0
  6
Continuous
 10
-80.739782977178805
 20
-27.091576891551028
 30
0.0
 11
-113.88889659499884
 21
-42.549262432810963
 31
0.0
  0
ARC
  5
85
100
AcDbEntity
  8
0
 62
1
420
16711680
370
0
 48
1.0
  6
Continuous
100
AcDbCircle
 10
-113.45951644029887
 20
-43.470071142371012
 30
0.0
 40
1.0159999999999949
100
AcDbArc
 50
115.00000000009999
 51
205.00000000009996
  0
LINE
  5
86
100
AcDbEntity
100
AcDbLine
  8
0
 62
1
420
16711680
370
0
 48
1.0
  6
Continuous
 10
-114.38032515192735
 20
-43.899451296301152
 30
0.0
 11
-90.871761724647328
 21
-94.31372825774119
 31
0.0
  0
ARC
  5
87
100
AcDbEntity
  8
0
 62
1
420
16711680
370
0
 48
1.0
  6
Continuous
100
AcDbCircle
 10
-89.950953013018847
 20
-93.884348106350984
 30
0.0
 40
1.0159999999999541
100
AcDbArc
 50
205.00000000009996
 51
295.00000000010004
  0
LINE
  5
88
100
AcDbEntity
100
AcDbLine
  8
0
 62
1
420
16711680
370
0
 48
1.0
  6
Continuous
 10
-89.521572858318819
 20
-94.805156815911005
 30
0.0
 11
-39.10729589687881
 21
-71.296593388630981
 31
0.0
  0
ARC
  5
89
100
AcDbEntity
  8
0
 62
1
420
16711680
370
0
 48
1.0
  6
Continuous
100
AcDbCircle
 10
-39.536676051578837
 20
-70.375784676530998
 30
0.0
 40
1.0159999999999949
100
AcDbArc
 50
295.00000000010004
 51
25.000000000099991
  0
LINE
  5
8A
100
AcDbEntity
100
AcDbLine
  8
0
 62
1
420
16711680
370
0
 48
1.0
  6
Continuous
 10
-38.615867339478797
 20
-69.94640452437099
 30
0.0
 11
-53.216102286778806
 21
-38.636099639391034
 31
0.0
  0
ARC
  5
8B
100
AcDbEntity
  8
0
 62
1
420
16711680
370
0
 48
1.0
  6
Continuous
100
AcDbCircle
 10
-51.834889219898827
 20
-37.992029408610961
 30
0.0
 40
1.5240000000000611
100
AcDbArc
 50
90.0
 51
205.00000000009996
  0
LINE
  5
8C
100
AcDbEntity
100
AcDbLine
  8
0
 62
1
420
16711680
370
0
 48
1.0
  6
Continuous
 10
-51.834889219898827
 20
-36.468029408610988
 30
0.0
 11
-37.353790176058823
 21
-36.468029408610988
 31
0.0
  0
ARC
  5
8D
100
AcDbEntity
  8
0
 62
1
420
16711680
370
0
 48
1.0
  6
Continuous
100
AcDbCircle
 10
-37.353790176058823
 20
-37.992029408610961
 30
0.0
 40
1.5239999999999669
100
AcDbArc
 50
0.0
 51
90.0
  0
LINE
  5
8E
100
AcDbEntity
100
AcDbLine
  8
0
 62
1
420
16711680
370
0
 48
1.0
  6
Continuous
 10
-35.82979017605885
 20
-37.992029408610961
 30
0.0
 11
-35.82979017605885
 21
-53.232029408610998
 31
0.0
  0
ARC
  5
8F
100
AcDbEntity
  8
0
 62
1
420
16711680
370
0
 48
1.0
  6
Continuous
100
AcDbCircle
 10
-34.813790176058845
 20
-53.232029408610998
 30
0.0
 40
1.0159999999999769
100
AcDbArc
 50
180.0
 51
270.0
  0
LINE
  5
90
100
AcDbEntity
100
AcDbLine
  8
0
 62
1
420
16711680
370
0
 48
1.0
  6
Continuous
 10
-34.813790176058845
 20
-54.248029408610961
 30
0.0
 11
-17.10243319345885
 21
-54.248029408610961
 31
0.0
  0
ARC
  5
91
100
AcDbEntity
  8
0
 62
1
420
16711680
370
0
 48
1.0
  6
Continuous
100
AcDbCircle
 10
-17.10243319345885
 20
-53.232029408610998
 30
0.0
 40
1.0160000000000251
100
AcDbArc
 50
270.0
 51
337.97568716299992
  0
ARC
  5
92
100
AcDbEntity
  8
0
 62
1
420
16711680
370
0
 48
1.0
  6
Continuous
100
AcDbCircle
 10
-14.747790176058842
 20
-54.184529408611041
 30
0.0
 40
1.5239999999999669
100
AcDbArc
 50
90.0
 51
157.975687163
  0
LINE
  5
93
100
AcDbEntity
100
AcDbLine
  8
0
 62
1
420
16711680
370
0
 48
1.0
  6
Continuous
 10
-14.747790176058842
 20
-52.660529408610955
 30
0.0
 11
0.7462098239411432
 21
-52.660529408610955
 31
0.0
  0
ARC
  5
94
100
AcDbEntity
  8
0
 62
1
420
16711680
370
0
 48
1.0
  6
Continuous
100
AcDbCircle
 10
0.7462098239411432
 20
-54.184529408611041
 30
0.0
 40
1.523999999999982
100
AcDbArc
 50
22.024312837
 51
90.0
  0
ARC
  5
95
100
AcDbEntity
  8
0
 62
1
420
16711680
370
0
 48
1.0
  6
Continuous
100
AcDbCircle
 10
3.1008528438811425
 20
-53.232029408610998
 30
0.0
 40
1.015999999999982
100
AcDbArc
 50
202.024312837
 51
270.0
  0
LINE
  5
96
100
AcDbEntity
100
AcDbLine
  8
0
 62
1
420
16711680
370
0
 48
1.0
  6
Continuous
 10
3.1008528438811425
 20
-54.248029408610961
 30
0.0
 11
19.796209823941155
 21
-54.248029408610961
 31
0.0
  0
ARC
  5
97
100
AcDbEntity
  8
0
 62
1
420
16711680
370
0
 48
1.0
  6
Continuous
100
AcDbCircle
 10
19.796209823941155
 20
-55.77202940861099
 30
0.0
 40
1.524000000000058
100
AcDbArc
 50
0.0
 51
90.0
  0
LINE
  5
98
100
AcDbEntity
100
AcDbLine
  8
0
 62
1
420
16711680
370
0
 48
1.0
  6
Continuous
 10
21.320209823941155
 20
-55.77202940861099
 30
0.0
 11
21.320209823941155
 21
-56.407029408610981
 31
0.0
  0
ARC
  5
99
100
AcDbEntity
  8
0
 62
1
420
16711680
370
0
 48
1.0
  6
Continuous
100
AcDbCircle
 10
22.336209823941147
 20
-56.407029408610981
 30
0.0
 40
1.0160000000000231
100
AcDbArc
 50
180.0
 51
270.0
  0
LINE
  5
9A
100
AcDbEntity
100
AcDbLine
  8
0
 62
1
420
16711680
370
0
 48
1.0
  6
Continuous
 10
22.336209823941147
 20
-57.423029408611001
 30
0.0
 11
58.91220982394114
 21
-57.423029408611001
 31
0.0
  0
ARC
  5
9B
100
AcDbEntity
  8
0
 62
1
420
16711680
370
0
 48
1.0
  6
Continuous
100
AcDbCircle
 10
58.91220982394114
 20
-56.407029408610981
 30
0.0
 40
1.0160000000000691
100
AcDbArc
 50
270.0
 51
0.0
  0
LINE
  5
9C
100
AcDbEntity
100
AcDbLine
  8
0
 62
1
420
16711680
370
0
 48
1.0
  6
Continuous
 10
59.928209823941245
 20
-56.407029408610981
 30
0.0
 11
59.928209823941245
 21
-39.897029408611047
 31
0.0
  0
ARC
  5
9D
100
AcDbEntity
  8
0
 62
1
420
16711680
370
0
 48
1.0
  6
Continuous
100
AcDbCircle
 10
61.45220982394116
 20
-39.897029408611047
 30
0.0
 40
1.524000000000058
100
AcDbArc
 50
90.0
 51
180.0
  0
LINE
  5
9E
100
AcDbEntity
100
AcDbLine
  8
0
 62
1
420
16711680
370
0
 48
1.0
  6
Continuous
 10
61.45220982394116
 20
-38.373029408610989
 30
0.0
 11
68.364351098096364
 21
-38.373029408610989
 31
0.0
  0
LINE
  5
9F
100
AcDbEntity
100
AcDbLine
  8
0
 62
1
420
16711680
370
0
 48
1.0
  6
Continuous
 10
68.364351098096364
 20
38.334970591389038
 30
0.0
 11
23.352209823941138
 21
38.334970591389038
 31
0.0
  0
ARC
  5
A0
100
AcDbEntity
  8
0
 62
1
420
16711680
370
0
 48
1.0
  6
Continuous
100
AcDbCircle
 10
23.352209823941138
 20
39.858970591388982
 30
0.0
 40
1.524000000000012
100
AcDbArc
 50
180.0
 51
270.0
  0
LINE
  5
A1
100
AcDbEntity
100
AcDbLine
  8
0
 62
1
420
16711680
370
0
 48
1.0
  6
Continuous
 10
21.828209823941137
 20
39.858970591388982
 30
0.0
 11
21.828209823941137
 21
40.493970591389086
 31
0.0
  0
ARC
  5
A2
100
AcDbEntity
  8
0
 62
1
420
16711680
370
0
 48
1.0
  6
Continuous
100
AcDbCircle
 10
20.812209823941146
 20
40.493970591389086
 30
0.0
 40
1.0160000000000691
100
AcDbArc
 50
0.0
 51
90.0
  0
LINE
  5
A3
100
AcDbEntity
100
AcDbLine
  8
0
 62
1
420
16711680
370
0
 48
1.0
  6
Continuous
 10
20.812209823941146
 20
41.509970591388992
 30
0.0
 11
4.3022098239411548
 21
41.509970591388992
 31
0.0
  0
ARC
  5
A4
100
AcDbEntity
  8
0
 62
1
420
16711680
370
0
 48
1.0
  6
Continuous
100
AcDbCircle
 10
4.3022098239411548
 20
43.033970591388993
 30
0.0
 40
1.5240000000000511
100
AcDbArc
 50
202.024312837
 51
270.0
  0
ARC
  5
A5
100
AcDbEntity
  8
0
 62
1
420
16711680
370
0
 48
1.0
  6
Continuous
100
AcDbCircle
 10
1.9475668065411469
 20
42.081470591389007
 30
0.0
 40
1.01599999999999
100
AcDbArc
 50
22.024312837
 51
90.0
  0
LINE
  5
A6
100
AcDbEntity
100
AcDbLine
  8
0
 62
1
420
16711680
370
0
 48
1.0
  6
Continuous
 10
1.9475668065411469
 20
43.097470591388969
 30
0.0
 11
-15.949147156118855
 21
43.097470591388969
 31
0.0
  0
ARC
  5
A7
100
AcDbEntity
  8
0
 62
1
420
16711680
370
0
 48
1.0
  6
Continuous
100
AcDbCircle
 10
-15.949147156118855
 20
42.081470591389007
 30
0.0
 40
1.01599999999999
100
AcDbArc
 50
90.0
 51
157.975687163
  0
ARC
  5
A8
100
AcDbEntity
  8
0
 62
1
420
16711680
370
0
 48
1.0
  6
Continuous
100
AcDbCircle
 10
-18.303790176058854
 20
43.033970591388993
 30
0.0
 40
1.524000000000008
100
AcDbArc
 50
270.0
 51
337.97568716299992
  0
LINE
  5
A9
100
AcDbEntity
100
AcDbLine
  8
0
 62
1
420
16711680
370
0
 48
1.0
  6
Continuous
 10
-18.303790176058854
 20
41.509970591388992
 30
0.0
 11
-35.154085649898846
 21
41.509970591388992
 31
0.0
  0
ARC
  5
AA
100
AcDbEntity
  8
0
 62
1
420
16711680
370
0
 48
1.0
  6
Continuous
100
AcDbCircle
 10
-35.154085649898846
 20
40.493970591389086
 30
0.0
 40
1.0160000000000691
100
AcDbArc
 50
90.0
 51
150.0
  0
ARC
  5
AB
100
AcDbEntity
  8
0
 62
1
420
16711680
370
0
 48
1.0
  6
Continuous
100
AcDbCircle
 10
-37.353790176058823
 20
41.763970591389011
 30
0.0
 40
1.524000000000058
100
AcDbArc
 50
270.0
 51
330.0
  0
LINE
  5
AC
100
AcDbEntity
100
AcDbLine
  8
0
 62
1
420
16711680
370
0
 48
1.0
  6
Continuous
 10
-37.353790176058823
 20
40.23997059138901
 30
0.0
 11
-72.913790176058825
 21
40.23997059138901
 31
0.0
  0
ARC
  5
AD
100
AcDbEntity
  8
0
 62
1
420
16711680
370
0
 48
1.0
  6
Continuous
100
AcDbCircle
 10
-72.913790176058825
 20
39.223970591388991
 30
0.0
 40
1.0160000000000691
100
AcDbArc
 50
90.0
 51
180.0
  0
LINE
  5
AE
100
AcDbEntity
100
AcDbLine
  8
0
 62
1
420
16711680
370
0
 48
1.0
  6
Continuous
 10
-73.929790176058845
 20
39.223970591388991
 30
0.0
 11
-73.929790176058845
 21
-35.452029408610997
 31
0.0
  0
ARC
  5
AF
100
AcDbEntity
  8
0
 62
1
420
16711680
370
0
 48
1.0
  6
Continuous
100
AcDbCircle
 10
-72.913790176058825
 20
-35.452029408610997
 30
0.0
 40
1.0160000000000691
100
AcDbArc
 50
180.0
 51
270.0
  0
LINE
  5
B0
100
AcDbEntity
100
AcDbLine
  8
0
 62
1
420
16711680
370
0
 48
1.0
  6
Continuous
 10
-72.913790176058825
 20
-36.468029408610988
 30
0.0
 11
-60.354389973598842
 21
-36.468029408610988
 31
0.0
  0
CIRCLE
  5
B1
100
AcDbEntity
100
AcDbCircle
  8
0
 62
1
420
16711680
370
0
 48
1.0
  6
Continuous
 10
-23.078903813528953
 20
67.760682516212569
 30
0.0
 40
1.5
  0
ARC
  5
B2
100
AcDbEntity
  8
0
 62
1
420
16711680
370
0
 48
1.0
  6
Continuous
100
AcDbCircle
 10
-89.832448901903717
 20
-13.682918497732828
 30
0.0
 40
7.0
100
AcDbArc
 50
294.99812711966172
 51
0.0
  0
ARC
  5
B3
100
AcDbEntity
  8
0
 62
1
420
16711680
370
0
 48
1.0
  6
Continuous
100
AcDbCircle
 10
68.364351098096364
 20
37.334970591389038
 30
0.0
 40
1.0
100
AcDbArc
 50
0.0
 51
90.0
  0
ARC
  5
B4
100
AcDbEntity
  8
0
 62
1
420
16711680
370
0
 48
1.0
  6
Continuous
100
AcDbCircle
 10
68.364351098096364
 20
-37.373029408610989
 30
0.0
 40
1.0
100
AcDbArc
 50
270.0
 51
0.0
  0
CIRCLE
  5
B5
100
AcDbEntity
100
AcDbCircle
  8
0
 62
1
420
16711680
370
-1
 48
1.0
  6
BYLAYER
 10
50.654351098096157
 20
54.205779209370803
 30
0.0
 40
1.5
  0
LINE
  5
B6
100
AcDbEntity
100
AcDbLine
  8
0
 62
1
420
16711680
370
0
 48
1.0
  6
Continuous
 10
-123.67060725665894
 20
-44.907846887780693
 30
0.0
 11
-97.706220850822177
 21
-100.58912909396736
 31
0.0
  0
ENDBLK
  5
B7
100
AcDbEntity
  8
0
100
AcDbBlockEnd
  0
BLOCK
  5
B8
100
AcDbEntity
  8
0
100
AcDbBlockBegin
  2
Layer2
 70
0
 10
0.0
 20
0.0
 30
0.0
  3
Layer2
  1

  0
CIRCLE
  5
B9
100
AcDbEntity
100
AcDbCircle
  8
0
 62
1
420
16711680
370
0
 48
1.0
  6
Continuous
 10
-80.008773734199991
 20
60.349923733999958
 30
0.0
 40
1.5
  0
CIRCLE
  5
BA
100
AcDbEntity
100
AcDbCircle
  8
0
 62
1
420
16711680
370
0
 48
1.0
  6
Continuous
 10
-121.7507347289
 20
-47.185714877599992
 30
0.0
 40
1.5
  0
CIRCLE
  5
BB
100
AcDbEntity
100
AcDbCircle
  8
0
 62
1
420
16711680
370
0
 48
1.0
  6
Continuous
 10
-95.16429671489999
 20
-104.20179480269999
 30
0.0
 40
1.5
  0
CIRCLE
  5
BC
100
AcDbEntity
100
AcDbCircle
  8
0
 62
1
420
16711680
370
0
 48
1.0
  6
Continuous
 10
-11.862034999999992
 20
-67.371296999999998
 30
0.0
 40
1.5
  0
CIRCLE
  5
BD
100
AcDbEntity
100
AcDbCircle
  8
0
 62
1
420
16711680
370
0
 48
1.0
  6
Continuous
 10
68.543924000000004
 20
-63.964823734199996
 30
0.0
 40
1.5
  0
CIRCLE
  5
BE
100
AcDbEntity
100
AcDbCircle
  8
0
 62
1
420
16711680
370
0
 48
1.0
  6
Continuous
 10
68.543923734000003
 20
60.349923733999958
 30
0.0
 40
1.5
  0
CIRCLE
  5
BF
100
AcDbEntity
100
AcDbCircle
  8
0
 62
1
420
16711680
370
0
 48
1.0
  6
Continuous
 10
-26.525454912000001
 20
62.168703306999987
 30
0.0
 40
1.5
  0
LWPOLYLINE
  5
C0
  8
0
 62
256
370
-1
 48
1.0
  6
BYLAYER
100
AcDbEntity
100
AcDbPolyline
 90
22
 70
1
 10
67.807799999999986
 20
66.613799999999969
 30
0.0
 10
12.298178940000014
 20
66.613799999999969
 30
0.0
 10
2.993194912000007
 20
61.500876693000009
 30
0.0
 10
-7.70808508799999
 20
61.500876693000009
 30
0.0
 10
-16.987799999999993
 20
66.613799999999969
 30
0.0
 10
-36.063199999999995
 20
66.613799999999969
 30
0.0
 10
-49.942899999999995
 20
61.500779999999963
 30
0.0
 10
-57.286299999999997
 20
61.500779999999963
 30
0.0
 10
-71.165999999999997
 20
66.613799999999969
 30
0.0
 10
-79.278999999999996
 20
66.613799999999969
 30
0.0
 42
0.414213562373
 10
-86.278999999999996
 20
59.613799999999969
 30
0.0
 10
-86.278999999999996
 20
-19.27489770699998
 30
0.0
 42
-0.291482285853
 10
-90.320879546699999
 20
-25.619148914600004
 30
0.0
 10
-123.731114615
 20
-41.197267824800008
 30
0.0
 42
0.414222177698
 10
-127.1171583548
 20
-50.499826097200014
 30
0.0
 10
-101.152771949
 20
-106.18110830329999
 30
0.0
 42
0.414191019263
 10
-91.850788994699997
 20
-109.5671931066
 30
0.0
 10
-12.282810767000001
 20
-72.471808131800003
 30
0.0
 42
-0.109497510857
 10
-9.3249920060000022
 20
-71.816200000000009
 30
0.0
 10
67.807799999999986
 20
-71.816200000000009
 30
0.0
 42
0.414213562373
 10
74.807799999999986
 20
-64.816200000000009
 30
0.0
 10
74.807799999999986
 20
59.613799999999969
 30
0.0
 42
0.414213562373
  0
LWPOLYLINE
  5
C1
  8
0
 62
256
370
-1
 48
1.0
  6
BYLAYER
100
AcDbEntity
100
AcDbPolyline
 90
53
 70
1
 10
-63.371560919499998
 20
-43.996817330099987
 30
0.0
 10
-73.833434410199999
 20
-48.875269056999997
 30
0.0
 42
-0.414213562373
 10
-75.858717707899999
 20
-48.138126220400011
 30
0.0
 10
-82.836145208999994
 20
-33.174984656600003
 30
0.0
 42
0.414213562373
 10
-84.18633407530001
 20
-32.683556100900006
 30
0.0
 10
-117.33544769229999
 20
-48.14124164010002
 30
0.0
 42
0.414213562373
 10
-117.82687625
 20
-49.491430505700009
 30
0.0
 10
-94.318312822699994
 20
-99.905707469600003
 30
0.0
 42
0.414213562373
 10
-92.968123956400007
 20
-100.3971360253
 30
0.0
 10
-42.553846995800001
 20
-76.888572597500001
 30
0.0
 42
0.414213562374
 10
-42.062418437600002
 20
-75.538383733700016
 30
0.0
 10
-56.662653385400006
 20
-44.228078848899997
 30
0.0
 42
-0.548618786627
 10
-55.281440317999994
 20
-42.060008617999983
 30
0.0
 10
-40.800341274199994
 20
-42.060008617999983
 30
0.0
 42
-0.414213562373
 10
-39.276341274000004
 20
-43.584008617999984
 30
0.0
 10
-39.276341274000004
 20
-58.824008617999993
 30
0.0
 42
0.414213562373
 10
-38.260341273999998
 20
-59.840008618000013
 30
0.0
 10
-20.548984292
 20
-59.840008618000013
 30
0.0
 42
0.305614684581
 10
-19.607127086000006
 20
-59.205008617999994
 30
0.0
 42
-0.305614684581
 10
-18.194341273999996
 20
-58.252508618000007
 30
0.0
 10
-2.7003412740000101
 20
-58.252508618000007
 30
0.0
 42
-0.305614684581
 10
-1.2875554620000003
 20
-59.205008617999994
 30
0.0
 42
0.305614684581
 10
-0.3456982540000126
 20
-59.840008618000013
 30
0.0
 10
16.349658726000001
 20
-59.840008618000013
 30
0.0
 42
-0.414213562373
 10
17.873658726000002
 20
-61.364008618000014
 30
0.0
 10
17.873658726000002
 20
-61.999008618000005
 30
0.0
 42
0.414213562373
 10
18.889658725999993
 20
-63.015008617999996
 30
0.0
 10
55.465658725999987
 20
-63.015008617999996
 30
0.0
 42
0.414213562373
 10
56.481658726000006
 20
-61.999008618000005
 30
0.0
 10
56.481658726000006
 20
-45.489008618000014
 30
0.0
 42
-0.414213562373
 10
58.005658726000007
 20
-43.965008618000013
 30
0.0
 10
64.9178
 20
-43.965008618000013
 30
0.0
 42
0.414213562373
 10
65.9178
 20
-42.965008618000013
 30
0.0
 10
65.9178
 20
31.742991382000014
 30
0.0
 42
0.414213562373
 10
64.9178
 20
32.742991382000014
 30
0.0
 10
19.905658726000013
 20
32.742991382000014
 30
0.0
 42
-0.414213562373
 10
18.381658726000012
 20
34.266991382000015
 30
0.0
 10
18.381658726000012
 20
34.901991382000006
 30
0.0
 42
0.414213562373
 10
17.365658725999992
 20
35.917991381999968
 30
0.0
 10
0.8556587260000015
 20
35.917991381999968
 30
0.0
 42
-0.305614684581
 10
-0.5571270840000011
 20
36.870491382000012
 30
0.0
 42
0.305614684581
 10
-1.4989842919999887
 20
37.505491382000002
 30
0.0
 10
-19.395698253999996
 20
37.505491382000002
 30
0.0
 42
0.305614684581
 10
-20.337555461999997
 20
36.870491382000012
 30
0.0
 42
-0.305614684581
 10
-21.750341273999993
 20
35.917991381999968
 30
0.0
 10
-38.600636747999999
 20
35.917991381999968
 30
0.0
 42
0.267949192431
 10
-39.480518559000004
 20
35.409991381999987
 30
0.0
 42
-0.267949192431
 10
-40.800341274199994
 20
34.647991381999987
 30
0.0
 10
-76.36034127420001
 20
34.647991381999987
 30
0.0
 42
0.414213562373
 10
-77.376341274200001
 20
33.631991382000024
 30
0.0
 10
-77.376341274200001
 20
-41.044008618000021
 30
0.0
 42
0.414213562373
 10
-76.36034127420001
 20
-42.060008617999983
 30
0.0
 10
-63.800941071699995
 20
-42.060008617999983
 30
0.0
 42
-0.802584851672
  0
LWPOLYLINE
  5
C2
  8
0
 62
256
370
-1
 48
1.0
  6
BYLAYER
100
AcDbEntity
100
AcDbPolyline
 90
8
 70
1
 10
52.0
 20
57.5
 30
0.0
 10
52.0
 20
38.0
 30
0.0
 10
19.219120000000004
 20
38.0
 30
0.0
 10
19.219120000000004
 20
40.0
 30
0.0
 10
-21.0
 20
40.0
 30
0.0
 10
-21.0
 20
52.84699999999998
 30
0.0
 10
-9.0
 20
52.84699999999998
 30
0.0
 10
-9.0
 20
57.5
 30
0.0
  0
LWPOLYLINE
  5
C3
  8
0
 62
256
370
-1
 48
1.0
  6
BYLAYER
100
AcDbEntity
100
AcDbPolyline
 90
4
 70
1
 10
-60.0
 20
60.0
 30
0.0
 10
-60.0
 20
46.5
 30
0.0
 10
-47.229200000000006
 20
46.5
 30
0.0
 10
-47.229200000000006
 20
60.0
 30
0.0
  0
CIRCLE
  5
C4
100
AcDbEntity
100
AcDbCircle
  8
0
 62
1
420
16711680
370
0
 48
1.0
  6
Continuous
 10
-26.525499999999994
 20
62.168800000000033
 30
0.0
 40
1.5
  0
ENDBLK
  5
C5
100
AcDbEntity
  8
0
100
AcDbBlockEnd
  0
BLOCK
  5
C6
100
AcDbEntity
  8
0
100
AcDbBlockBegin
  2
Layer4
 70
0
 10
0.0
 20
0.0
 30
0.0
  3
Layer4
  1

  0
CIRCLE
  5
C7
100
AcDbEntity
100
AcDbCircle
  8
0
 62
1
420
16711680
370
-1
 48
1.0
  6
BYLAYER
 10
-73.394192182223946
 20
64.144944231803805
 30
0.0
 40
1.5
  0
CIRCLE
  5
C8
100
AcDbEntity
100
AcDbCircle
  8
0
 62
1
420
16711680
370
-1
 48
1.0
  6
BYLAYER
 10
-115.13615317692393
 20
-43.390694379796187
 30
0.0
 40
1.5
  0
CIRCLE
  5
C9
100
AcDbEntity
100
AcDbCircle
  8
0
 62
1
420
16711680
370
-1
 48
1.0
  6
BYLAYER
 10
-88.549715162923917
 20
-100.40677430489617
 30
0.0
 40
1.5
  0
CIRCLE
  5
CA
100
AcDbEntity
100
AcDbCircle
  8
0
 62
1
420
16711680
370
-1
 48
1.0
  6
BYLAYER
 10
-5.2474984480239186
 20
-63.576179502196183
 30
0.0
 40
1.5
  0
CIRCLE
  5
CB
100
AcDbEntity
100
AcDbCircle
  8
0
 62
1
420
16711680
370
-1
 48
1.0
  6
BYLAYER
 10
75.158505551976077
 20
-60.169803236396177
 30
0.0
 40
1.5
  0
CIRCLE
  5
CC
100
AcDbEntity
100
AcDbCircle
  8
0
 62
1
420
16711680
370
-1
 48
1.0
  6
BYLAYER
 10
75.158505285976105
 20
64.144944231803805
 30
0.0
 40
1.5
  0
LWPOLYLINE
  5
CD
  8
0
 62
256
370
-1
 48
1.0
  6
BYLAYER
100
AcDbEntity
100
AcDbPolyline
 90
21
 70
1
 10
-110.30443844802392
 20
-47.538619502196198
 30
0.0
 10
-88.620458448023953
 20
-94.040939502196181
 30
0.0
 10
-84.401518448023921
 20
-95.575099502196181
 30
0.0
 10
-6.2330184480239268
 20
-59.131179502196176
 30
0.0
 10
63.007381551976039
 20
-59.131179502196176
 30
0.0
 10
72.532381551976073
 20
-49.606179502196184
 30
0.0
 10
72.532381551976073
 20
58.343820497803819
 30
0.0
 10
69.357381551976061
 20
61.51882049780383
 30
0.0
 10
10.022981551976102
 20
61.51882049780383
 30
0.0
 10
10.022981551976102
 20
63.296820497803822
 30
0.0
 10
-1.4832184480239334
 20
63.296820497803822
 30
0.0
 10
-1.4832184480239334
 20
61.51882049780383
 30
0.0
 10
-38.338618448023908
 20
61.51882049780383
 30
0.0
 10
-38.338618448023908
 20
63.296820497803822
 30
0.0
 10
-55.509018448023937
 20
63.296820497803822
 30
0.0
 10
-55.509018448023937
 20
61.51882049780383
 30
0.0
 10
-67.574018448023935
 20
61.51882049780383
 30
0.0
 10
-70.774418448023937
 20
58.343820497803819
 30
0.0
 10
-70.774418448023937
 20
-27.889179502196185
 30
0.0
 10
-75.67661844802393
 20
-27.889179502196185
 30
0.0
 10
-108.76773844802392
 20
-43.31967950219618
 30
0.0
  0
LWPOLYLINE
  5
CE
  8
0
 62
256
370
-1
 48
1.0
  6
BYLAYER
100
AcDbEntity
100
AcDbPolyline
 90
22
 70
1
 10
81.422381551976059
 20
63.408820497803816
 30
0.0
 42
0.414213562373
 10
74.422381551976059
 20
70.408820497803816
 30
0.0
 10
18.912760491976087
 20
70.408820497803816
 30
0.0
 10
9.6077764639761085
 20
65.295897190803828
 30
0.0
 10
-1.0935035360238885
 20
65.295897190803828
 30
0.0
 10
-10.373263536023899
 20
70.408917190803805
 30
0.0
 10
-29.448618448023922
 20
70.408820497803816
 30
0.0
 10
-43.328318448023936
 20
65.29580049780381
 30
0.0
 10
-50.67171844802391
 20
65.29580049780381
 30
0.0
 10
-64.551418448023924
 20
70.408820497803816
 30
0.0
 10
-72.664418448023923
 20
70.408820497803816
 30
0.0
 42
0.414213562373
 10
-79.664418448023923
 20
63.408820497803816
 30
0.0
 10
-79.664418448023923
 20
-15.479877209196175
 30
0.0
 42
-0.291482285854
 10
-83.706297994723911
 20
-21.824128416796171
 30
0.0
 10
-117.11653306292393
 20
-37.402247326996175
 30
0.0
 42
0.414222177701
 10
-120.50257680282394
 20
-46.704805599396181
 30
0.0
 10
-94.538190396923937
 20
-102.38608780549617
 30
0.0
 42
0.4141910192640001
 10
-85.236207442723924
 20
-105.77217260879618
 30
0.0
 10
-5.6682292150239277
 20
-68.676787633996184
 30
0.0
 42
-0.109497510859
 10
-2.7104104540239291
 20
-68.02117950219619
 30
0.0
 10
74.422381551976059
 20
-68.02117950219619
 30
0.0
 42
0.414213562373
 10
81.422381551976059
 20
-61.02117950219619
 30
0.0
  0
CIRCLE
  5
CF
100
AcDbEntity
100
AcDbCircle
  8
0
 62
1
420
16711680
370
-1
 48
1.0
  6
BYLAYER
 10
-19.910918448023892
 20
65.963820497803823
 30
0.0
 40
1.5
  0
ENDBLK
  5
D0
100
AcDbEntity
  8
0
100
AcDbBlockEnd
  0
BLOCK
  5
D1
100
AcDbEntity
  8
0
100
AcDbBlockBegin
  2
Layer5
 70
0
 10
0.0
 20
0.0
 30
0.0
  3
Layer5
  1

  0
LINE
  5
D2
100
AcDbEntity
100
AcDbLine
  8
0
 62
1
420
16711680
370
-1
 48
1.0
  6
BYLAYER
 10
-86.827254002046374
 20
-107.57845782110077
 30
0.0
 11
-7.2592754713757017
 21
-70.483072705248617
 31
0.0
  0
CIRCLE
  5
D3
100
AcDbEntity
100
AcDbCircle
  8
0
 62
1
420
16711680
370
-1
 48
1.0
  6
BYLAYER
 10
73.567458726831887
 20
62.338659019658479
 30
0.0
 40
1.5
  0
CIRCLE
  5
D4
100
AcDbEntity
100
AcDbCircle
  8
0
 62
1
420
16711680
370
-1
 48
1.0
  6
BYLAYER
 10
-21.501965007321019
 20
64.157535285505674
 30
0.0
 40
1.5
  0
LINE
  5
D5
100
AcDbEntity
100
AcDbLine
  8
0
 62
1
420
16711680
370
-1
 48
1.0
  6
BYLAYER
 10
-4.3014570129313938
 20
-69.827464714487064
 30
0.0
 11
72.831334992678364
 21
-69.827464714492947
 31
0.0
  0
CIRCLE
  5
D6
100
AcDbEntity
100
AcDbCircle
  8
0
 62
1
420
16711680
370
-1
 48
1.0
  6
BYLAYER
 10
-74.98523874147395
 20
62.338659019658593
 30
0.0
 40
1.5
  0
ARC
  5
D7
100
AcDbEntity
  8
0
 62
1
420
16711680
370
-1
 48
1.0
  6
BYLAYER
100
AcDbCircle
 10
72.83133499267899
 20
61.602535285505496
 30
0.0
 40
7.0
100
AcDbArc
 50
0.0
 51
89.999999999999957
  0
ARC
  5
D8
100
AcDbEntity
  8
0
 62
1
420
16711680
370
-1
 48
1.0
  6
BYLAYER
100
AcDbCircle
 10
-74.25546500732105
 20
61.602535285505695
 30
0.0
 40
7.0
100
AcDbArc
 50
89.999999999997897
 51
180.0
  0
ARC
  5
D9
100
AcDbEntity
  8
0
 62
1
420
16711680
370
-1
 48
1.0
  6
BYLAYER
100
AcDbCircle
 10
72.83133499267899
 20
-62.827464714492947
 30
0.0
 40
7.0
100
AcDbArc
 50
269.99999999999562
 51
0.0
  0
ARC
  5
DA
100
AcDbEntity
  8
0
 62
1
420
16711680
370
-1
 48
1.0
  6
BYLAYER
100
AcDbCircle
 10
-89.785072763080393
 20
-101.23406595293284
 30
0.0
 40
7.0
100
AcDbArc
 50
204.99981244516309
 51
294.99540252641492
  0
ARC
  5
DB
100
AcDbEntity
  8
0
 62
1
420
16711680
370
-1
 48
1.0
  6
BYLAYER
100
AcDbCircle
 10
-115.74945916891727
 20
-45.552783746745845
 30
0.0
 40
7.0
100
AcDbArc
 50
114.99812711966189
 51
204.99981244516309
  0
CIRCLE
  5
DC
100
AcDbEntity
100
AcDbCircle
  8
0
 62
1
420
16711680
370
-1
 48
1.0
  6
BYLAYER
 10
-116.72719973618587
 20
-45.196979592051491
 30
0.0
 40
1.5
  0
ARC
  5
DD
100
AcDbEntity
  8
0
 62
1
420
16711680
370
-1
 48
1.0
  6
BYLAYER
100
AcDbCircle
 10
-88.25546500732105
 20
-17.28616242159822
 30
0.0
 40
7.0
100
AcDbArc
 50
294.99812711966172
 51
0.0
  0
ARC
  5
DE
100
AcDbEntity
  8
0
 62
1
420
16711680
370
-1
 48
1.0
  6
BYLAYER
100
AcDbCircle
 10
-4.3014570129320191
 20
-76.827464714487093
 30
0.0
 40
7.0
100
AcDbArc
 50
89.99999999999558
 51
114.99540252641492
  0
CIRCLE
  5
DF
100
AcDbEntity
100
AcDbCircle
  8
0
 62
1
420
16711680
370
-1
 48
1.0
  6
BYLAYER
 10
-90.140761722227012
 20
-102.21305951722485
 30
0.0
 40
1.5
  0
CIRCLE
  5
E0
100
AcDbEntity
100
AcDbCircle
  8
0
 62
1
420
16711680
370
-1
 48
1.0
  6
BYLAYER
 10
-6.8385450073209881
 20
-65.382464714495569
 30
0.0
 40
1.5
  0
CIRCLE
  5
E1
100
AcDbEntity
100
AcDbCircle
  8
0
 62
1
420
16711680
370
-1
 48
1.0
  6
BYLAYER
 10
73.567458992678951
 20
-61.976088448646806
 30
0.0
 40
1.5
  0
LINE
  5
E2
100
AcDbEntity
100
AcDbLine
  8
0
 62
1
420
16711680
370
-1
 48
1.0
  6
BYLAYER
 10
-96.16866500732101
 20
-99.095464714495563
 30
0.0
 11
-96.16866500732101
 21
-99.095464714495563
 31
0.0
  0
LINE
  5
E3
100
AcDbEntity
100
AcDbLine
  8
0
 62
1
420
16711680
370
-1
 48
1.0
  6
BYLAYER
 10
-81.25546500732105
 20
61.602535285505695
 30
0.0
 11
-81.25546500732105
 21
-17.286162421598121
 31
0.0
  0
LINE
  5
E4
100
AcDbEntity
100
AcDbLine
  8
0
 62
1
420
16711680
370
-1
 48
1.0
  6
BYLAYER
 10
79.831334992678876
 20
-62.827464714492947
 30
0.0
 11
79.831334992678876
 21
61.602535285505496
 31
0.0
  0
LINE
  5
E5
100
AcDbEntity
100
AcDbLine
  8
0
 62
1
420
16711680
370
-1
 48
1.0
  6
BYLAYER
 10
72.83133499267899
 20
68.602535285505581
 30
0.0
 11
-74.255465007320794
 21
68.602535285505695
 31
0.0
  0
LINE
  5
E6
100
AcDbEntity
100
AcDbLine
  8
0
 62
1
420
16711680
370
-1
 48
1.0
  6
BYLAYER
 10
-85.297344553984885
 20
-23.63041362907353
 30
0.0
 11
-118.70757962225332
 21
-39.208532539270379
 31
0.0
  0
CIRCLE
  5
E7
100
AcDbEntity
100
AcDbCircle
  8
0
 62
1
420
16711680
370
-1
 48
1.0
  6
BYLAYER
 10
-54.97646500732111
 20
41.988735285505186
 30
0.0
 40
1.5
  0
CIRCLE
  5
E8
100
AcDbEntity
100
AcDbCircle
  8
0
 62
1
420
16711680
370
-1
 48
1.0
  6
BYLAYER
 10
55.02353499267889
 20
41.988735285505186
 30
0.0
 40
1.5
  0
CIRCLE
  5
E9
100
AcDbEntity
100
AcDbCircle
  8
0
 62
1
420
16711680
370
-1
 48
1.0
  6
BYLAYER
 10
-84.97646500732111
 20
-78.011264714494814
 30
0.0
 40
1.5
  0
LINE
  5
EA
100
AcDbEntity
100
AcDbLine
  8
0
 62
1
420
16711680
370
-1
 48
1.0
  6
BYLAYER
 10
-122.0936233620763
 20
-48.511090811645886
 30
0.0
 11
-96.129236956239396
 21
-104.19237301783288
 31
0.0
  0
ENDBLK
  5
EB
100
AcDbEntity
  8
0
100
AcDbBlockEnd
  0
BLOCK
  5
EC
100
AcDbEntity
  8
0
100
AcDbBlockBegin
  2
Layer 1
 70
0
 10
0.0
 20
0.0
 30
0.0
  3
Layer 1
  1

  0
ARC
  5
ED
100
AcDbEntity
  8
0
 62
1
420
16711680
370
0
 48
1.0
  6
Continuous
100
AcDbCircle
 10
-1.0393128227435966
 20
80.630809760008276
 30
0.0
 40
7.0
100
AcDbArc
 50
180.0
 51
245.00187288033831
  0
ARC
  5
EE
100
AcDbEntity
  8
0
 62
1
420
16711680
370
0
 48
1.0
  6
Continuous
100
AcDbCircle
 10
-159.23611282274373
 20
131.64869884913037
 30
0.0
 40
1.0
100
AcDbArc
 50
90.0
 51
180.0
  0
ARC
  5
EF
100
AcDbEntity
  8
0
 62
1
420
16711680
370
0
 48
1.0
  6
Continuous
100
AcDbCircle
 10
-159.23611282274373
 20
56.940698849130293
 30
0.0
 40
1.0
100
AcDbArc
 50
180.0
 51
270.0
  0
LINE
  5
F0
100
AcDbEntity
100
AcDbLine
  8
0
 62
1
420
16711680
370
0
 48
1.0
  6
Continuous
 10
32.798845532011597
 20
49.405881369960561
 30
0.0
 11
6.8344591261748064
 21
-6.2754008362261011
 31
0.0
  0
LINE
  5
F1
100
AcDbEntity
100
AcDbLine
  8
0
 62
1
420
16711680
370
0
 48
1.0
  6
Continuous
 10
-2.4675238280183009
 20
-9.6614856394955666
 30
0.0
 11
-82.035502056098707
 21
27.433899335287506
 31
0.0
  0
CIRCLE
  5
F2
100
AcDbEntity
100
AcDbCircle
  8
0
 62
1
420
16711680
370
0
 48
1.0
  6
Continuous
 10
-67.792812822743713
 20
162.07450746711217
 30
0.0
 40
1.5
  0
LINE
  5
F3
100
AcDbEntity
100
AcDbLine
  8
0
 62
1
420
16711680
370
0
 48
1.0
  6
Continuous
 10
-84.993320817133309
 20
28.089507467201656
 30
0.0
 11
-162.12611282274315
 21
28.089507467116725
 31
0.0
  0
CIRCLE
  5
F4
100
AcDbEntity
100
AcDbCircle
  8
0
 62
1
420
16711680
370
0
 48
1.0
  6
Continuous
 10
-14.30953908859081
 20
160.25563120126506
 30
0.0
 40
1.5
  0
ARC
  5
F5
100
AcDbEntity
  8
0
 62
1
420
16711680
370
0
 48
1.0
  6
Continuous
100
AcDbCircle
 10
-162.12611282274369
 20
159.51950746711196
 30
0.0
 40
7.0
100
AcDbArc
 50
90.000000000000043
 51
180.0
  0
ARC
  5
F6
100
AcDbEntity
  8
0
 62
1
420
16711680
370
0
 48
1.0
  6
Continuous
100
AcDbCircle
 10
-15.039312822743597
 20
159.51950746711216
 30
0.0
 40
7.0
100
AcDbArc
 50
0.0
 51
90.000000000002103
  0
ARC
  5
F7
100
AcDbEntity
  8
0
 62
1
420
16711680
370
0
 48
1.0
  6
Continuous
100
AcDbCircle
 10
-162.12611282274372
 20
35.089507467113506
 30
0.0
 40
7.0
100
AcDbArc
 50
180.0
 51
270.00000000000438
  0
ARC
  5
F8
100
AcDbEntity
  8
0
 62
1
420
16711680
370
0
 48
1.0
  6
Continuous
100
AcDbCircle
 10
0.4902949330156901
 20
-3.317093771326471
 30
0.0
 40
7.0
100
AcDbArc
 50
245.00459747358514
 51
335.00018755483688
  0
ARC
  5
F9
100
AcDbEntity
  8
0
 62
1
420
16711680
370
0
 48
1.0
  6
Continuous
100
AcDbCircle
 10
26.454681338852481
 20
52.36418843486053
 30
0.0
 40
7.0
100
AcDbArc
 50
335.00018755483688
 51
65.001872880338098
  0
CIRCLE
  5
FA
100
AcDbEntity
100
AcDbCircle
  8
0
 62
1
420
16711680
370
0
 48
1.0
  6
Continuous
 10
27.432421906121078
 20
52.719992589554955
 30
0.0
 40
1.5
  0
ARC
  5
FB
100
AcDbEntity
  8
0
 62
1
420
16711680
370
0
 48
1.0
  6
Continuous
100
AcDbCircle
 10
-84.993320817132712
 20
21.089507467119532
 30
0.0
 40
7.0
100
AcDbArc
 50
65.004597473585093
 51
90.00000000000442
  0
CIRCLE
  5
FC
100
AcDbEntity
100
AcDbCircle
  8
0
 62
1
420
16711680
370
0
 48
1.0
  6
Continuous
 10
0.8459838921622804
 20
-4.2960873356182923
 30
0.0
 40
1.5
  0
CIRCLE
  5
FD
100
AcDbEntity
100
AcDbCircle
  8
0
 62
1
420
16711680
370
0
 48
1.0
  6
Continuous
 10
-82.456232822743701
 20
32.534507467110977
 30
0.0
 40
1.5
  0
CIRCLE
  5
FE
100
AcDbEntity
100
AcDbCircle
  8
0
 62
1
420
16711680
370
0
 48
1.0
  6
Continuous
 10
-162.86223682274374
 20
35.940883732959641
 30
0.0
 40
1.5
  0
LINE
  5
FF
100
AcDbEntity
100
AcDbLine
  8
0
 62
1
420
16711680
370
0
 48
1.0
  6
Continuous
 10
-8.0393128227435966
 20
159.51950746711208
 30
0.0
 11
-8.0393128227437103
 21
80.630809760008361
 31
0.0
  0
LINE
  5
100
100
AcDbEntity
100
AcDbLine
  8
0
 62
1
420
16711680
370
0
 48
1.0
  6
Continuous
 10
-169.12611282274361
 20
35.089507467113521
 30
0.0
 11
-169.12611282274358
 21
159.51950746711196
 31
0.0
  0
LINE
  5
101
100
AcDbEntity
100
AcDbLine
  8
0
 62
1
420
16711680
370
0
 48
1.0
  6
Continuous
 10
-162.12611282274372
 20
166.51950746711208
 30
0.0
 11
-15.039312822743909
 21
166.51950746711216
 31
0.0
  0
LINE
  5
102
100
AcDbEntity
100
AcDbLine
  8
0
 62
1
420
16711680
370
0
 48
1.0
  6
Continuous
 10
-160.23611282274373
 20
56.940698849130293
 30
0.0
 11
-160.23611282274371
 21
131.64869884913037
 31
0.0
  0
LINE
  5
103
100
AcDbEntity
100
AcDbLine
  8
0
 62
1
420
16711680
370
0
 48
1.0
  6
Continuous
 10
-3.9974332760798177
 20
74.286558552532853
 30
0.0
 11
29.412801792188588
 21
58.708439642336096
 31
0.0
  0
LINE
  5
104
100
AcDbEntity
100
AcDbLine
  8
0
 62
1
420
16711680
370
0
 48
1.0
  6
Continuous
 10
-16.941971548588498
 20
133.53769884913027
 30
0.0
 11
-16.92931282274381
 21
68.221507467112247
 31
0.0
  0
CIRCLE
  5
105
100
AcDbEntity
100
AcDbCircle
  8
0
 62
1
420
16711680
370
0
 48
1.0
  6
Continuous
 10
-162.86223655689659
 20
160.25563120126498
 30
0.0
 40
1.5
  0
ARC
  5
106
100
AcDbEntity
  8
0
 62
1
420
16711680
370
0
 48
1.0
  6
Continuous
100
AcDbCircle
 10
-30.517371751048501
 20
56.829698849130246
 30
0.0
 40
1.0159999999999949
100
AcDbArc
 50
90.0
 51
244.99999999990004
  0
LINE
  5
107
100
AcDbEntity
100
AcDbLine
  8
0
 62
1
420
16711680
370
0
 48
1.0
  6
Continuous
 10
-30.946751903208622
 20
55.908890137030234
 30
0.0
 11
-20.484878412468618
 21
51.030438408050237
 31
0.0
  0
ARC
  5
108
100
AcDbEntity
  8
0
 62
1
420
16711680
370
0
 48
1.0
  6
Continuous
100
AcDbCircle
 10
-19.840808181688516
 20
52.411651477470095
 30
0.0
 40
1.523999999999982
100
AcDbArc
 50
244.99999999990004
 51
334.99999999990007
  0
LINE
  5
109
100
AcDbEntity
100
AcDbLine
  8
0
 62
1
420
16711680
370
0
 48
1.0
  6
Continuous
 10
-18.459595114808621
 20
51.767581246690305
 30
0.0
 11
-11.482167614268519
 21
66.73072280879029
 31
0.0
  0
ARC
  5
10A
100
AcDbEntity
  8
0
 62
1
420
16711680
370
0
 48
1.0
  6
Continuous
100
AcDbCircle
 10
-10.561358902168507
 20
66.301342656630254
 30
0.0
 40
1.0160000000000129
100
AcDbArc
 50
64.999999999900012
 51
154.99999999990001
  0
LINE
  5
10B
100
AcDbEntity
100
AcDbLine
  8
0
 62
1
420
16711680
370
0
 48
1.0
  6
Continuous
 10
-10.131978747468594
 20
67.222151366190189
 30
0.0
 11
23.017134870351498
 21
51.764465824930461
 31
0.0
  0
ARC
  5
10C
100
AcDbEntity
  8
0
 62
1
420
16711680
370
0
 48
1.0
  6
Continuous
100
AcDbCircle
 10
22.587754715651499
 20
50.843657115370213
 30
0.0
 40
1.0159999999999949
100
AcDbArc
 50
334.99999999990007
 51
64.999999999900012
  0
LINE
  5
10D
100
AcDbEntity
100
AcDbLine
  8
0
 62
1
420
16711680
370
0
 48
1.0
  6
Continuous
 10
23.508563427279995
 20
50.414276961440017
 30
0.0
 11
0.0
 21
0.0
 31
0.0
  0
ARC
  5
10E
100
AcDbEntity
  8
0
 62
1
420
16711680
370
0
 48
1.0
  6
Continuous
100
AcDbCircle
 10
-0.9208087116284958
 20
0.4293801513903084
 30
0.0
 40
1.0159999999999541
100
AcDbArc
 50
244.99999999990004
 51
334.99999999990007
  0
LINE
  5
10F
100
AcDbEntity
100
AcDbLine
  8
0
 62
1
420
16711680
370
0
 48
1.0
  6
Continuous
 10
-1.3501888663284944
 20
-0.4914285581696625
 30
0.0
 11
-51.764465827768618
 21
23.01713486911035
 31
0.0
  0
ARC
  5
110
100
AcDbEntity
  8
0
 62
1
420
16711680
370
0
 48
1.0
  6
Continuous
100
AcDbCircle
 10
-51.335085673068505
 20
23.937943581210341
 30
0.0
 40
1.0159999999999949
100
AcDbArc
 50
154.99999999990001
 51
244.99999999990004
  0
LINE
  5
111
100
AcDbEntity
100
AcDbLine
  8
0
 62
1
420
16711680
370
0
 48
1.0
  6
Continuous
 10
-52.255894385168602
 20
24.367323733370547
 30
0.0
 11
-37.655659437868621
 21
55.677628618350191
 31
0.0
  0
ARC
  5
112
100
AcDbEntity
  8
0
 62
1
420
16711680
370
0
 48
1.0
  6
Continuous
100
AcDbCircle
 10
-39.036872504748516
 20
56.321698849130321
 30
0.0
 40
1.5240000000000611
100
AcDbArc
 50
334.99999999990007
 51
90.0
  0
LINE
  5
113
100
AcDbEntity
100
AcDbLine
  8
0
 62
1
420
16711680
370
0
 48
1.0
  6
Continuous
 10
-39.036872504748516
 20
57.845698849130265
 30
0.0
 11
-53.51797154858852
 21
57.845698849130237
 31
0.0
  0
ARC
  5
114
100
AcDbEntity
  8
0
 62
1
420
16711680
370
0
 48
1.0
  6
Continuous
100
AcDbCircle
 10
-53.51797154858852
 20
56.321698849130321
 30
0.0
 40
1.5239999999999669
100
AcDbArc
 50
90.0
 51
180.0
  0
LINE
  5
115
100
AcDbEntity
100
AcDbLine
  8
0
 62
1
420
16711680
370
0
 48
1.0
  6
Continuous
 10
-55.041971548588521
 20
56.321698849130208
 30
0.0
 11
-55.041971548588521
 21
41.081698849130035
 31
0.0
  0
ARC
  5
116
100
AcDbEntity
  8
0
 62
1
420
16711680
370
0
 48
1.0
  6
Continuous
100
AcDbCircle
 10
-56.057971548588512
 20
41.081698849130376
 30
0.0
 40
1.0159999999999769
100
AcDbArc
 50
270.0
 51
0.0
  0
LINE
  5
117
100
AcDbEntity
100
AcDbLine
  8
0
 62
1
420
16711680
370
0
 48
1.0
  6
Continuous
 10
-56.057971548588512
 20
40.06569884913052
 30
0.0
 11
-73.769328531188506
 21
40.065698849130428
 31
0.0
  0
ARC
  5
118
100
AcDbEntity
  8
0
 62
1
420
16711680
370
0
 48
1.0
  6
Continuous
100
AcDbCircle
 10
-73.769328531188506
 20
41.081698849130348
 30
0.0
 40
1.0160000000000251
100
AcDbArc
 50
202.02431283700011
 51
270.0
  0
ARC
  5
119
100
AcDbEntity
  8
0
 62
1
420
16711680
370
0
 48
1.0
  6
Continuous
100
AcDbCircle
 10
-76.123971548588514
 20
40.129198849130205
 30
0.0
 40
1.5239999999999669
100
AcDbArc
 50
22.024312836999989
 51
90.0
  0
LINE
  5
11A
100
AcDbEntity
100
AcDbLine
  8
0
 62
1
420
16711680
370
0
 48
1.0
  6
Continuous
 10
-76.123971548588514
 20
41.65319884913022
 30
0.0
 11
-91.617971548588514
 21
41.653198849130227
 31
0.0
  0
ARC
  5
11B
100
AcDbEntity
  8
0
 62
1
420
16711680
370
0
 48
1.0
  6
Continuous
100
AcDbCircle
 10
-91.617971548588514
 20
40.129198849130155
 30
0.0
 40
1.523999999999982
100
AcDbArc
 50
90.0
 51
157.975687163
  0
ARC
  5
11C
100
AcDbEntity
  8
0
 62
1
420
16711680
370
0
 48
1.0
  6
Continuous
100
AcDbCircle
 10
-93.972614568528513
 20
41.081698849130291
 30
0.0
 40
1.015999999999982
100
AcDbArc
 50
270.0
 51
337.97568716299992
  0
LINE
  5
11D
100
AcDbEntity
100
AcDbLine
  8
0
 62
1
420
16711680
370
0
 48
1.0
  6
Continuous
 10
-93.972614568528513
 20
40.065698849130371
 30
0.0
 11
-110.66797154858853
 21
40.065698849130321
 31
0.0
  0
ARC
  5
11E
100
AcDbEntity
  8
0
 62
1
420
16711680
370
0
 48
1.0
  6
Continuous
100
AcDbCircle
 10
-110.66797154858853
 20
38.541698849130221
 30
0.0
 40
1.524000000000058
100
AcDbArc
 50
90.0
 51
180.0
  0
LINE
  5
11F
100
AcDbEntity
100
AcDbLine
  8
0
 62
1
420
16711680
370
0
 48
1.0
  6
Continuous
 10
-112.19197154858853
 20
38.541698849130299
 30
0.0
 11
-112.19197154858853
 21
37.906698849130336
 31
0.0
  0
ARC
  5
120
100
AcDbEntity
  8
0
 62
1
420
16711680
370
0
 48
1.0
  6
Continuous
100
AcDbCircle
 10
-113.20797154858849
 20
37.906698849130251
 30
0.0
 40
1.0160000000000231
100
AcDbArc
 50
270.0
 51
0.0
  0
LINE
  5
121
100
AcDbEntity
100
AcDbLine
  8
0
 62
1
420
16711680
370
0
 48
1.0
  6
Continuous
 10
-113.20797154858849
 20
36.890698849130146
 30
0.0
 11
-149.78397154858851
 21
36.890698849130281
 31
0.0
  0
ARC
  5
122
100
AcDbEntity
  8
0
 62
1
420
16711680
370
0
 48
1.0
  6
Continuous
100
AcDbCircle
 10
-149.78397154858851
 20
37.906698849130265
 30
0.0
 40
1.0160000000000691
100
AcDbArc
 50
180.0
 51
270.0
  0
LINE
  5
123
100
AcDbEntity
100
AcDbLine
  8
0
 62
1
420
16711680
370
0
 48
1.0
  6
Continuous
 10
-150.79997154858859
 20
37.906698849130265
 30
0.0
 11
-150.79997154858859
 21
54.416698849130235
 31
0.0
  0
ARC
  5
124
100
AcDbEntity
  8
0
 62
1
420
16711680
370
0
 48
1.0
  6
Continuous
100
AcDbCircle
 10
-152.32397154858853
 20
54.416698849130235
 30
0.0
 40
1.524000000000058
100
AcDbArc
 50
0.0
 51
90.0
  0
LINE
  5
125
100
AcDbEntity
100
AcDbLine
  8
0
 62
1
420
16711680
370
0
 48
1.0
  6
Continuous
 10
-152.32397154858853
 20
55.940698849130293
 30
0.0
 11
-159.23611282274373
 21
55.940698849130293
 31
0.0
  0
LINE
  5
126
100
AcDbEntity
100
AcDbLine
  8
0
 62
1
420
16711680
370
0
 48
1.0
  6
Continuous
 10
-159.23611282274373
 20
132.64869884913037
 30
0.0
 11
-114.22397154858851
 21
132.64869884913037
 31
0.0
  0
ARC
  5
127
100
AcDbEntity
  8
0
 62
1
420
16711680
370
0
 48
1.0
  6
Continuous
100
AcDbCircle
 10
-114.22397154858851
 20
134.17269884913028
 30
0.0
 40
1.524000000000012
100
AcDbArc
 50
270.0
 51
0.0
  0
LINE
  5
128
100
AcDbEntity
100
AcDbLine
  8
0
 62
1
420
16711680
370
0
 48
1.0
  6
Continuous
 10
-112.69997154858845
 20
134.17269884913017
 30
0.0
 11
-112.69997154858851
 21
134.80769884913028
 31
0.0
  0
ARC
  5
129
100
AcDbEntity
  8
0
 62
1
420
16711680
370
0
 48
1.0
  6
Continuous
100
AcDbCircle
 10
-111.68397154858849
 20
134.80769884913036
 30
0.0
 40
1.0160000000000691
100
AcDbArc
 50
90.0
 51
180.0
  0
LINE
  5
12A
100
AcDbEntity
100
AcDbLine
  8
0
 62
1
420
16711680
370
0
 48
1.0
  6
Continuous
 10
-111.68397154858849
 20
135.82369884913027
 30
0.0
 11
-95.173971548588483
 21
135.82369884913027
 31
0.0
  0
ARC
  5
12B
100
AcDbEntity
  8
0
 62
1
420
16711680
370
0
 48
1.0
  6
Continuous
100
AcDbCircle
 10
-95.173971548588455
 20
137.34769884913018
 30
0.0
 40
1.5240000000000511
100
AcDbArc
 50
270.0
 51
337.97568716299992
  0
ARC
  5
12C
100
AcDbEntity
  8
0
 62
1
420
16711680
370
0
 48
1.0
  6
Continuous
100
AcDbCircle
 10
-92.819328531188461
 20
136.39519884913028
 30
0.0
 40
1.01599999999999
100
AcDbArc
 50
90.0
 51
157.975687163
  0
LINE
  5
12D
100
AcDbEntity
100
AcDbLine
  8
0
 62
1
420
16711680
370
0
 48
1.0
  6
Continuous
 10
-92.819328531188447
 20
137.41119884913016
 30
0.0
 11
-74.922614568528502
 21
137.41119884913016
 31
0.0
  0
ARC
  5
12E
100
AcDbEntity
  8
0
 62
1
420
16711680
370
0
 48
1.0
  6
Continuous
100
AcDbCircle
 10
-74.922614568528502
 20
136.39519884913028
 30
0.0
 40
1.01599999999999
100
AcDbArc
 50
22.024312836999989
 51
90.0
  0
ARC
  5
12F
100
AcDbEntity
  8
0
 62
1
420
16711680
370
0
 48
1.0
  6
Continuous
100
AcDbCircle
 10
-72.567971548588503
 20
137.34769884913018
 30
0.0
 40
1.524000000000008
100
AcDbArc
 50
202.02431283700011
 51
270.0
  0
LINE
  5
130
100
AcDbEntity
100
AcDbLine
  8
0
 62
1
420
16711680
370
0
 48
1.0
  6
Continuous
 10
-72.567971548588503
 20
135.82369884913027
 30
0.0
 11
-55.71767607474851
 21
135.82369884913027
 31
0.0
  0
ARC
  5
131
100
AcDbEntity
  8
0
 62
1
420
16711680
370
0
 48
1.0
  6
Continuous
100
AcDbCircle
 10
-55.71767607474851
 20
134.80769884913028
 30
0.0
 40
1.0160000000000691
100
AcDbArc
 50
29.999999999999993
 51
90.0
  0
ARC
  5
132
100
AcDbEntity
  8
0
 62
1
420
16711680
370
0
 48
1.0
  6
Continuous
100
AcDbCircle
 10
-53.51797154858852
 20
136.07769884913017
 30
0.0
 40
1.524000000000058
100
AcDbArc
 50
210.0
 51
270.0
  0
LINE
  5
133
100
AcDbEntity
100
AcDbLine
  8
0
 62
1
420
16711680
370
0
 48
1.0
  6
Continuous
 10
-53.51797154858852
 20
134.55369884913028
 30
0.0
 11
-17.957971548588517
 21
134.55369884913028
 31
0.0
  0
ARC
  5
134
100
AcDbEntity
  8
0
 62
1
420
16711680
370
0
 48
1.0
  6
Continuous
100
AcDbCircle
 10
-17.957971548588517
 20
133.53769884913027
 30
0.0
 40
1.0160000000000691
100
AcDbArc
 50
0.0
 51
90.0
  0
LINE
  5
135
100
AcDbEntity
100
AcDbLine
  8
0
 62
1
420
16711680
370
0
 48
1.0
  6
Continuous
 10
-16.941971548588498
 20
133.53769884913027
 30
0.0
 11
-16.941971548588498
 21
58.861698849130171
 31
0.0
  0
ARC
  5
136
100
AcDbEntity
  8
0
 62
1
420
16711680
370
0
 48
1.0
  6
Continuous
100
AcDbCircle
 10
-17.957971548588517
 20
58.861698849130256
 30
0.0
 40
1.0160000000000691
100
AcDbArc
 50
270.0
 51
0.0
  0
LINE
  5
137
100
AcDbEntity
100
AcDbLine
  8
0
 62
1
420
16711680
370
0
 48
1.0
  6
Continuous
 10
-17.957971548588517
 20
57.845698849130322
 30
0.0
 11
-30.517371751048501
 21
57.84569884913018
 31
0.0
  0
ENDBLK
  5
138
100
AcDbEntity
  8
0
100
AcDbBlockEnd
  0
BLOCK
  5
139
100
AcDbEntity
  8
0
100
AcDbBlockBegin
  2
Layer 2
 70
0
 10
0.0
 20
0.0
 30
0.0
  3
Layer 2
  1

  0
CIRCLE
  5
13A
100
AcDbEntity
100
AcDbCircle
  8
0
 62
1
420
16711680
370
0
 48
1.0
  6
Continuous
 10
74.816573734000002
 20
67.434123733999968
 30
0.0
 40
1.5
  0
CIRCLE
  5
13B
100
AcDbEntity
100
AcDbCircle
  8
0
 62
1
420
16711680
370
0
 48
1.0
  6
Continuous
 10
116.558534729
 20
-40.101514877599982
 30
0.0
 40
1.5
  0
CIRCLE
  5
13C
100
AcDbEntity
100
AcDbCircle
  8
0
 62
1
420
16711680
370
0
 48
1.0
  6
Continuous
 10
89.972096714999992
 20
-97.117594802699998
 30
0.0
 40
1.5
  0
CIRCLE
  5
13D
100
AcDbEntity
100
AcDbCircle
  8
0
 62
1
420
16711680
370
0
 48
1.0
  6
Continuous
 10
6.6698800000000062
 20
-60.287000000000006
 30
0.0
 40
1.5
  0
CIRCLE
  5
13E
100
AcDbEntity
100
AcDbCircle
  8
0
 62
1
420
16711680
370
0
 48
1.0
  6
Continuous
 10
-73.736124000000018
 20
-56.880623734200014
 30
0.0
 40
1.5
  0
CIRCLE
  5
13F
100
AcDbEntity
100
AcDbCircle
  8
0
 62
1
420
16711680
370
-1
 48
1.0
  6
BYLAYER
 10
-73.736123734200021
 20
67.434123733999968
 30
0.0
 40
1.5
  0
LWPOLYLINE
  5
140
  8
0
 62
256
370
-1
 48
1.0
  6
BYLAYER
100
AcDbEntity
100
AcDbPolyline
 90
20
 70
0
 10
44.750699999999995
 20
68.584979999999973
 30
0.0
 10
52.094099999999997
 20
68.584979999999973
 30
0.0
 10
65.973800000000011
 20
73.697999999999979
 30
0.0
 10
74.086800000000011
 20
73.697999999999979
 30
0.0
 42
-0.414213562373
 10
81.086800000000011
 20
66.697999999999979
 30
0.0
 10
81.086800000000011
 20
-12.190697707099986
 30
0.0
 42
0.291482285854
 10
85.12867954699999
 20
-18.534948914599994
 30
0.0
 10
118.53891461500001
 20
-34.113067824799998
 30
0.0
 42
-0.414222177701
 10
121.924958355
 20
-43.415626097200004
 30
0.0
 10
95.960571949000013
 20
-99.096908303299998
 30
0.0
 42
-0.4141910192640001
 10
86.658588995000002
 20
-102.48299310661
 30
0.0
 10
7.0906107669999869
 20
-65.387608131799993
 30
0.0
 42
0.109497510859
 10
4.1327920059999883
 20
-64.731999999899983
 30
0.0
 10
-73.0
 20
-64.731999999999999
 30
0.0
 42
-0.414213562373
 10
-80.0
 20
-57.731999999999999
 30
0.0
 10
-80.0
 20
66.697999999999979
 30
0.0
 42
-0.414213562373
 10
-73.0
 20
73.697999999999979
 30
0.0
 10
30.871000000000009
 20
73.697999999999979
 30
0.0
 10
44.750699999999995
 20
68.584979999999973
 30
0.0
 10
45.307799999999986
 20
68.584979999999973
 30
0.0
  0
LWPOLYLINE
  5
141
  8
0
 62
256
370
-1
 48
1.0
  6
BYLAYER
100
AcDbEntity
100
AcDbPolyline
 90
53
 70
1
 10
36.870218437999995
 20
-68.454183733700006
 30
0.0
 10
51.470453385000013
 20
-37.143878848899988
 30
0.0
 42
0.5486187866269999
 10
50.089240318000009
 20
-34.975808618000002
 30
0.0
 10
35.608141273999991
 20
-34.975808618000002
 30
0.0
 42
0.414213562373
 10
34.08414127399999
 20
-36.499808618000003
 30
0.0
 10
34.08414127399999
 20
-51.739808618000012
 30
0.0
 42
-0.414213562373
 10
33.068141273999998
 20
-52.755808618000003
 30
0.0
 10
15.356784291999986
 20
-52.755808618000003
 30
0.0
 42
-0.305614684581
 10
14.414927086000006
 20
-52.120808618000012
 30
0.0
 42
0.305614684581
 10
13.002141273999996
 20
-51.168308618000026
 30
0.0
 10
-2.4918587258000002
 20
-51.168308618000026
 30
0.0
 42
0.305614684581
 10
-3.9046445379000261
 20
-52.120808618000012
 30
0.0
 42
-0.305614684581
 10
-4.8465017457999693
 20
-52.755808618000003
 30
0.0
 10
-21.541858725800012
 20
-52.755808618000003
 30
0.0
 42
0.414213562373
 10
-23.065858725800013
 20
-54.279808618000004
 30
0.0
 10
-23.065858725800013
 20
-54.914808617999995
 30
0.0
 42
-0.414213562373
 10
-24.081858725799975
 20
-55.930808618000015
 30
0.0
 10
-60.657858725799997
 20
-55.930808618000015
 30
0.0
 42
-0.414213562373
 10
-61.673858725800017
 20
-54.914808617999995
 30
0.0
 10
-61.673858725800017
 20
-38.404808618000004
 30
0.0
 42
0.414213562373
 10
-63.197858725799961
 20
-36.880808618000003
 30
0.0
 10
-70.110000000000014
 20
-36.880808618000003
 30
0.0
 42
-0.414213562373
 10
-71.110000000000014
 20
-35.880808618000003
 30
0.0
 10
-71.110000000000014
 20
38.827191381999995
 30
0.0
 42
-0.414213562373
 10
-70.110000000000014
 20
39.827191381999995
 30
0.0
 10
-25.097858725799995
 20
39.827191381999995
 30
0.0
 42
0.414213562373
 10
-23.573858725799994
 20
41.351191381999996
 30
0.0
 10
-23.573858725799994
 20
41.986191381999987
 30
0.0
 42
-0.414213562373
 10
-22.557858725799974
 20
43.002191382000007
 30
0.0
 10
-6.0478587257999834
 20
43.002191382000007
 30
0.0
 42
0.305614684581
 10
-4.6350729162999755
 20
43.954691381999993
 30
0.0
 42
-0.305614684581
 10
-3.6932157084000039
 20
44.589691382000012
 30
0.0
 10
14.20349825400001
 20
44.589691382000012
 30
0.0
 42
-0.305614684581
 10
15.145355461999998
 20
43.954691381999993
 30
0.0
 42
0.305614684581
 10
16.558141273999979
 20
43.002191382000007
 30
0.0
 10
33.408436748000014
 20
43.002191382000007
 30
0.0
 42
-0.267949192431
 10
34.288318559000004
 20
42.494191381999997
 30
0.0
 42
0.267949192431
 10
35.608141273999991
 20
41.732191381999996
 30
0.0
 10
71.168141273999993
 20
41.732191381999996
 30
0.0
 42
-0.414213562373
 10
72.184141274000012
 20
40.716191382000005
 30
0.0
 10
72.184141274000012
 20
-33.959808618000011
 30
0.0
 42
-0.414213562373
 10
71.168141273999993
 20
-34.975808618000002
 30
0.0
 10
58.608741071999987
 20
-34.975808618000002
 30
0.0
 42
0.802584851671
 10
58.179360919999993
 20
-36.912617330100005
 30
0.0
 10
68.64123441000001
 20
-41.791069057100003
 30
0.0
 42
0.414213562373
 10
70.666517707999986
 20
-41.053926220400001
 30
0.0
 10
77.643945209000009
 20
-26.090784656599993
 30
0.0
 42
-0.414213562373
 10
78.994134075000005
 20
-25.599356100899996
 30
0.0
 10
112.14324769199999
 20
-41.05704164010001
 30
0.0
 42
-0.414213562373
 10
112.63467625000001
 20
-42.407230505699999
 30
0.0
 10
89.126112823
 20
-92.821507469700009
 30
0.0
 42
-0.414213562373
 10
87.7759239559999
 20
-93.312936025300004
 30
0.0
 10
37.36164699599999
 20
-69.804372597499992
 30
0.0
 42
-0.414213562373
  0
LWPOLYLINE
  5
142
  8
0
 62
256
370
-1
 48
1.0
  6
BYLAYER
100
AcDbEntity
100
AcDbPolyline
 90
12
 70
1
 10
-61.692154911600028
 20
50.233266681000003
 30
0.0
 10
-61.692154911600028
 20
60.435326680999992
 30
0.0
 10
-59.192154911600028
 20
60.435326680999992
 30
0.0
 10
-59.192154911600028
 20
62.435326680999992
 30
0.0
 10
-47.192154911600028
 20
62.435326680999992
 30
0.0
 10
-47.192154911600028
 20
60.435326680999992
 30
0.0
 10
-25.000000430900002
 20
60.435326680999992
 30
0.0
 10
-25.000000430900002
 20
50.233266681000003
 30
0.0
 10
-47.192154911600028
 20
50.233266681000003
 30
0.0
 10
-47.192154911600028
 20
48.233266681000003
 30
0.0
 10
-59.192154911600028
 20
48.233266681000003
 30
0.0
 10
-59.192154911600028
 20
50.233266681000003
 30
0.0
  0
LWPOLYLINE
  5
143
  8
0
 62
256
370
-1
 48
1.0
  6
BYLAYER
100
AcDbEntity
100
AcDbPolyline
 90
4
 70
1
 10
54.807799999999986
 20
67.08420000000001
 30
0.0
 10
54.807799999999986
 20
53.58420000000001
 30
0.0
 10
42.037000000000006
 20
53.58420000000001
 30
0.0
 10
42.037000000000006
 20
67.08420000000001
 30
0.0
  0
CIRCLE
  5
144
100
AcDbEntity
100
AcDbCircle
  8
0
 62
1
420
16711680
370
0
 48
1.0
  6
Continuous
 10
21.333300000000008
 20
69.252999999999986
 30
0.0
 40
1.5
  0
ENDBLK
  5
145
100
AcDbEntity
  8
0
100
AcDbBlockEnd
  0
BLOCK
  5
146
100
AcDbEntity
  8
0
100
AcDbBlockBegin
  2
Layer 5
 70
0
 10
0.0
 20
0.0
 30
0.0
  3
Layer 5
  1

  0
CIRCLE
  5
147
100
AcDbEntity
100
AcDbCircle
  8
0
 62
1
420
16711680
370
-1
 48
1.0
  6
BYLAYER
 10
16.669880000000006
 20
-50.287000000000944
 30
0.0
 40
1.5
  0
CIRCLE
  5
148
100
AcDbEntity
100
AcDbCircle
  8
0
 62
1
420
16711680
370
-1
 48
1.0
  6
BYLAYER
 10
-63.73612399999999
 20
-46.880623734152181
 30
0.0
 40
1.5
  0
LINE
  5
149
100
AcDbEntity
100
AcDbLine
  8
0
 62
1
420
16711680
370
-1
 48
1.0
  6
BYLAYER
 10
91.086800000000011
 20
76.698000000000292
 30
0.0
 11
91.086800000000011
 21
-2.1906977071035953
 31
0.0
  0
LINE
  5
14A
100
AcDbEntity
100
AcDbLine
  8
0
 62
1
420
16711680
370
-1
 48
1.0
  6
BYLAYER
 10
-70.0
 20
-47.731999999998351
 30
0.0
 11
-70.0
 21
76.698000000000093
 31
0.0
  0
LINE
  5
14B
100
AcDbEntity
100
AcDbLine
  8
0
 62
1
420
16711680
370
-1
 48
1.0
  6
BYLAYER
 10
-63.0
 20
83.698000000000093
 30
0.0
 11
84.086799999999812
 21
83.698000000000292
 31
0.0
  0
LINE
  5
14C
100
AcDbEntity
100
AcDbLine
  8
0
 62
1
420
16711680
370
-1
 48
1.0
  6
BYLAYER
 10
95.128679546663903
 20
-8.534948914579104
 30
0.0
 11
128.53891461493231
 21
-24.113067824775783
 31
0.0
  0
LINE
  5
14D
100
AcDbEntity
100
AcDbLine
  8
0
 62
1
420
16711680
370
-1
 48
1.0
  6
BYLAYER
 10
131.9249583547552
 20
-33.415626097151346
 30
0.0
 11
105.96057194891841
 21
-89.096908303338154
 31
0.0
  0
LINE
  5
14E
100
AcDbEntity
100
AcDbLine
  8
0
 62
1
420
16711680
370
-1
 48
1.0
  6
BYLAYER
 10
96.658588994725392
 20
-92.482993106606031
 30
0.0
 11
17.090610766645
 21
-55.38760813182455
 31
0.0
  0
CIRCLE
  5
14F
100
AcDbEntity
100
AcDbCircle
  8
0
 62
1
420
16711680
370
-1
 48
1.0
  6
BYLAYER
 10
-63.736123734152898
 20
77.43412373415299
 30
0.0
 40
1.5
  0
CIRCLE
  5
150
100
AcDbEntity
100
AcDbCircle
  8
0
 62
1
420
16711680
370
-1
 48
1.0
  6
BYLAYER
 10
31.333300000000008
 20
79.253000000000213
 30
0.0
 40
1.5
  0
LINE
  5
151
100
AcDbEntity
100
AcDbLine
  8
0
 62
1
420
16711680
370
-1
 48
1.0
  6
BYLAYER
 10
14.132792005610384
 20
-54.731999999992482
 30
0.0
 11
-62.99999999999946
 21
-54.731999999998351
 31
0.0
  0
CIRCLE
  5
152
100
AcDbEntity
100
AcDbCircle
  8
0
 62
1
420
16711680
370
-1
 48
1.0
  6
BYLAYER
 10
84.816573734152911
 20
77.434123734153189
 30
0.0
 40
1.5
  0
ARC
  5
153
100
AcDbEntity
  8
0
 62
1
420
16711680
370
-1
 48
1.0
  6
BYLAYER
100
AcDbCircle
 10
-63.0
 20
76.698000000000093
 30
0.0
 40
7.0
100
AcDbArc
 50
90.000000000000043
 51
180.0
  0
ARC
  5
154
100
AcDbEntity
  8
0
 62
1
420
16711680
370
-1
 48
1.0
  6
BYLAYER
100
AcDbCircle
 10
84.086800000000011
 20
76.698000000000292
 30
0.0
 40
7.0
100
AcDbArc
 50
0.0
 51
90.000000000002103
  0
ARC
  5
155
100
AcDbEntity
  8
0
 62
1
420
16711680
370
-1
 48
1.0
  6
BYLAYER
100
AcDbCircle
 10
-63.0
 20
-47.731999999998351
 30
0.0
 40
7.0
100
AcDbArc
 50
180.0
 51
270.00000000000438
  0
ARC
  5
156
100
AcDbEntity
  8
0
 62
1
420
16711680
370
-1
 48
1.0
  6
BYLAYER
100
AcDbCircle
 10
99.616407755759411
 20
-86.138601238438127
 30
0.0
 40
7.0
100
AcDbArc
 50
245.00459747358514
 51
335.00018755483688
  0
ARC
  5
157
100
AcDbEntity
  8
0
 62
1
420
16711680
370
-1
 48
1.0
  6
BYLAYER
100
AcDbCircle
 10
125.58079416159609
 20
-30.457319032251291
 30
0.0
 40
7.0
100
AcDbArc
 50
335.00018755483688
 51
65.001872880338141
  0
ARC
  5
158
100
AcDbEntity
  8
0
 62
1
420
16711680
370
-1
 48
1.0
  6
BYLAYER
100
AcDbCircle
 10
98.086800000000011
 20
-2.1906977071035953
 30
0.0
 40
7.0
100
AcDbArc
 50
180.0
 51
245.00187288033811
  0
ARC
  5
159
100
AcDbEntity
  8
0
 62
1
420
16711680
370
-1
 48
1.0
  6
BYLAYER
100
AcDbCircle
 10
14.132792005611009
 20
-61.731999999992468
 30
0.0
 40
7.0
100
AcDbArc
 50
65.004597473585122
 51
90.000000000004434
  0
LINE
  5
15A
100
AcDbEntity
100
AcDbLine
  8
0
 62
1
420
16711680
370
-1
 48
1.0
  6
BYLAYER
 10
106.0
 20
-84.0
 30
0.0
 11
106.0
 21
-84.0
 31
0.0
  0
CIRCLE
  5
15B
100
AcDbEntity
100
AcDbCircle
  8
0
 62
1
420
16711680
370
-1
 48
1.0
  6
BYLAYER
 10
99.972096714906002
 20
-87.117594802729585
 30
0.0
 40
1.5
  0
LINE
  5
15C
100
AcDbEntity
100
AcDbLine
  8
0
 62
1
420
16711680
370
-1
 48
1.0
  6
BYLAYER
 10
106.0
 20
-83.999999999999361
 30
0.0
 11
106.0
 21
-83.999999999999361
 31
0.0
  0
CIRCLE
  5
15D
100
AcDbEntity
100
AcDbCircle
  8
0
 62
1
420
16711680
370
-1
 48
1.0
  6
BYLAYER
 10
64.807799999999986
 20
57.084200000000806
 30
0.0
 40
1.5
  0
CIRCLE
  5
15E
100
AcDbEntity
100
AcDbCircle
  8
0
 62
1
420
16711680
370
-1
 48
1.0
  6
BYLAYER
 10
-45.192199999999957
 20
57.084200000000806
 30
0.0
 40
1.5
  0
CIRCLE
  5
15F
100
AcDbEntity
100
AcDbCircle
  8
0
 62
1
420
16711680
370
-1
 48
1.0
  6
BYLAYER
 10
94.807799999999986
 20
-62.915799999999678
 30
0.0
 40
1.5
  0
CIRCLE
  5
160
100
AcDbEntity
100
AcDbCircle
  8
0
 62
1
420
16711680
370
-1
 48
1.0
  6
BYLAYER
 10
126.5585347288648
 20
-30.101514877556895
 30
0.0
 40
1.5
  0
ENDBLK
  5
161
100
AcDbEntity
  8
0
100
AcDbBlockEnd
  0
ENDSEC
  0
SECTION
  2
ENTITIES
  0
INSERT
  5
162
100
AcDbEntity
100
AcDbBlockReference
  8
0
 62
256
370
-1
 48
1.0
  6
BYLAYER
  2
Layer2
 10
130.0
 20
230.0
 30
0.0
  0
INSERT
  5
163
100
AcDbEntity
100
AcDbBlockReference
  8
0
 62
256
370
-1
 48
1.0
  6
BYLAYER
  2
Layer4
 10
180.0
 20
80.0
 30
0.0
 50
180.0
  0
ENDSEC
  0
SECTION
  2
OBJECTS
  0
DICTIONARY
  5
C
100
AcDbDictionary
280
0
281
1
  3
ACAD_GROUP
350
D
  3
ACAD_LAYOUT
350
1A
  3
ACAD_MLINESTYLE
350
17
  3
ACAD_PLOTSETTINGS
350
19
  3
ACAD_PLOTSTYLENAME
350
E
  3
AcDbVariableDictionary
350
164
  3
QCAD_OBJECTS
350
165
  0
DICTIONARY
  5
D
100
AcDbDictionary
280
0
281
1
  0
ACDBDICTIONARYWDFLT
  5
E
100
AcDbDictionary
281
1
  3
Normal
350
F
100
AcDbDictionaryWithDefault
340
F
  0
ACDBPLACEHOLDER
  5
F
  0
DICTIONARY
  5
17
100
AcDbDictionary
280
0
281
1
  3
Standard
350
18
  0
MLINESTYLE
  5
18
100
AcDbMlineStyle
  2
STANDARD
 70
0
  3

 62
256
 51
90.0
 52
90.0
 71
2
 49
0.5
 62
256
  6
BYLAYER
 49
-0.5
 62
256
  6
BYLAYER
  0
DICTIONARY
  5
19
100
AcDbDictionary
280
0
281
1
  0
DICTIONARY
  5
1A
100
AcDbDictionary
281
1
  3
Layout1
350
1E
  3
Layout2
350
26
  3
Model
350
22
  0
LAYOUT
  5
1E
100
AcDbPlotSettings
  1

  2
none_device
  4

  6

 40
0.0
 41
0.0
 42
0.0
 43
0.0
 44
0.0
 45
0.0
 46
0.0
 47
0.0
 48
0.0
 49
0.0
140
0.0
141
0.0
142
1.0
143
1.0
 70
688
 72
0
 73
0
 74
5
  7

 75
16
147
1.0
148
0.0
149
0.0
100
AcDbLayout
  1
Layout1
 70
1
 71
1
 10
0.0
 20
0.0
 11
420.0
 21
297.0
 12
0.0
 22
0.0
 32
0.0
 14
100000000000000000000.0
 24
100000000000000000000.0
 34
100000000000000000000.0
 15
-100000000000000000000.0
 25
-100000000000000000000.0
 35
-100000000000000000000.0
146
0.0
 13
0.0
 23
0.0
 33
0.0
 16
1.0
 26
0.0
 36
0.0
 17
0.0
 27
1.0
 37
0.0
 76
0
330
1B
  0
LAYOUT
  5
22
100
AcDbPlotSettings
  1

  2
none_device
  4

  6

 40
0.0
 41
0.0
 42
0.0
 43
0.0
 44
0.0
 45
0.0
 46
0.0
 47
0.0
 48
0.0
 49
0.0
140
0.0
141
0.0
142
1.0
143
1.0
 70
1712
 72
0
 73
0
 74
0
  7

 75
0
147
1.0
148
0.0
149
0.0
100
AcDbLayout
  1
Model
 70
1
 71
0
 10
0.0
 20
0.0
 11
12.0
 21
9.0
 12
0.0
 22
0.0
 32
0.0
 14
0.0
 24
0.0
 34
0.0
 15
0.0
 25
0.0
 35
0.0
146
0.0
 13
0.0
 23
0.0
 33
0.0
 16
1.0
 26
0.0
 36
0.0
 17
0.0
 27
1.0
 37
0.0
 76
0
330
1F
  0
LAYOUT
  5
26
100
AcDbPlotSettings
  1

  2
none_device
  4

  6

 40
0.0
 41
0.0
 42
0.0
 43
0.0
 44
0.0
 45
0.0
 46
0.0
 47
0.0
 48
0.0
 49
0.0
140
0.0
141
0.0
142
1.0
143
1.0
 70
688
 72
0
 73
0
 74
5
  7

 75
16
147
1.0
148
0.0
149
0.0
100
AcDbLayout
  1
Layout2
 70
1
 71
2
 10
0.0
 20
0.0
 11
12.0
 21
9.0
 12
0.0
 22
0.0
 32
0.0
 14
0.0
 24
0.0
 34
0.0
 15
0.0
 25
0.0
 35
0.0
146
0.0
 13
0.0
 23
0.0
 33
0.0
 16
1.0
 26
0.0
 36
0.0
 17
0.0
 27
1.0
 37
0.0
 76
0
330
23
  0
DICTIONARY
  5
164
100
AcDbDictionary
281
1
  3
DIMASSOC
350
167
  3
HIDETEXT
350
166
  0
DICTIONARYVAR
  5
166
100
DictionaryVariables
280
0
  1
2
  0
DICTIONARYVAR
  5
167
100
DictionaryVariables
280
0
  1
1
  0
DICTIONARY
  5
165
100
AcDbDictionary
281
1
  3
ColorSettings/BackgroundColor
350
168
  3
ColorSettings/ColorMode
350
169
  3
Grid/DisplayGrid00
350
16A
  3
Grid/DisplayGrid01
350
16B
  3
Grid/DisplayGrid02
350
16C
  3
Grid/DisplayGrid03
350
16D
  3
Grid/GridSpacingX00
350
16E
  3
Grid/GridSpacingX01
350
16F
  3
Grid/GridSpacingX02
350
170
  3
Grid/GridSpacingX03
350
171
  3
Grid/GridSpacingY00
350
172
  3
Grid/GridSpacingY01
350
173
  3
Grid/GridSpacingY02
350
174
  3
Grid/GridSpacingY03
350
175
  3
Grid/IsometricGrid00
350
176
  3
Grid/IsometricGrid01
350
177
  3
Grid/IsometricGrid02
350
178
  3
Grid/IsometricGrid03
350
179
  3
Grid/IsometricProjection00
350
17A
  3
Grid/IsometricProjection01
350
17B
  3
Grid/IsometricProjection02
350
17C
  3
Grid/IsometricProjection03
350
17D
  3
Grid/MetaGridSpacingX00
350
17E
  3
Grid/MetaGridSpacingX01
350
17F
  3
Grid/MetaGridSpacingX02
350
180
  3
Grid/MetaGridSpacingX03
350
181
  3
Grid/MetaGridSpacingY00
350
182
  3
Grid/MetaGridSpacingY01
350
183
  3
Grid/MetaGridSpacingY02
350
184
  3
Grid/MetaGridSpacingY03
350
185
  3
MultiPageSettings/Columns
350
186
  3
MultiPageSettings/GlueMarginsBottom
350
187
  3
MultiPageSettings/GlueMarginsLeft
350
188
  3
MultiPageSettings/GlueMarginsRight
350
189
  3
MultiPageSettings/GlueMarginsTop
350
18A
  3
MultiPageSettings/PrintCropMarks
350
18B
  3
MultiPageSettings/Rows
350
18C
  3
PageSettings/OffsetX
350
18D
  3
PageSettings/OffsetY
350
18E
  3
PageSettings/PageOrientation
350
18F
  3
PageSettings/PaperHeight
350
190
  3
PageSettings/PaperSizeName
350
191
  3
PageSettings/PaperWidth
350
192
  3
PageSettings/Scale
350
193
  3
PageSettings/ShowPaperBorders
350
194
  3
QCADVersion
350
195
  3
UnitSettings/Measurement
350
196
  3
UnitSettings/PaperUnit
350
197
  0
XRECORD
  5
168
330
165
100
AcDbXrecord
280
1
1000
White
  0
XRECORD
  5
169
330
165
100
AcDbXrecord
280
1
1000
Grayscale
  0
XRECORD
  5
16A
330
165
100
AcDbXrecord
280
1
290
1
  0
XRECORD
  5
16B
330
165
100
AcDbXrecord
280
1
290
1
  0
XRECORD
  5
16C
330
165
100
AcDbXrecord
280
1
290
1
  0
XRECORD
  5
16D
330
165
100
AcDbXrecord
280
1
290
1
  0
XRECORD
  5
16E
330
165
100
AcDbXrecord
280
1
1000
auto
  0
XRECORD
  5
16F
330
165
100
AcDbXrecord
280
1
1000
auto
  0
XRECORD
  5
170
330
165
100
AcDbXrecord
280
1
1000
auto
  0
XRECORD
  5
171
330
165
100
AcDbXrecord
280
1
1000
auto
  0
XRECORD
  5
172
330
165
100
AcDbXrecord
280
1
1000
auto
  0
XRECORD
  5
173
330
165
100
AcDbXrecord
280
1
1000
auto
  0
XRECORD
  5
174
330
165
100
AcDbXrecord
280
1
1000
auto
  0
XRECORD
  5
175
330
165
100
AcDbXrecord
280
1
1000
auto
  0
XRECORD
  5
176
330
165
100
AcDbXrecord
280
1
290
0
  0
XRECORD
  5
177
330
165
100
AcDbXrecord
280
1
290
0
  0
XRECORD
  5
178
330
165
100
AcDbXrecord
280
1
290
0
  0
XRECORD
  5
179
330
165
100
AcDbXrecord
280
1
290
0
  0
XRECORD
  5
17A
330
165
100
AcDbXrecord
280
1
 90
0
  0
XRECORD
  5
17B
330
165
100
AcDbXrecord
280
1
 90
0
  0
XRECORD
  5
17C
330
165
100
AcDbXrecord
280
1
 90
0
  0
XRECORD
  5
17D
330
165
100
AcDbXrecord
280
1
 90
0
  0
XRECORD
  5
17E
330
165
100
AcDbXrecord
280
1
1000
auto
  0
XRECORD
  5
17F
330
165
100
AcDbXrecord
280
1
1000
auto
  0
XRECORD
  5
180
330
165
100
AcDbXrecord
280
1
1000
auto
  0
XRECORD
  5
181
330
165
100
AcDbXrecord
280
1
1000
auto
  0
XRECORD
  5
182
330
165
100
AcDbXrecord
280
1
1000
auto
  0
XRECORD
  5
183
330
165
100
AcDbXrecord
280
1
1000
auto
  0
XRECORD
  5
184
330
165
100
AcDbXrecord
280
1
1000
auto
  0
XRECORD
  5
185
330
165
100
AcDbXrecord
280
1
1000
auto
  0
XRECORD
  5
186
330
165
100
AcDbXrecord
280
1
 90
1
  0
XRECORD
  5
187
330
165
100
AcDbXrecord
280
1
 40
10.0
  0
XRECORD
  5
188
330
165
100
AcDbXrecord
280
1
 40
10.0
  0
XRECORD
  5
189
330
165
100
AcDbXrecord
280
1
 40
10.0
  0
XRECORD
  5
18A
330
165
100
AcDbXrecord
280
1
 40
10.0
  0
XRECORD
  5
18B
330
165
100
AcDbXrecord
280
1
290
0
  0
XRECORD
  5
18C
330
165
100
AcDbXrecord
280
1
 90
1
  0
XRECORD
  5
18D
330
165
100
AcDbXrecord
280
1
 40
0.0
  0
XRECORD
  5
18E
330
165
100
AcDbXrecord
280
1
 40
0.0
  0
XRECORD
  5
18F
330
165
100
AcDbXrecord
280
1
1000
Portrait
  0
XRECORD
  5
190
330
165
100
AcDbXrecord
280
1
1000
12
  0
XRECORD
  5
191
330
165
100
AcDbXrecord
280
1
1000
Custom
  0
XRECORD
  5
192
330
165
100
AcDbXrecord
280
1
1000
 12
  0
XRECORD
  5
193
330
165
100
AcDbXrecord
280
1
1000
1:1
  0
XRECORD
  5
194
330
165
100
AcDbXrecord
280
1
290
1
  0
XRECORD
  5
195
330
165
100
AcDbXrecord
280
1
1000
3.11.3
  0
XRECORD
  5
196
330
165
100
AcDbXrecord
280
1
 40
1.0
  0
XRECORD
  5
197
330
165
100
AcDbXrecord
280
1
 40
1.0
  0
ENDSEC
  0
EOF
